rangeen.sfdir
StartChar: .notdef
Encoding: 0 0 54
Width: 512
VWidth: 1000
Flags: HW
LayerCount: 2
Fore
SplineSet
512 800 m 2
 512 812 502 822 490 822 c 2
 22 822 l 2
 10 822 0 812 -0 800 c 2
 -0 0 l 2
 -0 -12 10 -22 22 -22 c 2
 490 -22 l 2
 502 -22 512 -12 512 -0 c 2
 512 800 l 2
-5 800 m 2
 -5 815 7 827 22 827 c 2
 490 827 l 2
 505 827 517 815 517 800 c 2
 517 -0 l 2
 517 -15 505 -27 490 -27 c 2
 22 -27 l 2
 7 -27 -5 -15 -5 0 c 2
 -5 800 l 2
463 773 m 1
 49 773 l 1
 49 27 l 1
 463 27 l 1
 463 773 l 1
468 775 m 2
 468 25 l 2
 468 24 466 22 465 22 c 2
 47 22 l 2
 46 22 44 24 44 25 c 2
 44 775 l 2
 44 776 46 778 47 778 c 2
 465 778 l 2
 466 778 468 776 468 775 c 2
356 508 m 0
 356 507 348 422 326 422 c 2
 246 422 l 2
 234 422 224 412 224 400 c 2
 224 212 l 2
 224 200 234 190 246 190 c 0
 258 190 268 200 268 212 c 2
 268 375 l 2
 268 376 270 378 271 378 c 2
 340 378 l 2
 384 378 401 489 401 508 c 0
 401 591 337 660 258 660 c 0
 231 660 150 642 150 604 c 2
 150 570 l 2
 150 558 160 548 172 548 c 0
 184 548 194 558 194 570 c 2
 194 591 l 2
 194 607 250 616 258 616 c 0
 311 616 356 563 356 508 c 0
250 174 m 0
 238 174 228 164 228 152 c 2
 228 108 l 2
 228 96 238 86 250 86 c 0
 262 86 272 96 272 108 c 2
 272 152 l 2
 272 164 262 174 250 174 c 0
250 81 m 0
 235 81 223 93 223 108 c 2
 223 152 l 2
 223 167 235 179 250 179 c 0
 265 179 277 167 277 152 c 2
 277 108 l 2
 277 93 265 81 250 81 c 0
258 611 m 1
 237 611 220 604 199 590 c 1
 199 570 l 2
 199 555 187 543 172 543 c 0
 157 543 145 555 145 570 c 2
 145 604 l 2
 145 645 227 665 258 665 c 0
 340 665 406 594 406 508 c 0
 406 485 387 373 340 373 c 2
 273 373 l 1
 273 212 l 2
 273 197 261 185 246 185 c 0
 231 185 219 197 219 212 c 2
 219 400 l 2
 219 415 231 427 246 427 c 2
 325 427 l 1
 344 459 351 486 351 508 c 0
 351 573 299 594 258 611 c 1
EndSplineSet
EndChar
StartChar: exclam
Encoding: 33 33 0
Width: 163
Flags: W
HStem: 110 5<76.057 96.1186> 225 5<76.057 96.1186> 295 5<73.6044 92.5534> 834 5<67.057 87.1186>
VStem: 50 5<323 821.937> 56 5<312.924 812> 59 5<127.063 212.937> 100 5<323 821.319> 106 5<313.559 812> 109 5<127.681 212.319>
LayerCount: 2
Fore
SplineSet
83 300 m 0xfd80
 95 300 106 311 106 323 c 2
 100 812 l 2
 100 824 89 834 77 834 c 0
 65 834 55 824 55 812 c 2
 61 323 l 2
 61 311 71 300 83 300 c 0xfd80
77 839 m 0
 92 839 105 827 105 812 c 2
 111 323 l 2
 111 308 98 295 83 295 c 0
 68 295 56 308 56 323 c 2
 50 812 l 2
 50 827 62 839 77 839 c 0
64 203 m 2xfb40
 64 137 l 2
 64 125 74 115 86 115 c 0
 98 115 109 125 109 137 c 2
 109 203 l 2
 109 215 98 225 86 225 c 0
 74 225 64 215 64 203 c 2xfb40
59 203 m 2
 59 218 71 230 86 230 c 0
 101 230 114 218 114 203 c 2
 114 137 l 2
 114 122 101 110 86 110 c 0
 71 110 59 122 59 137 c 2
 59 203 l 2
EndSplineSet
EndChar
StartChar: quotedbl
Encoding: 34 34 1
Width: 247
Flags: W
HStem: 667 74
VStem: 50 5<672 733> 53 5<672 733> 100 5<675 736> 103 5<675 736> 140 5<675 736> 143 5<675 736> 190 5<678 739> 193 5<678 739>
LayerCount: 2
Fore
SplineSet
58 672 m 1xa0
 103 675 l 1xa8
 100 736 l 1
 55 733 l 1xd0
 58 672 l 1xa0
56 667 m 2
 55 667 53 669 53 670 c 2xa8
 50 736 l 2
 50 737 51 738 52 738 c 2
 102 741 l 2
 103 741 105 739 105 738 c 2xd0
 108 672 l 2
 108 671 107 670 106 670 c 2
 56 667 l 2
148 675 m 1x82
 193 678 l 1x8280
 190 739 l 1
 145 736 l 1x85
 148 675 l 1x82
146 670 m 2
 145 670 143 672 143 673 c 2x8280
 140 739 l 2
 140 740 141 741 142 741 c 2
 192 744 l 2
 193 744 195 742 195 741 c 2x85
 198 675 l 2
 198 674 197 673 196 673 c 2
 146 670 l 2
EndSplineSet
EndChar
StartChar: numbersign
Encoding: 35 35 2
Width: 565
Flags: W
HStem: 164 5<136.057 156.129 337.057 357.129> 228 5<67.0634 77 180 180> 237 5<382 498.937> 277 5<67.0634 133> 286 5<390 498.937> 428 5<67.0634 78 211 211> 437 5<413 498.937> 477 5<67.0634 164> 481 5<77 164 220 365> 486 5<220 365 421 498.937> 565 5<190.577 209.553 391.577 410.553>
VStem: 50 5<245.057 264.943 445.057 464.943> 119 5<181.063 229> 223 5<494.399 551.441> 320 5<181.063 233> 424 5<494.992 551.441> 511 5<254.057 273.943 454.057 473.943>
LayerCount: 2
Fore
SplineSet
335 288 m 1xfe3f80
 357 434 l 1
 211 430 l 1
 189 285 l 1
 335 288 l 1xfe3f80
183 282 m 0
 183 283 l 2
 207 433 l 2
 207 434 208 435 209 435 c 2
 360 439 l 2
 361 439 362 437 362 436 c 0
 339 285 l 2
 339 284 338 283 337 283 c 2
 186 280 l 2
 185 280 183 281 183 282 c 0
200 565 m 0
 189 565 180 556 178 545 c 2
 168 482 l 2
 168 481 167 479 166 479 c 2
 77 477 l 2
 65 477 55 467 55 455 c 0
 55 443 65 433 77 433 c 0
 78 433 l 2
 158 434 l 0
 159 434 161 433 161 432 c 0
 161 431 l 2
 138 281 l 2
 138 280 136 279 135 279 c 2
 77 277 l 2
 65 277 55 267 55 255 c 0
 55 243 65 233 77 233 c 0
 94 233 110 234 127 234 c 0
 128 234 130 232 130 231 c 0
 124 194 l 2
 124 193 124 192 124 191 c 0
 124 179 134 169 146 169 c 0
 157 169 167 177 169 188 c 2
 176 233 l 2
 176 234 177 235 178 235 c 2
 329 238 l 0
 330 238 332 237 332 236 c 0
 332 235 l 2
 325 194 l 2
 325 193 325 192 325 191 c 0
 325 179 335 169 347 169 c 0
 358 169 368 177 370 188 c 2
 377 237 l 2
 377 238 379 239 380 239 c 2
 489 242 l 2
 501 242 511 252 511 264 c 0
 511 276 501 286 489 286 c 0
 488 286 l 2
 388 284 l 0
 387 284 385 286 385 287 c 0
 408 438 l 2
 408 439 410 440 411 440 c 2
 489 442 l 2
 501 442 511 452 511 464 c 0
 511 476 501 486 489 486 c 0
 466 486 441 486 418 485 c 0
 417 485 416 486 416 487 c 0
 416 488 l 2
 424 539 l 2
 424 540 424 541 424 542 c 0
 424 554 413 565 401 565 c 0
 390 565 381 556 379 545 c 2
 370 486 l 2xff7f80
 370 485 369 484 368 484 c 2
 217 481 l 0xfebf80
 216 481 214 482 214 483 c 0
 223 539 l 2
 223 540 223 541 223 542 c 0
 223 554 212 565 200 565 c 0
200 570 m 0
 215 570 228 557 228 542 c 0
 228 541 228 539 228 538 c 2
 220 486 l 1xfebf80
 365 489 l 1
 374 546 l 2
 376 559 387 570 401 570 c 0
 416 570 429 557 429 542 c 0
 429 541 429 539 429 538 c 2
 421 490 l 1
 443 490 467 491 489 491 c 0
 504 491 516 479 516 464 c 0
 516 449 504 437 489 437 c 2
 413 435 l 1
 390 289 l 1
 488 291 l 2
 489 291 l 0
 504 291 516 279 516 264 c 0
 516 249 504 237 489 237 c 2
 382 234 l 1
 375 187 l 2
 373 174 361 164 347 164 c 0
 332 164 320 176 320 191 c 0
 320 192 320 194 320 195 c 2
 326 233 l 1
 180 230 l 1
 174 187 l 2
 172 174 160 164 146 164 c 0
 131 164 119 176 119 191 c 0
 119 192 119 194 119 195 c 2
 124 229 l 1
 108 229 93 228 77 228 c 0
 62 228 50 240 50 255 c 0
 50 270 62 282 77 282 c 2
 133 284 l 1
 155 429 l 1
 129 428 103 428 77 428 c 0
 62 428 50 440 50 455 c 0
 50 470 62 482 77 482 c 2
 164 484 l 1
 173 546 l 2
 175 559 186 570 200 570 c 0
EndSplineSet
EndChar
StartChar: dollar
Encoding: 36 36 3
Width: 356
Flags: W
HStem: -28 5<148.881 168.943> 104 5<141.6 181 186 188.716> 154 5<150.882 181> 156 6<186 196.688> 225 5<148.881 168.943> 250 5<68.4466 87.5655> 584 5<181.881 201.943> 608 5<237.3 258.119> 699 6<169 177.625 185 193> 825 5<181.881 201.943>
VStem: 50 5<196.708 236.441> 65 5<522.174 574.67> 116 5<522.67 570.562> 131 5<-10.3189 108 113 212.319> 164 5<601.681 644.455 649 699 705 812.319> 178 22<656.092 662.41> 181 5<-10.9366 105 111 156 162 212.937> 214 5<601.063 812.937> 242 5<197.516 223.125> 252 5<243.987 287.56> 271 5<625.604 644.83> 301 5<233.839 294.486>
LayerCount: 2
Fore
SplineSet
165 104 m 0xcffefc
 155 104 145 105 136 108 c 1
 136 -1 l 2
 136 -13 147 -23 159 -23 c 0
 171 -23 181 -13 181 -1 c 2
 181 105 l 1
 175 104 170 104 165 104 c 0xcffefc
248 613 m 0
 260 613 271 623 271 635 c 0
 271 643 266 651 259 655 c 0
 246 662 231 680 219 691 c 1
 219 628 l 1
 224 623 231 619 238 615 c 0
 241 613 244 613 248 613 c 0
78 250 m 0
 66 250 55 239 55 227 c 0
 55 225 55 223 56 221 c 2
 73 160 l 1
 81 154 89 147 96 140 c 0
 106 131 117 121 131 115 c 1
 131 169 l 1
 125 174 120 179 113 185 c 0
 112 186 l 2
 99 233 l 2
 96 243 88 250 78 250 c 0
257 266 m 0
 257 251 253 233 247 216 c 0
 247 215 247 213 247 212 c 0
 247 198 241 187 233 179 c 0
 222 168 205 160 186 156 c 1xdffefc
 186 111 l 1
 215 115 243 125 265 147 c 0
 280 162 291 183 292 208 c 0
 299 228 301 247 301 265 c 0
 301 290 296 313 286 334 c 0
 254 403 187 445 136 496 c 0
 131 501 126 506 122 511 c 0
 121 512 l 0
 117 523 116 535 116 547 c 0
 116 579 128 612 151 635 c 0
 155 639 160 643 164 646 c 1
 164 697 l 1
 109 672 70 612 70 547 c 0
 70 527 75 507 82 489 c 1
 102 463 128 442 153 420 c 0
 187 391 226 356 245 315 c 0
 252 300 257 284 257 266 c 0
214 626 m 1
 205 634 196 645 187 653 c 1
 181 650 175 647 169 643 c 1
 169 611 l 2
 169 599 180 589 192 589 c 0
 204 589 214 599 214 611 c 2
 214 626 l 1
181 203 m 2
 181 215 171 225 159 225 c 0
 147 225 136 215 136 203 c 2
 136 171 l 1
 144 165 148 162 153 160 c 0
 156 159 160 159 165 159 c 0xeffefc
 169 159 174 160 181 161 c 1
 181 203 l 2
242 212 m 0
 242 213 242 215 242 216 c 0
 242 217 l 0
 248 233 252 252 252 266 c 0
 252 283 248 298 241 313 c 0
 222 355 178 391 142 422 c 0
 119 442 97 462 78 486 c 0
 77 486 l 0
 69 505 65 526 65 547 c 0
 65 615 106 678 164 703 c 1
 164 803 l 2
 164 818 177 830 192 830 c 0
 207 830 219 818 219 803 c 2
 219 698 l 1
 225 693 229 688 234 683 c 0
 242 675 255 663 262 659 c 0
 270 654 276 645 276 635 c 0
 276 620 263 608 248 608 c 0
 243 608 239 609 235 611 c 0
 229 614 224 618 219 622 c 1
 219 611 l 2
 219 596 207 584 192 584 c 0
 177 584 164 596 164 611 c 2
 164 639 l 1
 161 636 158 634 155 631 c 0
 133 609 121 578 121 547 c 0
 121 536 122 525 126 514 c 1
 144 493 165 475 186 457 c 0
 226 422 268 387 291 336 c 0
 301 315 306 291 306 265 c 0
 306 247 304 227 297 207 c 1
 296 181 285 160 269 144 c 0
 246 121 216 111 186 106 c 1
 186 -1 l 2
 186 -16 174 -28 159 -28 c 0
 144 -28 131 -16 131 -1 c 2
 131 110 l 1
 113 117 102 128 91 138 c 0
 84 144 76 151 69 157 c 0
 69 157 68 157 68 158 c 2
 51 220 l 2
 50 222 50 224 50 227 c 0
 50 242 63 255 78 255 c 0
 91 255 101 246 104 234 c 2
 117 189 l 1
 122 184 126 180 131 176 c 1
 131 203 l 2
 131 218 144 230 159 230 c 0
 174 230 186 218 186 203 c 2
 186 162 l 1xdffefc
 204 166 220 173 230 183 c 0
 238 191 242 199 242 212 c 0
214 803 m 2
 214 815 204 825 192 825 c 0
 180 825 169 815 169 803 c 2
 169 705 l 1
 177 708 185 709 193 711 c 0
 193 712 l 0
 194 711 l 0
 202 709 208 705 214 701 c 1
 214 803 l 2
136 113 m 1
 145 110 155 109 165 109 c 0
 170 109 175 109 181 110 c 1
 181 156 l 1xdffefc
 174 155 169 154 165 154 c 0xeffefc
 159 154 155 155 152 156 c 0
 147 158 142 160 136 165 c 1
 136 113 l 1
183 656 m 1
 181 658 178 658 178 660 c 0xcfff7c
 178 661 180 663 181 663 c 0xcffefc
 187 663 192 662 198 661 c 0
 199 661 200 660 200 659 c 0xcfff7c
 200 656 194 656 192 655 c 1
 199 648 207 640 214 633 c 1
 214 695 l 1
 208 700 201 703 193 706 c 1
 185 704 177 702 169 699 c 1
 169 649 l 1
 173 652 178 654 183 656 c 1
EndSplineSet
EndChar
StartChar: percent
Encoding: 37 37 4
Width: 556
Flags: W
HStem: 154 5<79.6044 99.3466> 227 5<410.548 445.684> 276 5<420.285 436.306> 353 5<420.285 436.306> 402 5<410.548 445.684> 527 5<110.548 145.684> 576 5<120.285 136.306> 653 5<120.285 136.306> 669 5<408.257 429.119> 702 5<110.548 145.684>
VStem: 50 5<596.247 637.753> 62 5<171.881 192.559> 100 5<601.764 632.236> 152 5<601.764 632.236> 202 5<596.247 637.753> 350 5<296.247 337.753> 400 5<301.764 332.236> 442 5<636.465 656.396> 452 5<301.764 332.236> 502 5<296.247 337.753>
LayerCount: 2
Fore
SplineSet
355 317 m 0
 355 292 365 268 381 252 c 0
 393 240 409 232 428 232 c 0
 447 232 464 240 476 252 c 0
 492 268 502 292 502 317 c 0
 502 342 492 366 476 382 c 0
 464 394 447 402 428 402 c 0
 409 402 393 394 381 382 c 0
 365 366 355 342 355 317 c 0
350 317 m 0
 350 344 360 368 377 385 c 0
 390 398 408 407 428 407 c 0
 448 407 467 398 480 385 c 0
 497 368 507 344 507 317 c 0
 507 290 497 266 480 249 c 0
 467 236 448 227 428 227 c 0
 408 227 390 236 377 249 c 0
 360 266 350 290 350 317 c 0
405 317 m 0
 405 304 410 293 416 287 c 0
 420 283 424 281 428 281 c 0
 432 281 437 283 441 287 c 0
 447 293 452 304 452 317 c 0
 452 330 447 341 441 347 c 0
 437 351 432 353 428 353 c 0
 424 353 420 351 416 347 c 0
 410 341 405 330 405 317 c 0
400 317 m 0
 400 331 405 343 412 350 c 0
 417 355 423 358 428 358 c 0
 433 358 440 355 445 350 c 0
 452 343 457 331 457 317 c 0
 457 303 452 291 445 284 c 0
 440 279 433 276 428 276 c 0
 423 276 417 279 412 284 c 0
 405 291 400 303 400 317 c 0
55 617 m 0
 55 592 65 568 81 552 c 0
 93 540 109 532 128 532 c 0
 147 532 164 540 176 552 c 0
 192 568 202 592 202 617 c 0
 202 642 192 666 176 682 c 0
 164 694 147 702 128 702 c 0
 109 702 93 694 81 682 c 0
 65 666 55 642 55 617 c 0
50 617 m 0
 50 644 60 668 77 685 c 0
 90 698 108 707 128 707 c 0
 148 707 167 698 180 685 c 0
 197 668 207 644 207 617 c 0
 207 590 197 566 180 549 c 0
 167 536 148 527 128 527 c 0
 108 527 90 536 77 549 c 0
 60 566 50 590 50 617 c 0
105 617 m 0
 105 604 110 593 116 587 c 0
 120 583 124 581 128 581 c 0
 132 581 137 583 141 587 c 0
 147 593 152 604 152 617 c 0
 152 630 147 641 141 647 c 0
 137 651 132 653 128 653 c 0
 124 653 120 651 116 647 c 0
 110 641 105 630 105 617 c 0
100 617 m 0
 100 631 105 643 112 650 c 0
 117 655 123 658 128 658 c 0
 133 658 140 655 145 650 c 0
 152 643 157 631 157 617 c 0
 157 603 152 591 145 584 c 0
 140 579 133 576 128 576 c 0
 123 576 117 579 112 584 c 0
 105 591 100 603 100 617 c 0
419 669 m 0
 411 669 405 666 401 660 c 2
 71 195 l 2
 68 191 67 187 67 182 c 0
 67 170 77 159 89 159 c 0
 97 159 104 163 108 169 c 2
 438 634 l 2
 441 638 442 642 442 647 c 0
 442 659 431 669 419 669 c 0
419 674 m 0
 434 674 447 662 447 647 c 0
 447 641 445 635 442 631 c 2
 112 166 l 2
 107 159 98 154 89 154 c 0
 74 154 62 167 62 182 c 0
 62 188 64 193 67 198 c 2
 397 663 l 2
 402 670 410 674 419 674 c 0
EndSplineSet
EndChar
StartChar: ampersand
Encoding: 38 38 5
Width: 433
Flags: HW
LayerCount: 2
Fore
SplineSet
239 76 m 0
 260 76 276 97 292 97 c 0
 293 97 294 97 294 96 c 2
 322 54 l 2
 326 48 334 45 341 45 c 0
 353 45 363 55 363 67 c 0
 363 71 363 76 360 80 c 2
 325 131 l 2
 325 131 325 131 325 132 c 0
 325 170 378 222 378 272 c 0
 378 284 368 294 356 294 c 0
 344 294 334 284 334 272 c 0
 334 262 313 175 297 175 c 0
 296 175 295 175 295 176 c 2
 258 231 l 2
 242 255 195 332 195 369 c 0
 195 370 196 371 196 371 c 0
 243 414 298 466 298 547 c 0
 298 564 297 570 297 592 c 2
 297 593 l 2
 296 660 297 774 227 774 c 0
 190 774 146 744 137 721 c 2
 110 652 l 2
 109 649 109 647 109 644 c 2
 109 491 l 2
 109 455 140 415 140 381 c 0
 140 380 139 379 139 379 c 0
 97 339 55 289 55 215 c 0
 55 104 127 76 239 76 c 0
134 381 m 1
 119 410 104 458 104 491 c 2
 104 644 l 2
 104 647 104 651 105 654 c 2
 132 723 l 2
 143 752 186 779 227 779 c 0
 302 779 301 664 302 593 c 2
 302 592 l 2
 302 569 303 565 303 547 c 0
 303 464 248 411 201 368 c 1
 219 324 240 267 262 233 c 2
 296 182 l 1
 308 202 329 251 329 272 c 0
 329 287 341 299 356 299 c 0
 371 299 383 287 383 272 c 0
 383 223 354 166 330 132 c 1
 364 82 l 2
 367 77 368 72 368 67 c 0
 368 52 356 40 341 40 c 0
 332 40 323 45 318 52 c 2
 292 91 l 1
 277 79 260 71 239 71 c 0
 126 71 50 101 50 215 c 0
 50 290 92 341 134 381 c 1
EndSplineSet
EndChar
StartChar: quotesingle
Encoding: 39 39 6
Width: 157
Flags: HW
LayerCount: 2
Fore
SplineSet
102 728 m 0
 102 740 92 750 80 750 c 0
 68 750 58 741 58 729 c 2
 55 618 l 2
 55 617 l 0
 55 605 65 595 77 595 c 0
 89 595 99 604 99 616 c 2
 102 727 l 2
 102 728 l 0
77 590 m 0
 62 590 50 602 50 617 c 0
 50 618 l 2
 53 729 l 2
 53 743 65 755 80 755 c 0
 95 755 107 743 107 728 c 0
 107 727 l 2
 104 616 l 2
 104 602 92 590 77 590 c 0
EndSplineSet
EndChar
StartChar: parenleft
Encoding: 40 40 7
Width: 208
Flags: W
HStem: -76 5<119.582 141.119> 1005 5<119.582 141.119>
VStem: 50 5<306.942 627.058> 100 5<314.244 612.575> 154 5<-58.3956 -38.7489 973.507 992.396>
LayerCount: 2
Fore
SplineSet
154 -49 m 0
 154 -40 149 -33 142 -29 c 0
 140 -28 139 -24 138 -22 c 0
 130 0 120 54 113 126 c 0
 105 216 100 336 100 467 c 0
 100 614 107 747 117 840 c 0
 122 881 126 915 132 937 c 0
 135 949 138 958 140 962 c 0
 140 963 140 963 141 963 c 0
 148 967 154 974 154 983 c 0
 154 995 143 1005 131 1005 c 0
 121 1005 114 1000 110 996 c 0
 104 990 101 985 98 978 c 0
 94 970 92 959 89 948 c 0
 83 922 77 887 72 845 c 0
 61 750 55 616 55 467 c 0
 55 318 61 184 72 89 c 0
 77 47 83 12 89 -14 c 0
 92 -25 94 -36 98 -44 c 0
 101 -51 104 -56 110 -62 c 0
 114 -66 121 -71 131 -71 c 0
 143 -71 154 -61 154 -49 c 0
159 -49 m 0
 159 -64 146 -76 131 -76 c 0
 119 -76 111 -71 106 -66 c 0
 100 -60 97 -53 94 -46 c 0
 90 -37 87 -27 84 -15 c 0
 78 11 72 45 67 88 c 0
 56 184 50 318 50 467 c 0
 50 616 56 750 67 846 c 0
 72 889 78 923 84 949 c 0
 87 961 90 971 94 980 c 0
 97 987 100 994 106 1000 c 0
 111 1005 119 1010 131 1010 c 0
 146 1010 159 998 159 983 c 0
 159 973 153 964 144 959 c 0
 142 955 140 947 137 936 c 0
 132 914 127 881 122 840 c 0
 112 747 105 614 105 467 c 0
 105 336 110 217 118 127 c 0
 125 55 135 1 143 -20 c 1
 145 -25 l 1
 154 -30 159 -39 159 -49 c 0
EndSplineSet
EndChar
StartChar: parenright
Encoding: 41 41 8
Width: 208
Flags: W
HStem: -76 5<67.057 88.7689> 1005 5<67.057 88.7689>
VStem: 50 5<-58.943 -38.7489 972.749 992.943> 104 5<314.244 612.575> 154 5<306.942 627.058>
LayerCount: 2
Fore
SplineSet
77 -71 m 0
 87 -71 95 -66 99 -62 c 0
 105 -56 108 -51 111 -44 c 0
 115 -36 117 -25 120 -14 c 0
 126 12 132 47 137 89 c 0
 148 184 154 318 154 467 c 0
 154 616 148 750 137 845 c 0
 132 887 126 922 120 948 c 0
 117 959 115 970 111 978 c 0
 108 985 105 990 99 996 c 0
 95 1000 87 1005 77 1005 c 0
 65 1005 55 995 55 983 c 0
 55 974 60 967 67 963 c 0
 68 963 69 963 69 962 c 0
 71 958 74 949 77 937 c 0
 83 915 87 881 92 840 c 0
 102 747 109 614 109 467 c 0
 109 336 104 216 96 126 c 0
 89 54 79 0 71 -22 c 0
 70 -24 69 -28 67 -29 c 0
 60 -33 55 -40 55 -49 c 0
 55 -61 65 -71 77 -71 c 0
77 -76 m 0
 62 -76 50 -64 50 -49 c 0
 50 -39 55 -30 64 -25 c 1
 66 -20 l 1
 74 1 84 55 91 127 c 0
 99 217 104 336 104 467 c 0
 104 614 97 747 87 840 c 0
 82 881 77 914 72 936 c 0
 69 947 66 955 64 959 c 0
 55 964 50 973 50 983 c 0
 50 998 62 1010 77 1010 c 0
 89 1010 98 1005 103 1000 c 0
 109 994 112 987 115 980 c 0
 119 971 122 961 125 949 c 0
 131 923 137 889 142 846 c 0
 153 750 159 616 159 467 c 0
 159 318 153 184 142 88 c 0
 137 45 131 11 125 -15 c 0
 122 -27 119 -37 115 -46 c 0
 112 -53 109 -60 103 -66 c 0
 98 -71 89 -76 77 -76 c 0
EndSplineSet
EndChar
StartChar: asterisk
Encoding: 42 42 9
Width: 386
Flags: HW
LayerCount: 2
Fore
SplineSet
191 636 m 0
 179 636 169 626 169 614 c 2
 170 512 l 2
 170 511 168 509 167 509 c 0
 166 509 166 510 166 510 c 2
 93 581 l 2
 89 585 83 587 77 587 c 0
 65 587 55 577 55 565 c 0
 55 559 57 553 61 549 c 2
 159 453 l 2
 159 453 160 453 160 452 c 0
 160 451 159 450 159 450 c 2
 63 352 l 2
 59 348 57 342 57 336 c 0
 57 324 67 314 79 314 c 0
 85 314 91 316 95 320 c 2
 167 393 l 2
 167 393 168 394 169 394 c 0
 170 394 171 393 171 392 c 2
 173 290 l 2
 173 278 183 268 195 268 c 0
 207 268 217 278 217 290 c 2
 216 392 l 2
 216 393 218 395 219 395 c 0
 220 395 220 394 220 394 c 2
 293 323 l 2
 297 319 303 317 309 317 c 0
 321 317 331 327 331 339 c 0
 331 345 329 351 325 355 c 2
 227 451 l 2
 227 451 226 451 226 452 c 0
 226 453 227 454 227 454 c 2
 323 552 l 2
 327 556 329 562 329 568 c 0
 329 580 319 590 307 590 c 0
 301 590 295 588 291 584 c 2
 219 511 l 2
 219 511 218 510 217 510 c 0
 216 510 215 511 215 512 c 2
 213 614 l 2
 213 626 203 636 191 636 c 0
164 614 m 2
 164 629 176 641 191 641 c 0
 206 641 218 629 218 614 c 2
 220 518 l 1
 288 587 l 2
 293 592 300 595 307 595 c 0
 322 595 334 583 334 568 c 0
 334 561 332 554 327 549 c 2
 232 452 l 1
 328 358 l 2
 333 353 336 346 336 339 c 0
 336 324 324 312 309 312 c 0
 302 312 295 314 290 319 c 2
 221 386 l 1
 222 290 l 2
 222 275 210 263 195 263 c 0
 180 263 168 275 168 290 c 2
 166 386 l 1
 98 317 l 2
 93 312 86 309 79 309 c 0
 64 309 52 321 52 336 c 0
 52 343 54 350 59 355 c 2
 154 452 l 1
 58 546 l 2
 53 551 50 558 50 565 c 0
 50 580 62 592 77 592 c 0
 84 592 91 590 96 585 c 2
 165 518 l 1
 164 614 l 2
EndSplineSet
EndChar
StartChar: plus
Encoding: 43 43 10
Width: 433
Flags: W
HStem: 246 5<198.057 218.119> 384 5<67.0634 181 236 366.076> 433 5<67.0634 181 236 366.076> 576 5<198.057 218.119>
VStem: 50 5<401.057 420.943> 181 5<263.063 384 438 563.937> 231 5<263.681 384 438 563.319> 379 5<401.604 420.396>
LayerCount: 2
Fore
SplineSet
77 389 m 2
 184 389 l 2
 185 389 186 387 186 386 c 2
 186 273 l 2
 186 261 196 251 208 251 c 0
 220 251 231 261 231 273 c 2
 231 386 l 2
 231 387 232 389 233 389 c 2
 356 389 l 2
 368 389 379 399 379 411 c 0
 379 423 368 433 356 433 c 2
 233 433 l 2
 232 433 231 435 231 436 c 2
 231 554 l 2
 231 566 220 576 208 576 c 0
 196 576 186 566 186 554 c 2
 186 436 l 2
 186 435 185 433 184 433 c 2
 77 433 l 2
 65 433 55 423 55 411 c 0
 55 399 65 389 77 389 c 2
77 384 m 2
 62 384 50 396 50 411 c 0
 50 426 62 438 77 438 c 2
 181 438 l 1
 181 554 l 2
 181 569 193 581 208 581 c 0
 223 581 236 569 236 554 c 2
 236 438 l 1
 356 438 l 2
 371 438 384 426 384 411 c 0
 384 396 371 384 356 384 c 2
 236 384 l 1
 236 273 l 2
 236 258 223 246 208 246 c 0
 193 246 181 258 181 273 c 2
 181 384 l 1
 77 384 l 2
EndSplineSet
EndChar
StartChar: comma
Encoding: 44 44 11
Width: 191
Flags: W
HStem: -92 5<68.4466 86.7594> 49 5<94.6044 113.579>
VStem: 50 5<-73.5534 -53.5705> 77 5<16.0038 36.1186> 86 5<-13.5054 5.04166> 136 5<-23.3234 9.65399>
LayerCount: 2
Fore
SplineSet
82 26 m 0
 82 18 91 4 91 -7 c 0
 91 -9 90 -14 86 -21 c 0
 80 -31 72 -39 65 -45 c 0
 59 -51 55 -54 55 -64 c 0
 55 -76 66 -87 78 -87 c 0
 84 -87 88 -84 92 -81 c 0
 92 -81 95 -79 100 -74 c 0
 107 -67 116 -57 124 -44 c 0
 130 -34 136 -22 136 -7 c 0
 136 7 128 28 125 35 c 0
 121 43 113 49 104 49 c 0
 92 49 82 38 82 26 c 0
77 26 m 0
 77 41 89 54 104 54 c 0
 115 54 126 47 130 37 c 0
 133 29 141 9 141 -7 c 0
 141 -23 134 -37 128 -47 c 0
 120 -60 111 -70 104 -77 c 0
 99 -82 95 -85 95 -85 c 0
 90 -89 85 -92 78 -92 c 0
 63 -92 50 -79 50 -64 c 0
 50 -51 58 -45 65 -38 c 0
 70 -33 77 -25 81 -18 c 0
 85 -12 86 -7 86 -7 c 1
 86 -6 85 0 84 4 c 0
 82 10 79 15 79 15 c 0
 77 18 77 22 77 26 c 0
EndSplineSet
EndChar
StartChar: hyphen
Encoding: 45 45 13
Width: 502
Flags: HW
LayerCount: 2
Fore
SplineSet
55 411 m 0
 55 399 65 389 77 389 c 2
 425 389 l 2
 437 389 447 399 447 411 c 0
 447 423 437 433 425 433 c 2
 77 433 l 2
 65 433 55 423 55 411 c 0
452 411 m 0
 452 396 440 384 425 384 c 2
 77 384 l 2
 62 384 50 396 50 411 c 0
 50 426 62 438 77 438 c 2
 425 438 l 2
 440 438 452 426 452 411 c 0
EndSplineSet
EndChar
StartChar: period
Encoding: 46 46 14
Width: 154
Flags: HW
LayerCount: 2
Fore
SplineSet
77 51 m 0
 65 51 55 41 55 29 c 0
 55 17 65 7 77 7 c 0
 89 7 99 17 99 29 c 0
 99 41 89 51 77 51 c 0
77 2 m 0
 62 2 50 14 50 29 c 0
 50 44 62 56 77 56 c 0
 92 56 104 44 104 29 c 0
 104 14 92 2 77 2 c 0
EndSplineSet
EndChar
StartChar: slash
Encoding: 47 47 15
Width: 386
Flags: W
HStem: 79 5<68.4466 87.4469> 688 5<299.046 318.396>
VStem: 50 5<97.4466 116.565> 331 5<655.435 675.119>
LayerCount: 2
Fore
SplineSet
78 84 m 0
 87 84 95 90 98 98 c 2
 329 656 l 2
 330 659 331 662 331 665 c 0
 331 677 321 688 309 688 c 0
 300 688 291 682 288 674 c 2
 57 116 l 2
 56 113 55 110 55 107 c 0
 55 95 66 84 78 84 c 0
78 79 m 0
 63 79 50 92 50 107 c 0
 50 111 51 115 52 118 c 2
 283 676 l 2
 287 686 298 693 309 693 c 0
 324 693 336 680 336 665 c 0
 336 661 335 657 334 654 c 2
 103 96 l 2
 99 86 89 79 78 79 c 0
EndSplineSet
EndChar
StartChar: zero
Encoding: 48 48 16
Width: 298
Flags: HW
LayerCount: 2
Fore
SplineSet
149 428 m 0
 70 428 55 290 55 205 c 0
 55 120 70 -18 149 -18 c 0
 228 -18 243 120 243 205 c 0
 243 290 228 428 149 428 c 0
149 -23 m 0
 66 -23 50 116 50 205 c 0
 50 294 66 433 149 433 c 0
 232 433 248 294 248 205 c 0
 248 116 232 -23 149 -23 c 0
149 379 m 0
 115 374 104 257 104 205 c 0
 104 144 115 49 149 31 c 0
 149 31 l 0
 183 36 194 153 194 205 c 0
 194 266 183 361 149 379 c 0
 149 379 l 0
149 26 m 0
 113 26 99 154 99 205 c 0
 99 257 112 384 149 384 c 0
 185 384 199 256 199 205 c 0
 199 153 186 26 149 26 c 0
EndSplineSet
EndChar
StartChar: one
Encoding: 49 49 17
Width: 313
Flags: W
HStem: -27 5<67.0634 246.076> 22 5<67.0634 130 135 180 185 246.076> 322 5<84.057 104.906>
VStem: 50 5<-9.943 9.943> 67 5<339.057 358.643> 130 5<-9.94937 22 27 345 353 353.865> 180 5<-9.47241 22 27 465 472 472.931> 259 5<-9.39565 9.39565>
LayerCount: 2
Fore
SplineSet
236 -22 m 2
 248 -22 259 -12 259 0 c 0
 259 12 248 22 236 22 c 2
 185 22 l 1
 185 -0 l 2
 185 -9 180 -17 173 -22 c 1
 236 -22 l 2
72 349 m 0
 72 337 82 327 94 327 c 0
 100 327 106 329 110 333 c 2
 131 353 l 2
 131 353 131 354 132 354 c 0
 133 354 135 352 135 351 c 2
 135 27 l 1
 180 27 l 1
 180 465 l 1
 79 365 l 2
 75 361 72 355 72 349 c 0
130 22 m 1
 77 22 l 2
 65 22 55 12 55 0 c 0
 55 -12 65 -22 77 -22 c 2
 142 -22 l 1
 135 -17 130 -9 130 -0 c 2
 130 22 l 1
77 -27 m 2
 62 -27 50 -15 50 0 c 0
 50 15 62 27 77 27 c 2
 130 27 l 1
 130 345 l 1
 114 329 l 2
 109 324 102 322 94 322 c 0
 79 322 67 334 67 349 c 0
 67 357 70 364 75 369 c 2
 181 472 l 2
 181 472 181 473 182 473 c 0
 183 473 185 472 185 471 c 2
 185 27 l 1
 236 27 l 2
 251 27 264 15 264 0 c 0
 264 -15 251 -27 236 -27 c 2
 77 -27 l 2
180 -0 m 2
 180 22 l 1
 135 22 l 1
 135 -0 l 2
 135 -12 145 -22 157 -22 c 0
 169 -22 180 -12 180 -0 c 2
EndSplineSet
EndChar
StartChar: two
Encoding: 50 50 18
Width: 447
Flags: W
HStem: -27 5<58 379.937> 22 5<184.069 379.937> 307 5<104.881 125.437> 384 5<248.43 288.588> 434 5<244.8 293.471>
VStem: 87 5<324.604 343.487> 343 5<258.398 303.232> 392 5<-9.943 9.943 248.605 314.637>
LayerCount: 2
Fore
SplineSet
186 22 m 2
 185 22 184 24 184 25 c 0
 184 26 184 27 185 27 c 0
 229 60 270 85 311 126 c 0
 328 143 345 163 361 186 c 0
 382 216 393 246 393 280 c 0
 393 304 388 327 379 351 c 0
 372 371 361 388 347 402 c 0
 328 421 302 434 272 434 c 0
 219 434 186 409 156 387 c 0
 140 375 124 364 105 354 c 0
 98 350 92 343 92 334 c 0
 92 322 103 312 115 312 c 0
 119 312 122 312 125 314 c 0
 148 326 166 339 182 351 c 0
 212 373 233 389 272 389 c 0
 306 389 327 363 337 335 c 0
 344 314 348 297 348 280 c 0
 348 256 341 236 324 212 c 0
 309 191 294 173 279 158 c 0
 251 130 223 109 190 86 c 0
 162 66 132 45 100 17 c 0
 85 4 71 -8 58 -22 c 1
 370 -22 l 2
 382 -22 392 -12 392 0 c 0
 392 12 382 22 370 22 c 2
 186 22 l 2
370 27 m 2
 385 27 397 15 397 0 c 0
 397 -15 385 -27 370 -27 c 2
 52 -27 l 2
 51 -27 50 -26 50 -25 c 0
 50 -24 51 -23 51 -23 c 0
 66 -8 81 7 97 21 c 0
 130 50 159 71 187 91 c 0
 220 114 249 135 276 162 c 0
 291 177 305 194 320 215 c 0
 336 238 343 257 343 280 c 0
 343 296 339 314 332 334 c 0
 327 348 320 359 312 367 c 0
 301 378 288 384 272 384 c 0
 234 384 216 369 185 346 c 0
 169 334 150 321 127 309 c 0
 123 307 119 307 115 307 c 0
 100 307 87 319 87 334 c 0
 87 345 94 355 103 359 c 0
 122 368 137 379 153 391 c 0
 183 413 217 439 272 439 c 0
 303 439 331 426 351 406 c 0
 366 391 377 372 384 352 c 0
 393 328 398 304 398 280 c 0
 398 245 387 213 365 183 c 0
 349 160 332 140 315 123 c 0
 276 84 236 58 194 27 c 1
 370 27 l 2
EndSplineSet
EndChar
StartChar: three
Encoding: 51 51 19
Width: 483
Flags: W
HStem: -218 5<231.803 309.747> -168 5<234.939 302.772> -113 5<68.4466 86.4582> 384 5<68.9243 79> 433 5<68.9243 79>
VStem: 50 5<-146.165 -126.447 403.537 418.463> 379 5<-99.4205 -57.1688> 428 5<-105.342 -52.4599>
LayerCount: 2
Fore
SplineSet
187 184 m 0
 187 185 187 185 187 185 c 2
 418 433 l 1
 79 433 l 2
 67 433 56 423 56 411 c 0
 56 399 67 389 79 389 c 2
 309 389 l 2
 310 389 312 387 312 386 c 0
 312 385 311 384 311 384 c 2
 117 176 l 1
 124 171 131 166 138 161 c 0
 168 140 194 126 219 112 c 0
 257 91 289 74 320 43 c 0
 327 36 335 27 342 18 c 0
 359 -3 371 -24 378 -44 c 0
 382 -56 384 -67 384 -79 c 0
 384 -93 381 -107 375 -122 c 0
 372 -131 366 -137 361 -142 c 0
 343 -160 308 -168 266 -168 c 0
 222 -168 193 -155 155 -140 c 0
 134 -132 112 -122 84 -114 c 0
 82 -113 80 -113 78 -113 c 0
 66 -113 55 -124 55 -136 c 0
 55 -146 62 -155 71 -158 c 0
 96 -165 117 -173 138 -182 c 0
 175 -197 213 -213 266 -213 c 0
 310 -213 359 -208 393 -174 c 0
 403 -164 410 -152 416 -138 c 0
 424 -118 428 -98 428 -79 c 0
 428 -62 425 -46 420 -30 c 0
 407 8 380 47 352 75 c 0
 300 127 247 145 188 182 c 0
 187 182 187 183 187 184 c 0
79 384 m 2
 64 384 51 396 51 411 c 0
 51 426 64 438 79 438 c 2
 424 438 l 2
 425 438 426 437 426 436 c 0
 426 435 426 434 426 434 c 2
 193 184 l 1
 252 148 303 130 355 78 c 0
 383 50 412 11 425 -28 c 0
 430 -44 433 -62 433 -79 c 0
 433 -99 429 -119 421 -140 c 0
 415 -155 407 -168 397 -178 c 0
 362 -213 311 -218 266 -218 c 0
 212 -218 173 -201 136 -186 c 0
 115 -177 95 -169 70 -162 c 0
 58 -159 50 -149 50 -136 c 0
 50 -121 63 -108 78 -108 c 0
 81 -108 83 -109 85 -110 c 0
 113 -118 136 -127 157 -136 c 0
 195 -151 223 -163 266 -163 c 0
 308 -163 341 -156 358 -139 c 0
 363 -134 367 -128 370 -120 c 0
 376 -105 379 -92 379 -79 c 0
 379 -68 377 -56 373 -45 c 0
 367 -26 355 -6 338 15 c 0
 331 24 323 32 316 39 c 0
 286 69 254 87 216 108 c 0
 191 121 165 135 135 156 c 0
 127 162 120 167 112 173 c 0
 111 173 111 174 111 175 c 0
 111 176 111 177 111 177 c 2
 303 384 l 1
 79 384 l 2
EndSplineSet
EndChar
StartChar: four
Encoding: 52 52 20
Width: 491
Flags: W
HStem: -232 5<299.881 320.138> -226 5<348.111 367.947> -177 5<347.419 367.947> -27 5<57 282 287 332 337 423.937> 22 5<139 282 287 332 337 423.937> 433 5<299.443 319.943>
VStem: 282 5<-214.319 -27 -22 22 27 300 320 407> 332 5<-211.263 -206.069 -191.865 -27 -22 22 27 420.937> 380 5<-208.947 -189.053> 436 5<-9.943 9.943>
LayerCount: 2
Fore
SplineSet
332 27 m 1
 332 395 l 1
 287 309 l 1
 287 27 l 1
 332 27 l 1
282 22 m 1
 135 22 l 2
 134 22 133 24 133 25 c 0
 133 26 l 2
 282 310 l 1
 282 407 l 1
 57 -22 l 1
 282 -22 l 1
 282 22 l 1
380 -199 m 0
 380 -187 370 -177 358 -177 c 0
 349 -177 340 -182 337 -190 c 0
 337 -191 336 -192 335 -192 c 0
 334 -192 332 -190 332 -189 c 2
 332 -27 l 1
 287 -27 l 1
 287 -205 l 2
 287 -217 298 -227 310 -227 c 0
 321 -227 331 -219 332 -208 c 0
 332 -207 334 -206 335 -206 c 0
 336 -206 337 -206 337 -207 c 0
 340 -215 349 -221 358 -221 c 0
 370 -221 380 -211 380 -199 c 0
414 -22 m 2
 426 -22 436 -12 436 0 c 0
 436 12 426 22 414 22 c 2
 337 22 l 1
 337 -22 l 1
 414 -22 l 2
287 22 m 1
 287 -22 l 1
 332 -22 l 1
 332 22 l 1
 287 22 l 1
282 27 m 1
 282 300 l 1
 139 27 l 1
 282 27 l 1
310 433 m 0
 297 433 287 423 287 411 c 2
 287 320 l 1
 330 401 l 2
 332 404 332 407 332 411 c 0
 332 423 322 433 310 433 c 0
358 -226 m 0
 349 -226 341 -222 336 -215 c 1
 332 -225 322 -232 310 -232 c 0
 295 -232 282 -220 282 -205 c 2
 282 -27 l 1
 52 -27 l 2
 51 -27 50 -26 50 -25 c 0
 50 -24 l 2
 286 424 l 2
 290 432 299 438 310 438 c 0
 325 438 337 426 337 411 c 2
 337 27 l 1
 414 27 l 2
 429 27 441 15 441 0 c 0
 441 -15 429 -27 414 -27 c 2
 337 -27 l 1
 337 -181 l 1
 342 -175 350 -172 358 -172 c 0
 365 -172 372 -175 377 -180 c 0
 382 -185 385 -192 385 -199 c 0
 385 -206 382 -213 377 -218 c 0
 372 -223 365 -226 358 -226 c 0
EndSplineSet
EndChar
StartChar: five
Encoding: 53 53 21
Width: 515
Flags: W
HStem: -238 5<182.953 243.813> -188 5<188.584 237.813> -128 5<68.4466 86.4475> 157 5<92 135.401> 179 5<225.176 275.676> 229 5<220.922 281.54> 384 5<136 447.937> 433 5<84 447.937>
VStem: 50 5<-161.164 -141.447> 79 5<190.184 433> 87 5<162 404.816> 131 5<215 384> 135 5<215 384> 392 5<-53.4813 0.0591946> 442 5<-59.487 3.52205> 460 5<401.057 420.943>
LayerCount: 2
Fore
SplineSet
100 162 m 0xfff7
 134 162 165 169 191 175 c 0
 214 180 234 184 253 184 c 0
 269 184 285 181 302 173 c 0
 316 167 326 160 335 151 c 0
 357 129 369 95 383 50 c 0
 392 20 397 -5 397 -28 c 0
 397 -52 393 -71 381 -97 c 0
 375 -111 367 -121 358 -130 c 0
 341 -147 318 -158 285 -172 c 0
 266 -180 250 -184 235 -186 c 0
 229 -187 223 -188 216 -188 c 0
 203 -188 189 -186 172 -183 c 0
 151 -179 140 -170 123 -156 c 0
 114 -149 103 -140 89 -132 c 0
 86 -130 82 -128 78 -128 c 0
 66 -128 55 -139 55 -151 c 0
 55 -159 59 -166 66 -170 c 0
 77 -177 86 -184 96 -192 c 0
 113 -205 132 -221 163 -227 c 0
 182 -231 199 -233 216 -233 c 0
 224 -233 233 -232 241 -231 c 0
 261 -228 281 -223 302 -214 c 0
 335 -200 365 -187 390 -162 c 0
 403 -149 414 -134 422 -115 c 0
 436 -84 442 -59 442 -28 c 0
 442 3 434 37 424 69 c 0
 411 111 398 152 367 183 c 0
 354 196 340 207 321 215 c 0
 297 226 274 229 253 229 c 0
 211 229 176 216 138 210 c 0
 137 210 135 212 135 213 c 2xffef
 131 386 l 0
 131 387 132 389 133 389 c 2
 438 389 l 2
 450 389 460 399 460 411 c 0
 460 423 450 433 438 433 c 2
 84 433 l 1
 92 162 l 1
 95 162 97 162 100 162 c 0xfff7
438 438 m 2
 453 438 465 426 465 411 c 0
 465 396 453 384 438 384 c 2
 136 384 l 1xfff7
 140 215 l 1
 177 221 211 234 253 234 c 0
 275 234 298 230 323 219 c 0
 342 211 358 200 371 187 c 0
 405 153 416 109 430 65 c 0
 440 33 447 3 447 -28 c 0
 447 -60 441 -86 427 -117 c 0
 418 -136 407 -153 394 -166 c 0
 368 -192 337 -204 304 -218 c 0
 282 -227 263 -233 242 -236 c 0
 233 -237 225 -238 216 -238 c 0
 199 -238 181 -236 162 -232 c 0
 129 -226 109 -209 92 -195 c 0
 83 -188 73 -181 63 -175 c 0
 55 -170 50 -161 50 -151 c 0
 50 -136 63 -123 78 -123 c 0
 83 -123 88 -124 92 -127 c 0
 106 -135 117 -144 126 -152 c 0
 143 -166 154 -174 173 -178 c 0
 190 -181 203 -183 216 -183 c 0
 222 -183 229 -183 235 -182 c 0
 250 -180 265 -176 283 -168 c 0
 316 -154 339 -143 355 -127 c 0
 363 -119 370 -109 376 -95 c 0
 387 -69 392 -51 392 -28 c 0
 392 -6 387 18 378 48 c 0
 364 93 353 127 332 148 c 0
 324 156 313 163 300 169 c 0
 283 176 268 179 253 179 c 0
 234 179 215 175 192 170 c 0
 166 164 135 157 100 157 c 0
 96 157 87 156 87 160 c 2
 79 436 l 0
 79 437 81 438 82 438 c 2
 438 438 l 2
EndSplineSet
EndChar
StartChar: six
Encoding: 54 54 22
Width: 330
Flags: W
HStem: -37 5<137.415 169.196> 12 6<149.139 157.902> 353 5<141.604 161.586> 721 5<243.145 262.553>
VStem: 50 5<176.699 261.881> 100 5<179.869 259.423> 124 5<319.537 340.119> 201 5<146.627 236.104> 251 5<145.016 238.948> 276 5<689.361 707.553>
LayerCount: 2
Fore
SplineSet
129 330 m 0
 129 320 135 311 145 308 c 0
 161 304 173 300 182 291 c 0
 193 280 206 255 206 197 c 0
 206 149 200 105 190 72 c 0
 182 45 171 26 163 18 c 0
 158 13 154 12 153 12 c 0
 153 12 149 14 146 17 c 0
 138 25 128 44 120 71 c 0
 110 105 104 149 101 198 c 0
 101 205 100 213 100 220 c 0
 100 389 219 548 274 690 c 0
 275 693 276 695 276 698 c 0
 276 710 265 721 253 721 c 0
 243 721 235 714 232 706 c 0
 214 660 190 612 165 563 c 0
 112 460 55 347 55 221 c 0
 55 213 55 205 56 196 c 0
 59 144 66 96 77 58 c 0
 86 27 97 2 114 -15 c 0
 124 -25 137 -32 153 -32 c 0
 170 -32 183 -25 194 -14 c 0
 211 3 224 28 233 59 c 0
 244 97 251 145 251 197 c 0
 251 260 238 298 214 322 c 0
 196 340 174 347 157 352 c 0
 155 353 153 353 151 353 c 0
 139 353 129 342 129 330 c 0
124 330 m 0
 124 345 136 358 151 358 c 0
 153 358 156 358 158 357 c 0
 175 352 199 345 218 326 c 0
 243 301 256 261 256 197 c 0
 256 145 249 97 237 58 c 0
 228 27 216 1 198 -17 c 0
 187 -28 171 -37 153 -37 c 0
 135 -37 121 -29 110 -18 c 0
 92 0 81 26 72 57 c 0
 61 96 54 143 51 195 c 0
 50 204 50 213 50 221 c 0
 50 351 110 466 163 570 c 0
 187 618 211 664 228 708 c 0
 232 718 241 726 253 726 c 0
 268 726 281 713 281 698 c 0
 281 695 280 691 279 688 c 0
 261 640 236 593 212 545 c 0
 158 439 105 333 105 220 c 0
 105 213 106 206 106 199 c 0
 109 150 115 105 125 72 c 0
 133 45 143 26 149 20 c 0
 152 17 153 18 153 18 c 0
 153 18 155 18 159 22 c 0
 166 29 177 48 185 74 c 0
 195 107 201 150 201 197 c 0
 201 254 189 277 179 287 c 0
 171 295 160 299 144 303 c 0
 132 306 124 317 124 330 c 0
153 17 m 1
 153 17 l 1
EndSplineSet
EndChar
StartChar: seven
Encoding: 55 55 23
Width: 338
Flags: HW
LayerCount: 2
Fore
SplineSet
55 411 m 0
 55 399 65 389 77 389 c 2
 227 389 l 2
 228 389 230 387 230 386 c 0
 230 385 l 2
 55 -191 l 2
 54 -193 55 -196 55 -198 c 0
 55 -210 65 -220 77 -220 c 0
 87 -220 96 -214 99 -205 c 2
 283 404 l 2
 284 406 283 409 283 411 c 0
 283 423 273 433 261 433 c 2
 77 433 l 2
 65 433 55 423 55 411 c 0
77 -225 m 0
 62 -225 50 -213 50 -198 c 0
 50 -195 50 -193 51 -190 c 2
 224 384 l 1
 77 384 l 2
 62 384 50 396 50 411 c 0
 50 426 62 438 77 438 c 2
 261 438 l 2
 276 438 288 426 288 411 c 0
 288 408 288 406 287 403 c 2
 103 -206 l 2
 100 -217 89 -225 77 -225 c 0
EndSplineSet
EndChar
StartChar: eight
Encoding: 56 56 24
Width: 270
Flags: HW
CounterMasks: 1 e0
LayerCount: 2
Fore
SplineSet
135 745 m 1
 112 711 104 646 104 582 c 0
 104 518 112 454 135 419 c 1
 158 453 166 518 166 582 c 0
 166 646 158 710 135 745 c 1
135 412 m 0
 109 412 99 539 99 582 c 0
 99 625 109 752 135 752 c 0
 161 752 171 625 171 582 c 0
 171 539 161 412 135 412 c 0
135 798 m 0
 64 798 55 661 55 582 c 0
 55 506 64 431 95 389 c 0
 95 389 95 389 95 388 c 0
 95 375 75 347 70 327 c 0
 60 290 55 244 55 194 c 0
 55 115 64 -22 135 -22 c 0
 206 -22 215 115 215 194 c 0
 215 270 206 345 175 387 c 0
 175 387 175 387 175 388 c 0
 175 401 195 429 200 449 c 0
 210 486 215 532 215 582 c 0
 215 661 206 798 135 798 c 0
135 -27 m 0
 60 -27 50 112 50 194 c 0
 50 271 58 344 89 388 c 1
 58 432 50 505 50 582 c 0
 50 665 60 803 135 803 c 0
 210 803 220 664 220 582 c 0
 220 505 212 432 181 388 c 1
 212 344 220 271 220 194 c 0
 220 111 210 -27 135 -27 c 0
135 357 m 1
 112 323 104 258 104 194 c 0
 104 130 112 66 135 31 c 1
 158 65 166 130 166 194 c 0
 166 258 158 322 135 357 c 1
135 24 m 0
 109 24 99 151 99 194 c 0
 99 237 109 364 135 364 c 0
 161 364 171 237 171 194 c 0
 171 151 161 24 135 24 c 0
EndSplineSet
EndChar
StartChar: nine
Encoding: 57 57 25
Width: 312
Flags: W
HStem: -228 5<89.6044 109.553> 84 5<137.438 197> 428 5<136.981 167.123>
VStem: 50 5<170.187 249.984> 72 5<-210.076 -191> 100 5<174.044 248.373> 207 5<137.421 207.925> 257 5<120.241 212.912>
LayerCount: 2
Fore
SplineSet
203 84 m 0
 189 27 162 -23 134 -75 c 0
 114 -112 94 -150 78 -192 c 0
 77 -194 77 -197 77 -200 c 0
 77 -212 87 -223 99 -223 c 0
 109 -223 118 -217 121 -208 c 0
 135 -169 155 -132 175 -94 c 0
 215 -20 257 58 257 163 c 0
 257 174 257 185 256 196 c 0
 252 248 243 296 231 335 c 0
 221 366 209 393 192 410 c 0
 182 420 168 428 152 428 c 0
 135 428 122 420 111 409 c 0
 94 392 82 367 73 336 c 0
 62 298 55 250 55 198 c 0
 55 162 65 136 83 118 c 0
 96 105 110 98 125 94 c 0
 143 89 160 90 176 89 c 0
 187 89 196 88 201 87 c 0
 202 87 203 85 203 84 c 0
105 198 m 0
 105 171 112 159 118 153 c 0
 136 135 175 142 206 137 c 1
 207 146 207 154 207 163 c 0
 207 172 207 182 206 192 c 0
 202 241 194 286 183 320 c 0
 174 347 164 367 157 374 c 0
 154 377 152 378 152 378 c 0
 152 378 151 377 147 373 c 0
 140 366 129 347 121 321 c 0
 111 288 105 245 105 198 c 0
100 198 m 0
 100 246 106 290 116 323 c 0
 124 350 135 369 143 377 c 0
 148 382 151 383 153 383 c 0
 155 383 156 382 160 378 c 0
 168 370 179 350 188 322 c 0
 199 287 207 241 211 192 c 0
 212 182 212 173 212 163 c 0
 212 153 212 143 211 133 c 0
 211 132 210 131 209 131 c 0
 208 131 l 0
 175 137 135 128 114 149 c 0
 107 156 100 170 100 198 c 0
50 198 m 0
 50 250 56 298 68 337 c 0
 77 368 90 394 108 412 c 0
 119 423 134 433 152 433 c 0
 170 433 185 424 196 413 c 0
 214 395 226 368 236 337 c 0
 248 297 257 248 261 196 c 0
 262 185 262 174 262 163 c 0
 262 56 219 -23 179 -97 c 0
 159 -134 139 -172 125 -210 c 0
 121 -220 111 -228 99 -228 c 0
 84 -228 72 -215 72 -200 c 0
 72 -197 73 -194 74 -191 c 0
 90 -148 111 -108 131 -71 c 0
 158 -20 183 27 197 82 c 1
 192 83 183 84 174 84 c 0
 160 84 142 84 124 89 c 0
 109 93 93 100 79 114 c 0
 60 133 50 161 50 198 c 0
EndSplineSet
EndChar
StartChar: colon
Encoding: 58 58 26
Width: 154
Flags: W
HStem: 2 5<67.053 87.1262> 51 5<67.053 87.1262> 412 5<67.053 87.1262> 461 5<67.053 87.1262>
VStem: 50 5<19.053 38.947 429.053 448.947> 100 5<19.4449 38.5551 429.445 448.555>
LayerCount: 2
Fore
SplineSet
77 461 m 0
 65 461 55 451 55 439 c 0
 55 427 65 417 77 417 c 0
 89 417 100 427 100 439 c 0
 100 451 89 461 77 461 c 0
50 439 m 0
 50 446 53 453 58 458 c 0
 63 463 70 466 77 466 c 0
 84 466 92 463 97 458 c 0
 102 453 105 446 105 439 c 0
 105 432 102 425 97 420 c 0
 92 415 84 412 77 412 c 0
 70 412 63 415 58 420 c 0
 53 425 50 432 50 439 c 0
77 51 m 0
 65 51 55 41 55 29 c 0
 55 17 65 7 77 7 c 0
 89 7 100 17 100 29 c 0
 100 41 89 51 77 51 c 0
50 29 m 0
 50 36 53 43 58 48 c 0
 63 53 70 56 77 56 c 0
 84 56 92 53 97 48 c 0
 102 43 105 36 105 29 c 0
 105 22 102 15 97 10 c 0
 92 5 84 2 77 2 c 0
 70 2 63 5 58 10 c 0
 53 15 50 22 50 29 c 0
EndSplineSet
EndChar
StartChar: semicolon
Encoding: 59 59 27
Width: 191
Flags: W
HStem: -92 5<68.4466 86.7594> 49 5<94.6044 113.579> 361 5<69.053 89.2057> 410 5<69.053 89.2057>
VStem: 50 5<-73.5534 -53.5705 383.518 392.482> 77 5<16.0038 36.1186> 86 5<-13.5054 5.04166> 102 4<379.551 396.449> 136 5<-23.3234 9.65399>
LayerCount: 2
Fore
SplineSet
82 26 m 0
 82 18 91 4 91 -7 c 0
 91 -9 90 -14 86 -21 c 0
 80 -31 72 -39 65 -45 c 0
 59 -51 55 -54 55 -64 c 0
 55 -76 66 -87 78 -87 c 0
 84 -87 88 -84 92 -81 c 0
 92 -81 95 -79 100 -74 c 0
 107 -67 116 -57 124 -44 c 0
 130 -34 136 -22 136 -7 c 0
 136 7 128 28 125 35 c 0
 121 43 113 49 104 49 c 0
 92 49 82 38 82 26 c 0
77 26 m 0
 77 41 89 54 104 54 c 0
 115 54 126 47 130 37 c 0
 133 29 141 9 141 -7 c 0
 141 -23 134 -37 128 -47 c 0
 120 -60 111 -70 104 -77 c 0
 99 -82 95 -85 95 -85 c 0
 90 -89 85 -92 78 -92 c 0
 63 -92 50 -79 50 -64 c 0
 50 -51 58 -45 65 -38 c 0
 70 -33 77 -25 81 -18 c 0
 85 -12 86 -7 86 -7 c 1
 86 -6 85 0 84 4 c 0
 82 10 79 15 79 15 c 0
 77 18 77 22 77 26 c 0
79 410 m 0
 67 410 57 400 57 388 c 0
 57 376 67 366 79 366 c 0
 91 366 102 376 102 388 c 0
 102 400 91 410 79 410 c 0
52 388 m 0
 52 395 55 402 60 407 c 0
 65 412 72 415 79 415 c 0
 86 415 93 412 98 407 c 0
 103 402 106 395 106 388 c 0
 106 381 103 374 98 369 c 0
 93 364 86 361 79 361 c 0
 72 361 65 364 60 369 c 0
 55 374 52 381 52 388 c 0
EndSplineSet
EndChar
StartChar: equal
Encoding: 61 61 56
Width: 502
Flags: HW
LayerCount: 2
Fore
SplineSet
55 372 m 0
 55 360 65 350 77 350 c 2
 425 350 l 2
 437 350 447 360 447 372 c 0
 447 384 437 394 425 394 c 2
 77 394 l 2
 65 394 55 384 55 372 c 0
452 372 m 0
 452 357 440 345 425 345 c 2
 77 345 l 2
 62 345 50 357 50 372 c 0
 50 387 62 399 77 399 c 2
 425 399 l 2
 440 399 452 387 452 372 c 0
55 472 m 0
 55 460 65 450 77 450 c 2
 425 450 l 2
 437 450 447 460 447 472 c 0
 447 484 437 494 425 494 c 2
 77 494 l 2
 65 494 55 484 55 472 c 0
452 472 m 0
 452 457 440 445 425 445 c 2
 77 445 l 2
 62 445 50 457 50 472 c 0
 50 487 62 499 77 499 c 2
 425 499 l 2
 440 499 452 487 452 472 c 0
EndSplineSet
EndChar
StartChar: question
Encoding: 63 63 58
Width: 360
VWidth: 1000
Flags: HW
LayerCount: 2
Fore
SplineSet
261 508 m 0
 261 507 253 422 231 422 c 2
 151 422 l 2
 139 422 128 412 128 400 c 2
 128 212 l 2
 128 200 139 190 151 190 c 0
 163 190 173 200 173 212 c 2
 173 375 l 2
 173 376 175 378 176 378 c 2
 245 378 l 2
 289 378 306 489 306 508 c 0
 306 591 242 660 163 660 c 0
 136 660 54 642 54 604 c 2
 54 570 l 2
 54 558 65 548 77 548 c 0
 89 548 99 558 99 570 c 2
 99 591 l 2
 99 607 155 616 163 616 c 0
 216 616 261 563 261 508 c 0
155 174 m 0
 143 174 132 164 132 152 c 2
 132 108 l 2
 132 96 143 86 155 86 c 0
 167 86 177 96 177 108 c 2
 177 152 l 2
 177 164 167 174 155 174 c 0
155 81 m 0
 140 81 128 93 128 108 c 2
 128 152 l 2
 128 167 140 179 155 179 c 0
 170 179 182 167 182 152 c 2
 182 108 l 2
 182 93 170 81 155 81 c 0
163 611 m 1
 142 611 125 604 104 590 c 1
 104 570 l 2
 104 555 92 543 77 543 c 0
 62 543 50 555 50 570 c 2
 50 604 l 2
 50 645 132 665 163 665 c 0
 245 665 310 594 310 508 c 0
 310 485 292 373 245 373 c 2
 178 373 l 1
 178 212 l 2
 178 197 166 185 151 185 c 0
 136 185 124 197 124 212 c 2
 124 400 l 2
 124 415 136 427 151 427 c 2
 230 427 l 1
 249 459 254 501 256 508 c 1
 256 573 204 594 163 611 c 1
EndSplineSet
EndChar
StartChar: A
Encoding: 65 65 28
Width: 511
Flags: HW
LayerCount: 2
Fore
SplineSet
50 452 m 0
 50 467 62 479 77 479 c 0
 79 479 80 479 82 479 c 2
 118 473 l 2
 128 471 137 464 149 461 c 1
 149 471 148 482 148 492 c 0
 148 579 215 815 323 815 c 0
 344 815 354 797 354 779 c 0
 354 777 354 775 354 774 c 0
 366 691 384 610 395 528 c 2
 416 375 l 2
 416 374 417 373 417 372 c 2
 423 232 l 1
 427 191 423 149 431 110 c 0
 438 75 461 27 461 -8 c 0
 461 -23 449 -37 433 -37 c 0
 398 -37 387 18 383 49 c 1
 366 89 372 126 357 167 c 0
 321 266 308 342 211 383 c 1
 219 323 231 263 231 198 c 0
 231 131 208 -31 128 -31 c 2
 122 -31 l 2
 107 -31 95 -19 95 -4 c 0
 95 10 105 21 118 23 c 1
 160 61 176 128 176 197 c 0
 176 267 160 336 153 402 c 1
 143 405 129 410 122 410 c 0
 110 410 105 415 99 420 c 1
 73 425 l 2
 60 427 50 438 50 452 c 0
433 -32 m 0
 447 -32 456 -20 456 -8 c 0
 456 26 430 75 426 109 c 0
 421 149 420 190 418 231 c 2
 412 372 l 2
 412 373 411 373 411 374 c 2
 390 527 l 2
 379 606 349 692 349 774 c 0
 349 776 349 777 349 779 c 2
 349 779 l 2
 349 794 341 810 323 810 c 0
 303 810 291 795 281 785 c 0
 209 713 153 602 153 492 c 0
 153 481 154 469 154 458 c 0
 154 457 153 455 152 455 c 0
 136 455 128 466 117 468 c 2
 81 474 l 2
 80 474 78 474 77 474 c 0
 65 474 55 464 55 452 c 0
 55 441 63 432 73 430 c 2
 101 425 l 2
 109 424 109 415 122 415 c 0
 181 415 181 260 181 197 c 0
 181 149 168 24 119 18 c 0
 108 17 100 7 100 -4 c 0
 100 -16 110 -26 122 -26 c 2
 128 -26 l 2
 203 -26 226 138 226 198 c 0
 226 265 205 325 205 387 c 0
 205 388 207 389 208 389 c 0
 382 389 337 -32 433 -32 c 0
225 468 m 0
 267 468 326 426 347 394 c 1
 351 402 l 1
 352 440 l 1
 350 440 351 442 351 442 c 0
 350 443 l 0
 350 445 350 447 350 451 c 0
 350 459 348 464 348 473 c 0
 348 484 344 503 344 515 c 0
 344 586 327 685 296 734 c 1
 273 730 224 631 224 617 c 0
 224 575 203 543 203 499 c 0
 203 481 207 467 224 467 c 0
 225 468 l 0
297 740 m 0
 327 740 350 552 350 515 c 0
 350 503 354 484 354 473 c 0
 354 465 356 459 356 451 c 0
 356 450 355 449 355 448 c 0
 356 447 358 444 358 443 c 0
 357 443 l 2
 355 401 l 2
 355 399 352 391 349 391 c 1
 349 391 350 390 350 389 c 0
 350 388 348 386 347 386 c 0
 346 386 345 387 345 388 c 0
 321 427 270 451 225 462 c 0
 224 462 l 0
 203 462 198 481 198 499 c 0
 198 543 218 575 218 617 c 0
 218 634 269 740 297 740 c 0
EndSplineSet
EndChar
StartChar: B
Encoding: 66 66 29
Width: 547
Flags: HW
LayerCount: 2
Fore
SplineSet
208 751 m 0
 229 751 251 742 272 742 c 0
 274 742 275 742 277 742 c 0
 290 742 310 724 328 721 c 0
 393 710 437 650 438 581 c 0
 438 521 332 471 280 471 c 0
 260 471 266 492 245 492 c 0
 229 492 208 479 208 460 c 0
 208 354 448 330 448 194 c 0
 448 102 401 54 311 54 c 0
 302 54 237 72 232 86 c 2
 204 162 l 2
 204 163 l 2
 201 228 l 2
 200 240 191 249 179 249 c 0
 167 249 157 239 157 227 c 0
 157 226 l 2
 160 157 l 2
 160 155 160 152 161 150 c 2
 194 60 l 2
 203 36 279 10 311 10 c 0
 423 10 492 80 492 194 c 0
 492 307 372 380 303 423 c 0
 302 423 302 424 302 425 c 2
 302 425 421 479 435 493 c 0
 455 513 483 546 483 578 c 0
 483 671 422 750 336 765 c 0
 318 768 304 787 278 787 c 0
 276 787 273 787 271 787 c 0
 252 787 227 796 208 796 c 0
 118 796 94 691 82 615 c 2
 64 504 l 2
 64 503 64 502 64 501 c 2
 55 294 l 2
 55 293 l 0
 55 292 55 292 55 291 c 2
 67 171 l 2
 70 138 103 -17 143 -17 c 0
 155 -17 165 -7 165 5 c 0
 165 58 116 124 111 177 c 2
 100 293 l 2
 100 294 l 2
 108 498 l 2
 108 498 l 2
 126 606 l 2
 134 657 148 751 208 751 c 0
170 5 m 0
 170 -10 158 -22 143 -22 c 0
 103 -22 66 134 62 170 c 2
 50 290 l 2
 50 291 50 292 50 293 c 0
 50 294 l 2
 59 501 l 2
 59 502 59 503 59 504 c 2
 77 615 l 2
 90 695 114 801 208 801 c 0
 228 801 252 794 271 792 c 0
 273 792 278 792 278 792 c 0
 390 792 488 688 488 578 c 0
 488 499 379 434 312 423 c 1
 381 380 497 307 497 194 c 0
 497 78 426 5 311 5 c 0
 275 5 199 33 189 59 c 2
 156 149 l 2
 155 152 155 154 155 157 c 2
 152 226 l 2
 152 227 l 0
 152 242 164 254 179 254 c 0
 193 254 205 242 206 228 c 2
 209 163 l 1
 237 89 l 1
 258 79 292 59 311 59 c 0
 398 59 443 105 443 194 c 0
 443 310 287 356 228 415 c 0
 223 420 217 426 215 435 c 1
 209 440 203 448 203 460 c 0
 203 483 226 497 245 497 c 0
 264 497 265 476 280 476 c 0
 342 476 415 525 433 582 c 1
 431 685 361 691 293 730 c 0
 283 736 278 737 277 737 c 0
 275 737 274 737 272 737 c 0
 251 737 229 746 208 746 c 0
 166 746 155 699 146 664 c 2
 131 605 l 1
 113 497 l 1
 105 294 l 1
 116 178 l 1
 131 126 170 57 170 5 c 0
EndSplineSet
EndChar
StartChar: C
Encoding: 67 67 30
Width: 491
Flags: W
HStem: -30 5<262.37 325.423> -9 5<172.096 197> 20 5<266.667 320.007> 40 5<182.749 211.12> 174 5<403.323 423.943> 659 5<386.057 405.943> 753 5<265.503 297.794> 802 5<261.228 309.224>
VStem: 50 5<244 456.857> 54 5<192.032 389> 100 5<247 455.026> 104 5<231.241 385> 384 5<97 157.108> 418 5<676.063 703.419> 436 5<88 161.937>
LayerCount: 2
Fore
SplineSet
436 152 m 0xff4e
 436 164 426 174 414 174 c 0
 402 174 391 165 391 153 c 2
 389 97 l 2
 389 96 l 2
 375 58 l 2
 374 57 l 0
 372 55 369 53 367 51 c 0
 354 40 345 32 335 27 c 0
 326 23 313 20 297 20 c 0
 265 20 233 28 206 40 c 1
 188 40 l 2
 186 40 182 42 177 47 c 0
 160 64 148 97 138 122 c 0
 134 133 130 143 125 151 c 0
 112 175 109 213 104 246 c 0
 104 247 l 2xff5e
 100 385 l 0
 100 386 l 2
 113 513 l 2
 114 514 l 0
 136 545 146 581 158 617 c 0
 173 662 187 703 212 728 c 0
 230 746 254 758 292 758 c 0
 293 758 295 758 299 756 c 0
 316 749 329 737 347 732 c 0
 350 731 353 730 356 727 c 0
 364 719 371 701 373 683 c 0
 374 672 385 664 396 664 c 0
 408 664 418 674 418 686 c 0
 418 687 418 688 418 689 c 0
 415 712 408 739 388 759 c 0
 380 767 371 773 360 776 c 0
 355 777 344 783 336 788 c 0
 324 795 310 802 292 802 c 0
 243 802 206 786 180 760 c 0
 144 724 130 676 115 631 c 0
 102 591 91 555 70 531 c 1
 55 389 l 1xffae
 59 244 l 1
 67 186 l 1
 71 166 75 149 86 129 c 0
 89 124 93 113 98 101 c 0
 110 72 124 36 145 15 c 0
 155 5 170 -4 188 -4 c 2
 197 -4 l 2
 197 -5 l 0
 228 -17 261 -25 297 -25 c 0
 320 -25 338 -21 354 -14 c 0
 378 -3 394 15 413 31 c 1
 434 88 l 1
 436 151 l 2
 436 152 l 0xff4e
297 25 m 0
 313 25 325 28 333 32 c 0
 342 36 351 44 364 55 c 0
 366 57 368 58 370 60 c 1
 384 97 l 1
 386 153 l 2
 386 168 399 179 414 179 c 0
 429 179 441 167 441 152 c 0
 441 151 l 2
 439 87 l 2
 439 86 l 2
 417 28 l 2
 416 27 l 0
 396 11 382 -6 356 -18 c 0
 340 -26 320 -30 297 -30 c 0
 261 -30 227 -22 196 -9 c 1
 188 -9 l 2
 168 -9 152 0 141 11 c 0
 118 34 105 70 93 100 c 0
 88 112 83 123 81 127 c 0
 69 148 67 165 62 185 c 0
 54 244 l 2xff5e
 50 389 l 0
 65 532 l 2
 65 533 66 534 66 534 c 0
 87 558 99 596 113 638 c 0
 127 681 142 729 177 764 c 0
 204 791 242 807 292 807 c 0
 313 807 328 797 341 790 c 0
 350 785 357 781 361 780 c 0
 373 776 384 770 392 762 c 0
 413 741 420 712 423 689 c 0
 423 688 423 687 423 686 c 0
 423 671 411 659 396 659 c 0
 382 659 370 669 368 683 c 0
 366 700 360 716 353 723 c 0
 351 725 349 727 346 728 c 0
 327 733 314 744 297 751 c 0
 294 752 292 753 292 753 c 0
 255 753 233 742 216 725 c 0
 192 701 176 657 161 611 c 0
 150 577 139 542 118 512 c 1
 105 385 l 1xffae
 109 247 l 1
 114 214 118 176 130 153 c 0
 136 143 140 130 145 117 c 0
 154 94 166 64 180 50 c 0
 185 45 186 45 187 45 c 0
 188 45 l 2
 207 45 l 2
 208 45 l 0
 235 33 265 25 297 25 c 0
EndSplineSet
EndChar
StartChar: D
Encoding: 68 68 31
Width: 508
Flags: W
HStem: 47 5<201.908 282.316> 51 5<189.522 216.627> 96 5<195.463 277.572> 101 4<196 216.478> 650 5<67.6044 87.3092> 698 5<133.881 153.943> 735 5<165.234 222.029> 784 5<160.758 226.881>
VStem: 50 5<667.924 690.038> 60 5<15.4448 47.6977> 116 5<351.646 685.319> 136 3<53.7123 54.9985> 141 5<105.801 172.983> 166 5<352.109 685.937> 191 5<105 174.348>
LayerCount: 2
Fore
SplineSet
121 403 m 0x1ffe
 121 314 146 211 146 122 c 0
 146 116 146 109 146 103 c 0
 146 100 142 101 139 101 c 0
 120 99 100 93 85 78 c 0
 73 66 65 49 65 29 c 0
 65 18 70 7 77 -0 c 0
 88 -11 103 -15 120 -19 c 0
 133 -22 141 -25 149 -32 c 1
 153 -26 157 -19 161 -13 c 0
 173 8 180 30 185 54 c 0
 185 55 187 56 188 56 c 0x5ffe
 195 56 202 55 209 54 c 0
 225 53 243 52 258 52 c 0
 295 52 324 67 346 89 c 0
 396 139 411 215 440 280 c 1
 454 429 l 1
 370 674 l 2
 362 697 350 716 334 732 c 0
 297 769 245 784 192 784 c 0
 149 784 113 772 89 748 c 0
 71 730 60 707 55 682 c 0
 55 681 55 680 55 678 c 0
 55 666 65 655 77 655 c 0
 88 655 98 663 100 673 c 0
 104 691 111 706 121 716 c 0
 135 730 157 740 192 740 c 0
 256 740 309 712 327 660 c 2
 408 424 l 2
 408 423 l 0
 396 292 l 2
 396 291 l 0
 390 276 384 259 378 243 c 0
 360 195 342 148 315 121 c 0
 299 105 282 96 258 96 c 0xaffe
 238 96 214 100 193 101 c 0
 192 101 191 102 191 103 c 0
 191 109 191 116 191 123 c 0
 191 212 166 315 166 403 c 0
 166 405 166 406 166 408 c 2
 166 676 l 2
 166 688 156 698 144 698 c 0
 132 698 121 688 121 676 c 2
 121 408 l 2
 121 406 121 405 121 403 c 0x1ffe
116 34 m 0
 119 33 123 31 127 30 c 0
 129 36 131 43 133 49 c 1
 127 47 122 44 120 42 c 0
 118 40 117 39 116 34 c 0
136 55 m 0
 137 55 139 53 139 52 c 0x8ffe
 139 51 l 0
 137 42 134 34 131 26 c 0
 131 25 129 25 128 25 c 0
 122 26 117 28 112 30 c 0
 111 30 110 31 110 32 c 0
 111 33 l 0
 112 40 114 43 117 46 c 0
 120 49 127 52 136 54 c 0
 136 55 l 0
258 47 m 0
 236 47 212 50 190 51 c 1
 185 28 177 5 165 -16 c 0
 161 -23 156 -30 151 -37 c 0
 151 -38 150 -38 149 -38 c 0
 148 -38 147 -37 147 -37 c 0
 139 -29 132 -27 118 -24 c 0
 102 -20 86 -17 73 -4 c 0
 65 4 60 16 60 29 c 0
 60 50 69 68 82 81 c 0
 99 98 120 104 141 106 c 1
 141 111 141 116 141 122 c 0
 141 210 116 314 116 403 c 0
 116 405 116 406 116 408 c 2
 116 676 l 2
 116 691 129 703 144 703 c 0
 159 703 171 691 171 676 c 2
 171 408 l 2
 171 406 171 405 171 403 c 0
 171 315 196 212 196 123 c 0
 196 117 196 111 196 105 c 1x5ffe
 216 104 239 101 258 101 c 0x2ffe
 281 101 296 109 311 124 c 0
 336 149 355 198 373 246 c 0
 379 262 385 277 391 292 c 1
 403 423 l 1
 323 658 l 2
 306 707 254 735 192 735 c 0
 158 735 137 725 124 712 c 0
 115 703 108 690 104 672 c 0
 101 659 90 650 77 650 c 0
 62 650 50 663 50 678 c 0
 50 680 51 682 51 684 c 0
 56 710 67 733 85 751 c 0
 111 777 148 789 192 789 c 0
 246 789 300 773 338 735 c 0
 354 719 367 699 375 676 c 2
 458 430 l 2
 459 430 l 0
 459 429 l 2
 445 279 l 2
 445 278 l 0
 437 260 430 240 422 219 c 0
 405 173 386 121 350 85 c 0
 327 62 296 47 258 47 c 0
EndSplineSet
EndChar
StartChar: E
Encoding: 69 69 32
Width: 477
Flags: W
HStem: -25 5<202 311.201> 25 5<263.002 300.045> 28 5<233.19 261> 115 5<390.497 409.553> 399 5<161.329 164.931> 405 5<121.328 146.007> 434 5<202.466 212> 455 5<137.652 154.423> 713 5<349.598 374.076> 737 5<262.218 308.945> 743 5<210 250.188> 762 5<361.802 374.506> 786 5<262.635 319.771> 792 5<195.104 250.688>
VStem: 50 5<148.687 256.269 497.682 577.063> 100 5<154.396 253.777 502.837 577.155> 101 5<184.4 228.742 498.057 577.155 578.281 605.067> 387 5<730.604 750.101> 423 5<81.125 101.553>
LayerCount: 2
Fore
SplineSet
101 522 m 0xbffee0
 101 540 104 560 104 578 c 0
 104 584 103 589 103 595 c 0
 103 631 120 671 144 702 c 1
 156 726 181 742 210 747 c 0
 210 748 l 0
 240 748 272 742 302 742 c 0
 306 742 314 738 325 732 c 0
 335 726 346 719 362 718 c 0
 363 718 363 718 364 718 c 0
 376 718 387 728 387 740 c 0
 387 752 378 761 366 762 c 0
 363 762 357 765 347 771 c 0
 336 777 322 786 303 786 c 0
 272 786 241 792 210 792 c 0
 209 792 209 792 208 792 c 0
 177 788 148 775 126 753 c 0
 119 746 112 737 107 728 c 0
 106 727 l 0
 78 690 58 644 58 595 c 0
 58 589 59 584 59 578 c 0
 59 558 56 539 56 519 c 0
 56 494 61 466 83 444 c 0
 87 440 90 437 95 434 c 0
 98 432 101 428 104 425 c 0
 111 418 120 410 134 410 c 0
 140 410 141 410 149 407 c 0
 153 406 157 405 163 404 c 0
 164 404 165 402 165 401 c 0
 165 400 165 399 164 399 c 0
 145 385 126 369 112 350 c 0
 107 346 102 341 98 337 c 0
 68 307 55 269 55 228 c 0
 55 223 56 218 56 213 c 0
 56 202 55 192 55 181 c 0
 55 157 58 131 72 107 c 0
 80 82 94 60 112 42 c 0
 149 5 202 -14 253 -16 c 0
 263 -19 273 -20 283 -20 c 0
 329 -20 368 8 392 40 c 2
 414 68 l 1
 421 82 l 2
 423 85 423 88 423 92 c 0
 423 104 412 115 400 115 c 0
 391 115 384 109 380 102 c 2
 375 92 l 2
 357 68 l 2
 353 63 348 57 344 53 c 0
 326 35 305 25 283 25 c 0xdffee0
 275 25 267 26 260 28 c 0
 194 28 129 66 113 125 c 1
 103 140 100 160 100 184 c 0xbfff60
 100 193 101 204 101 213 c 0xbffee0
 101 218 100 224 100 229 c 0xbfff60
 100 260 109 285 130 306 c 0
 134 310 140 314 145 318 c 0
 150 326 156 333 163 340 c 0
 187 364 223 384 246 390 c 0
 324 410 261 424 343 432 c 1
 342 434 l 1
 212 434 l 2
 207 434 202 436 194 440 c 0
 188 443 180 446 170 448 c 0
 159 450 153 455 139 455 c 0
 138 455 137 456 137 456 c 0
 132 461 127 467 121 471 c 0
 106 481 101 497 101 522 c 0xbffee0
108 595 m 0
 108 589 109 584 109 578 c 0
 109 560 106 540 106 522 c 0xdffee0
 106 497 111 484 124 475 c 0
 130 471 135 465 140 460 c 1
 154 460 160 455 171 453 c 0
 183 451 190 447 197 444 c 0
 205 440 208 439 212 439 c 2
 345 439 l 2
 348 439 348 433 348 430 c 0
 348 429 347 427 346 427 c 0
 263 419 325 405 247 385 c 0
 225 379 191 361 167 337 c 0
 160 330 154 323 149 315 c 0
 148 314 l 0
 143 310 138 306 134 302 c 0
 114 282 105 259 105 229 c 0xdfff60
 105 223 106 217 106 211 c 0xdffee0
 106 202 105 192 105 184 c 0
 105 161 108 142 118 128 c 0
 118 127 l 0
 133 70 196 33 260 33 c 0
 261 33 l 0xbfff60
 268 31 276 30 283 30 c 0
 303 30 323 40 340 57 c 0
 344 61 349 66 353 71 c 2
 371 95 l 1
 376 104 l 2
 381 113 389 120 400 120 c 0
 415 120 428 107 428 92 c 0
 428 88 427 84 425 80 c 2
 418 66 l 2
 418 65 l 2
 396 37 l 2
 371 5 331 -25 283 -25 c 0
 273 -25 262 -24 252 -21 c 0
 200 -19 146 1 108 39 c 0
 90 57 75 79 67 105 c 1
 53 130 50 157 50 181 c 0
 50 192 51 202 51 213 c 0
 51 218 50 223 50 228 c 0
 50 270 64 310 95 341 c 0
 99 345 103 349 108 353 c 0
 121 371 138 387 156 400 c 1
 151 401 141 404 138 405 c 0
 137 405 135 405 134 405 c 0
 115 405 105 416 97 425 c 0
 95 427 94 429 92 430 c 0
 87 433 83 437 79 441 c 0
 55 465 51 493 51 519 c 0
 51 539 54 558 54 578 c 0
 54 584 53 589 53 595 c 0
 53 645 74 692 102 730 c 0
 108 740 114 749 122 757 c 0
 145 780 175 793 207 797 c 0
 208 797 209 797 210 797 c 0
 242 797 272 791 303 791 c 0
 324 791 337 782 349 776 c 0
 359 771 366 767 367 767 c 0
 381 766 392 754 392 740 c 0
 392 725 379 713 364 713 c 0
 363 713 363 713 362 713 c 0
 344 715 332 722 322 728 c 0
 311 734 304 737 302 737 c 0
 272 737 241 743 211 743 c 1
 183 738 159 721 148 699 c 0
 124 668 108 630 108 595 c 0
EndSplineSet
EndChar
StartChar: F
Encoding: 70 70 33
Width: 586
Flags: HW
LayerCount: 2
Fore
SplineSet
166 240 m 0
 166 227 163 214 163 200 c 0
 163 175 165 147 165 122 c 0
 165 75 163 28 118 28 c 0
 100 28 88 34 77 34 c 0
 65 34 55 24 55 12 c 0
 55 -16 95 -17 117 -17 c 0
 192 -17 210 49 210 122 c 0
 210 147 208 172 208 197 c 0
 208 215 211 226 211 238 c 0
 211 255 210 271 210 288 c 0
 210 298 211 381 216 381 c 2
 300 378 l 2
 301 378 l 0
 313 378 323 388 323 400 c 0
 323 412 314 421 302 422 c 2
 218 426 l 2
 217 426 216 428 216 429 c 0
 216 463 220 496 220 531 c 0
 220 535 220 539 220 543 c 0
 220 576 216 612 216 647 c 0
 216 665 424 761 442 761 c 0
 495 761 461 670 509 670 c 0
 521 670 531 680 531 692 c 0
 531 744 498 806 443 806 c 0
 349 806 293 695 214 695 c 0
 214 696 185 764 177 772 c 2
 127 820 l 2
 123 824 117 826 111 826 c 0
 99 826 89 817 89 805 c 2
 87 749 l 2
 87 748 l 0
 87 719 144 663 170 653 c 0
 179 649 175 545 175 532 c 0
 175 522 175 438 169 438 c 0
 151 438 133 446 113 446 c 2
 105 446 l 2
 93 446 83 436 83 424 c 0
 83 412 93 402 105 402 c 2
 113 402 l 2
 116 402 169 398 169 390 c 0
 169 356 165 322 165 288 c 0
 165 272 166 256 166 240 c 0
216 238 m 0
 216 226 213 216 213 197 c 0
 213 173 215 147 215 122 c 0
 215 46 195 -22 117 -22 c 0
 92 -22 50 -19 50 12 c 0
 50 27 62 39 77 39 c 0
 89 39 100 33 118 33 c 0
 159 33 160 78 160 122 c 0
 160 147 158 175 158 200 c 0
 158 214 159 227 161 240 c 0
 160 256 160 272 160 288 c 0
 160 322 162 355 164 388 c 1
 145 393 128 397 113 397 c 2
 105 397 l 2
 90 397 78 409 78 424 c 0
 78 439 90 451 105 451 c 2
 113 451 l 2
 132 451 150 448 167 444 c 1
 172 536 170 570 166 649 c 1
 140 660 82 720 82 748 c 0
 82 749 l 2
 84 805 l 2
 85 819 96 831 111 831 c 0
 118 831 125 829 130 824 c 2
 180 776 l 2
 200 756 210 727 215 701 c 1
 292 725 349 811 443 811 c 0
 501 811 536 747 536 692 c 0
 536 677 524 665 509 665 c 0
 458 665 491 756 442 756 c 0
 369 756 297 662 222 645 c 1
 223 611 225 575 225 543 c 0
 225 539 225 535 225 531 c 0
 225 497 223 464 221 431 c 1
 302 427 l 2
 316 426 328 414 328 400 c 0
 328 385 316 373 301 373 c 0
 300 373 l 2
 218 376 l 1
 216 346 215 317 215 288 c 0
 215 271 216 255 216 238 c 0
EndSplineSet
EndChar
StartChar: G
Encoding: 71 71 34
Width: 569
Flags: HW
LayerCount: 2
Fore
SplineSet
368 134 m 0
 368 176 326 202 326 232 c 0
 326 239 324 245 324 252 c 0
 324 262 343 268 356 268 c 0
 378 268 400 270 421 270 c 0
 438 270 443 272 443 254 c 0
 443 202 399 157 399 98 c 0
 399 71 425 40 444 38 c 2
 490 34 l 2
 491 34 491 34 492 34 c 0
 504 34 514 44 514 56 c 0
 514 68 504 77 493 78 c 2
 458 81 l 2
 452 82 444 98 444 98 c 1
 444 150 488 195 488 254 c 0
 488 296 461 315 420 315 c 0
 399 315 377 312 356 312 c 0
 322 312 279 293 279 252 c 0
 279 245 281 239 281 232 c 0
 281 191 323 166 323 134 c 0
 323 72 279 25 220 25 c 0
 112 25 100 415 100 522 c 0
 100 640 158 752 282 752 c 0
 354 752 389 723 429 690 c 0
 433 687 439 686 444 686 c 0
 456 686 466 696 466 708 c 0
 466 763 341 796 283 796 c 0
 132 796 55 663 55 523 c 0
 55 339 64 39 207 -19 c 0
 210 -20 213 -20 216 -20 c 0
 304 -20 361 54 369 132 c 0
 369 132 368 133 368 134 c 0
438 254 m 0
 438 267 433 265 421 265 c 0
 400 265 378 263 356 263 c 0
 347 263 329 258 329 253 c 0
 329 252 l 0
 329 246 331 239 331 232 c 0
 331 204 374 176 374 135 c 0
 374 134 l 0
 374 57 302 -25 216 -25 c 0
 60 -25 50 375 50 523 c 0
 50 665 129 801 283 801 c 0
 348 801 471 766 471 708 c 0
 471 693 459 681 444 681 c 0
 393 681 357 747 282 747 c 0
 161 747 105 638 105 522 c 0
 105 372 115 83 221 30 c 1
 277 35 318 71 318 134 c 0
 318 164 276 190 276 232 c 0
 276 239 274 245 274 252 c 0
 274 296 320 317 356 317 c 0
 377 317 399 320 420 320 c 0
 464 320 493 298 493 254 c 0
 493 195 449 149 449 98 c 1
 449 98 456 89 459 86 c 1
 494 83 l 2
 508 82 519 70 519 56 c 0
 519 41 507 29 492 29 c 0
 491 29 490 29 489 29 c 2
 443 33 l 2
 421 35 394 68 394 98 c 0
 394 157 438 203 438 254 c 0
EndSplineSet
EndChar
StartChar: H
Encoding: 72 72 35
Width: 827
Flags: W
HStem: -23 5<241.383 283.409> -8 5<739.898 759.396> 26 5<251.063 276.549> 638 5<78.1853 97.3956> 752 5<296.093 319> 765 5<105.111 138.202> 796 5<358.315 384.879> 802 5<55 73.3863> 806 5<597.956 622.831> 814 5<96.0866 143.804>
VStem: 50 5<679.115 803> 100 5<682.744 763.646> 110 5<655.924 702.256> 151 5<56.1796 183> 201 5<64.5731 86.5479> 304 5<434.449 687.511> 317 5<125.658 241> 354 5<429.672 684.492> 360 5<355 402.016> 364 5<178.824 287> 367 5<120.761 285.722> 388 5<754.244 789.626> 531 5<559.75 649.11> 550 4<434.563 452.999> 556 5<243.84 399.556> 581 5<594.045 644.028> 596 5<650.879 692> 605 5<254.239 418.75> 646 5<645.814 728.296> 772 5<9.88144 29.9145>
LayerCount: 2
Fore
SplineSet
317 177 m 0xfe7fc7fc
 317 201 316 219 315 241 c 1
 308 235 302 229 296 223 c 0
 253 180 220 133 206 79 c 0
 206 77 206 76 206 74 c 0
 206 51 243 32 264 31 c 0
 275 31 281 35 287 41 c 0
 298 52 307 77 312 107 c 0
 316 130 317 155 317 177 c 0xfe7fc7fc
322 177 m 0
 322 155 321 130 317 106 c 0
 312 75 303 50 291 38 c 0
 284 31 276 26 264 26 c 0
 242 27 201 46 201 74 c 0
 201 76 200 78 201 80 c 0
 215 136 249 182 293 226 c 0
 301 234 308 242 316 249 c 0
 316 249 317 249 318 249 c 0
 319 249 320 248 320 247 c 0
 321 223 322 202 322 177 c 0
596 685 m 0
 596 687 596 690 596 692 c 1
 590 662 587 633 587 628 c 0
 587 623 586 619 586 614 c 1
 592 636 596 659 596 685 c 0
581 605 m 0
 581 613 582 620 582 628 c 0
 582 634 585 672 593 705 c 0
 594 708 594 713 597 713 c 0
 598 713 600 712 600 711 c 0
 601 702 601 693 601 685 c 0
 601 652 595 623 586 596 c 0
 586 595 585 594 584 594 c 0
 580 594 581 601 581 605 c 0
363 348 m 0
 360 348 360 350 360 353 c 0
 357 412 354 472 354 532 c 0
 354 556 355 581 356 605 c 0
 355 616 354 628 354 643 c 0
 354 667 356 695 361 718 c 0
 361 719 361 720 362 720 c 0
 377 731 388 750 388 772 c 0
 388 779 387 787 385 794 c 0
 381 795 377 796 372 796 c 0
 359 796 349 790 342 783 c 0
 334 775 328 764 324 754 c 0
 323 752 321 752 319 752 c 0
 285 752 258 766 226 782 c 0
 195 797 160 814 115 814 c 0
 95 814 87 808 72 804 c 0
 69 803 65 802 61 802 c 0
 59 802 57 803 55 803 c 1
 55 714 l 1
 65 662 l 2
 67 652 77 643 88 643 c 0
 100 643 110 654 110 666 c 0
 110 668 110 669 110 670 c 2
 100 715 l 2
 100 716 l 2
 100 764 l 2
 100 765 101 767 102 767 c 0
 107 769 110 770 115 770 c 0
 149 770 178 756 210 740 c 0
 238 726 271 710 311 708 c 0
 312 708 313 706 313 705 c 0
 310 685 309 664 309 644 c 0
 309 630 310 617 311 606 c 0
 311 605 l 0
 310 580 309 555 309 531 c 0
 309 457 314 383 318 311 c 0
 318 310 318 309 317 309 c 0
 250 252 182 183 158 91 c 0
 157 85 156 80 156 75 c 0
 156 52 167 31 181 17 c 0
 203 -5 234 -18 263 -18 c 0
 287 -18 308 -9 323 6 c 0
 347 30 357 65 362 99 c 0
 366 126 367 154 367 177 c 0xff7feffc
 367 216 366 250 364 288 c 0xff7fd7fc
 364 289 364 290 365 290 c 0
 428 342 496 392 550 452 c 0
 550 453 551 453 552 453 c 0
 553 453 554 451 554 450 c 0
 559 414 560 372 561 327 c 0
 562 275 562 220 572 171 c 0
 580 131 595 93 623 65 c 0
 636 52 652 41 671 33 c 0
 681 29 698 20 712 13 c 0
 726 6 734 1 738 -0 c 0
 742 -1 746 -3 750 -3 c 0
 762 -3 772 8 772 20 c 0
 772 31 764 40 754 42 c 0
 753 42 l 0
 748 44 700 70 688 75 c 0
 675 80 664 88 655 97 c 0
 608 144 606 244 605 338 c 0
 604 395 604 451 590 498 c 0
 590 499 589 501 589 502 c 0
 589 503 590 503 590 503 c 0
 599 517 608 532 615 548 c 0
 634 589 646 634 646 686 c 0
 646 707 644 730 640 753 c 0
 640 756 639 758 639 761 c 0
 639 777 639 790 630 799 c 0
 626 803 618 806 611 806 c 0
 599 806 589 800 583 794 c 0
 574 785 569 775 564 763 c 0
 558 749 554 732 550 715 c 0
 542 679 537 645 537 630 c 0
 537 622 536 613 536 605 c 0
 536 574 540 544 543 515 c 0
 543 514 542 514 542 514 c 0
 528 495 512 477 494 459 c 0
 455 420 410 384 365 348 c 0xfeffe7fc
 365 348 364 348 363 348 c 0
52 808 m 0
 55 808 58 807 61 807 c 0
 69 807 76 810 82 812 c 0
 91 815 100 819 115 819 c 0
 162 819 199 801 230 786 c 0
 261 770 287 757 319 757 c 0
 320 758 l 0
 324 768 330 778 338 786 c 0
 346 794 357 801 372 801 c 0
 378 801 383 800 388 798 c 0
 389 798 389 797 389 796 c 0
 391 788 393 780 393 772 c 0
 393 749 382 728 366 716 c 1
 362 694 359 666 359 643 c 0
 359 628 360 615 361 605 c 0
 360 581 359 556 359 532 c 0
 359 473 362 414 365 355 c 1xff7feffc
 408 390 453 424 491 462 c 0
 508 479 524 497 538 516 c 1
 535 545 531 574 531 605 c 0
 531 613 531 622 532 630 c 0
 532 645 537 679 545 716 c 0
 549 733 553 750 559 765 c 0
 564 777 570 787 580 797 c 0
 587 804 597 811 611 811 c 0
 620 811 628 808 633 803 c 0
 645 791 644 772 645 753 c 0
 649 730 651 707 651 686 c 0
 651 634 640 587 620 546 c 0
 613 530 603 515 594 501 c 1
 595 499 l 1
 610 449 609 391 610 331 c 0
 611 239 614 144 658 100 c 0
 667 91 677 85 690 80 c 0
 702 75 751 50 756 47 c 0
 768 44 777 33 777 20 c 0
 777 5 765 -8 750 -8 c 0
 744 -8 739 -5 735 -4 c 0
 732 -3 722 2 710 8 c 0
 696 15 679 25 669 29 c 0
 650 37 633 47 619 61 c 0
 590 90 575 129 567 170 c 0
 557 221 557 276 556 330 c 0
 555 372 554 411 550 444 c 1
 497 386 431 338 369 287 c 1xfeffd7fc
 371 249 372 216 372 177 c 0
 372 153 371 125 367 98 c 0
 362 64 351 27 326 2 c 0
 310 -14 288 -23 263 -23 c 0
 233 -23 201 -9 178 14 c 0
 163 29 151 50 151 75 c 0
 151 81 152 87 153 93 c 0
 177 186 246 255 313 312 c 1
 309 384 304 457 304 531 c 0
 304 555 305 580 306 605 c 0
 305 616 304 630 304 644 c 0
 304 663 306 684 308 703 c 1
 267 706 234 722 206 736 c 0
 174 752 147 765 115 765 c 0
 112 765 109 764 105 763 c 1
 105 716 l 1
 114 671 l 2
 114 669 115 668 115 666 c 0
 115 651 103 638 88 638 c 0
 75 638 64 648 61 661 c 2
 50 713 l 2
 50 714 l 2
 50 806 l 2xfeffcffc
 50 807 51 808 52 808 c 0
EndSplineSet
EndChar
StartChar: I
Encoding: 73 73 36
Width: 330
Flags: HW
LayerCount: 2
Fore
SplineSet
156 23 m 0
 198 23 225 101 225 144 c 0
 225 294 205 443 191 585 c 1
 108 585 l 2
 72 585 50 641 50 676 c 0
 50 757 130 851 206 851 c 0
 221 851 233 839 233 824 c 2
 233 817 l 2
 233 591 280 374 280 144 c 0
 280 70 236 -32 157 -32 c 0
 118 -32 81 4 72 40 c 2
 60 90 l 2
 59 92 59 94 59 96 c 0
 59 111 72 123 87 123 c 0
 100 123 110 114 113 102 c 2
 125 55 l 1
 132 40 142 23 156 23 c 0
275 144 m 0
 275 374 228 591 228 817 c 2
 228 824 l 2
 228 836 218 846 206 846 c 0
 133 846 55 754 55 676 c 0
 55 644 75 590 108 590 c 2
 193 590 l 2
 210 590 230 189 230 144 c 0
 230 98 202 18 156 18 c 0
 142 18 124 37 120 54 c 2
 108 101 l 2
 106 110 97 118 87 118 c 0
 75 118 64 108 64 96 c 0
 64 94 65 93 65 91 c 2
 77 41 l 2
 85 6 120 -27 157 -27 c 0
 233 -27 275 73 275 144 c 0
94 688 m 0
 94 735 136 790 156 790 c 0
 176 790 188 749 188 704 c 0
 188 659 176 618 156 618 c 0
 138 618 94 640 94 688 c 0
98 688 m 0
 98 644 140 622 156 622 c 0
 170 622 184 657 184 704 c 0
 184 751 170 786 156 786 c 0
 142 786 98 733 98 688 c 0
EndSplineSet
EndChar
StartChar: J
Encoding: 74 74 37
Width: 535
Flags: W
HStem: -14 5<206.279 235.624> 36 5<216.072 223 224 230.553> 488 5<448.057 468.119> 666 5<78.6044 97.9625> 739 5<227.124 316> 749 5<110 155.844> 789 5<227.431 329.435> 799 5<55 154.569>
VStem: 50 5<760.977 797.135> 61 5<683.924 726.542> 111 5<684.5 729.79> 145 5<60.4062 111.209> 195 5<67.0807 104.199> 292 5<372.953 625.313> 297 5<131.714 254.907 329 556.047> 344 5<180.642 304 383.719 641.345> 347 5<122.678 283.381 285.328 304 375.135 553.234> 431 5<460 475.937> 444 4<851.833 853.999> 481 5<441.378 475.319>
LayerCount: 2
Fore
SplineSet
297 179 m 0xfffa70
 297 201 296 226 295 248 c 1
 272 223 252 198 236 174 c 0
 214 142 202 112 200 90 c 0
 200 89 200 88 200 87 c 0
 200 80 201 70 204 62 c 0
 207 55 210 49 213 46 c 0
 216 43 219 41 223 41 c 0
 244 44 258 52 268 62 c 0
 281 75 289 95 293 121 c 0
 296 138 297 158 297 179 c 0xfffa70
302 179 m 0
 302 158 301 138 298 120 c 0
 294 93 285 73 271 59 c 0
 260 48 246 41 224 37 c 0
 223 36 l 0
 218 36 213 38 209 42 c 0
 205 46 202 53 199 61 c 0
 196 69 195 79 195 87 c 0
 195 88 195 89 195 90 c 0
 197 114 209 145 231 177 c 0
 248 202 272 229 296 255 c 0
 296 255 296 256 297 256 c 0
 298 256 300 255 300 254 c 0
 301 230 302 203 302 179 c 0
286 789 m 0
 226 789 156 799 96 799 c 0
 82 799 68 798 55 797 c 0
 55 795 55 793 55 791 c 0
 55 773 58 756 61 741 c 0
 64 727 66 714 66 701 c 0
 66 699 66 696 66 694 c 0
 66 682 76 671 88 671 c 0
 100 671 110 681 111 693 c 0
 111 696 111 698 111 701 c 0
 111 719 108 735 105 751 c 0
 105 752 106 754 107 754 c 0
 164 753 228 744 285 744 c 0
 297 744 309 744 320 745 c 0
 321 745 322 743 322 742 c 0
 302 683 297 621 297 559 c 0xfffcf0
 297 496 302 433 302 370 c 0
 302 356 302 341 301 327 c 0
 301 326 301 326 301 326 c 0
 262 286 223 244 194 202 c 0
 170 166 152 131 150 94 c 0
 150 92 150 89 150 86 c 0
 150 73 151 59 156 46 c 0
 165 19 188 -9 223 -9 c 0
 225 -9 226 -8 227 -8 c 0
 259 -4 284 8 303 27 c 0
 326 50 338 81 343 113 c 0
 347 134 347 157 347 179 c 0xfffaf0
 347 214 344 250 344 285 c 0xfff970
 344 292 344 299 345 306 c 0
 345 307 346 307 346 307 c 0
 365 326 383 344 402 362 c 0
 430 389 458 416 481 444 c 1
 481 466 l 2
 481 478 470 488 458 488 c 0
 446 488 436 478 436 466 c 2
 436 461 l 2
 436 460 435 460 435 460 c 0
 410 432 379 403 351 376 c 0
 351 376 351 375 350 375 c 0
 349 375 347 377 347 378 c 0xfff8f0
 347 437 342 497 342 556 c 0
 342 631 349 702 380 764 c 0
 391 786 405 807 420 826 c 1
 400 812 379 802 355 796 c 0
 336 791 312 789 286 789 c 0
61 694 m 0
 61 696 61 699 61 701 c 0
 61 713 59 726 56 740 c 0
 53 755 50 772 50 791 c 0
 50 795 50 802 53 802 c 0
 67 803 81 804 96 804 c 0
 156 804 226 794 286 794 c 0
 312 794 334 796 353 801 c 0
 388 810 419 828 444 853 c 0
 444 853 445 854 446 854 c 0
 447 854 448 852 448 851 c 0
 448 850 448 849 448 849 c 0
 423 823 401 795 385 762 c 0
 354 701 347 630 347 556 c 0
 347 499 351 441 352 384 c 1xfffcf0
 378 410 408 436 431 462 c 1
 431 466 l 2
 431 481 443 493 458 493 c 0
 473 493 486 481 486 466 c 2
 486 443 l 2
 486 442 485 441 485 441 c 0
 458 409 425 378 394 348 c 0
 380 334 365 319 350 304 c 1
 350 298 349 292 349 285 c 0xfff970
 349 251 352 214 352 179 c 0
 352 157 352 134 348 112 c 0
 343 80 332 48 307 23 c 0
 288 4 261 -8 228 -13 c 0
 226 -13 225 -14 223 -14 c 0
 185 -14 162 16 152 44 c 0
 147 58 145 72 145 86 c 0
 145 89 145 91 145 94 c 0
 148 132 166 169 190 205 c 0
 219 247 257 289 296 329 c 1
 297 342 297 356 297 370 c 0xfffaf0
 297 433 292 496 292 559 c 0
 292 620 296 682 316 740 c 1
 306 739 295 739 285 739 c 0
 229 739 166 748 110 749 c 1
 113 734 116 719 116 701 c 0
 116 698 116 695 116 692 c 0
 115 678 103 666 88 666 c 0
 73 666 61 679 61 694 c 0
EndSplineSet
EndChar
StartChar: K
Encoding: 75 75 38
Width: 896
Flags: W
HStem: -42 5<118.227 144.683> 3 5<734.539 785.112> 52 5<738.566 772.489> 111 5<809.221 828.553> 379 5<419.506 476.607> 429 5<440 468.849> 715 5<67.0634 157.734> 728 5<679.361 708.452> 764 5<67.0634 150.965> 833 20G<264.5 265.5>
VStem: 50 5<732.057 751.943> 238 5<416.109 627.034> 278 4<295.001 299.325> 288 5<411.788 634.462> 366 4<346 346.999> 414 5<343.875 379> 686 5<594.143 644.235> 736 5<585.433 649.018> 842 5<78.3575 97.5534>
LayerCount: 2
Fore
SplineSet
418 384 m 0
 424 384 430 384 436 384 c 0
 522 384 614 415 674 475 c 0
 699 500 719 531 729 566 c 0
 734 582 736 600 736 618 c 0
 736 649 729 681 714 715 c 0
 713 718 712 722 710 725 c 0
 705 727 699 728 693 728 c 0
 685 728 680 726 675 724 c 0
 669 721 663 717 657 712 c 0
 643 702 628 688 612 672 c 0
 592 652 572 630 553 610 c 0
 537 593 523 578 512 567 c 0
 505 560 500 556 498 554 c 0
 472 535 448 514 426 492 c 0
 368 434 322 367 282 296 c 0
 282 295 281 295 280 295 c 0
 279 295 278 296 278 297 c 0
 285 369 288 447 288 523 c 0
 288 616 283 707 274 779 c 0
 272 795 269 812 266 828 c 1
 262 814 253 803 241 796 c 0
 241 796 180 764 125 764 c 2
 77 764 l 2
 65 764 55 754 55 742 c 0
 55 730 65 720 77 720 c 2
 125 720 l 2
 165 720 201 731 230 742 c 0
 231 742 l 0
 232 742 233 741 233 740 c 0
 240 676 243 601 243 523 c 0
 243 399 235 261 211 156 c 0
 211 155 l 0
 180 90 150 26 118 -36 c 1
 120 -36 122 -37 125 -37 c 0
 142 -37 159 -32 172 -23 c 0
 178 -19 183 -15 188 -10 c 0
 211 13 227 49 240 92 c 0
 245 107 249 122 253 139 c 0
 253 140 l 0
 287 212 323 282 366 346 c 0
 366 347 367 347 368 347 c 0
 369 347 370 346 370 345 c 0
 372 330 377 316 382 301 c 0
 401 249 439 193 488 144 c 0
 563 69 664 8 769 8 c 0
 784 8 798 14 807 23 c 0
 818 34 823 45 827 56 c 0
 831 65 834 71 835 72 c 0
 839 76 842 82 842 88 c 0
 842 100 831 111 819 111 c 0
 800 111 790 86 785 73 c 0
 781 63 778 57 775 54 c 0
 774 53 772 52 769 52 c 0
 682 52 589 106 519 176 c 0
 474 221 440 272 424 316 c 0
 417 335 414 352 414 366 c 0
 414 372 415 377 416 382 c 0
 416 383 417 384 418 384 c 0
686 618 m 0
 686 633 684 649 679 666 c 1
 670 658 659 649 647 637 c 0
 616 606 579 563 548 532 c 0
 541 525 534 519 528 514 c 0
 495 490 467 463 440 434 c 1
 543 436 656 490 681 580 c 0
 684 592 686 604 686 618 c 0
691 618 m 0
 691 604 688 590 685 578 c 0
 659 483 539 429 434 429 c 2
 433 429 432 430 432 431 c 0
 432 432 432 433 432 433 c 0
 460 464 491 493 525 518 c 0
 531 522 537 528 544 535 c 0
 575 566 612 609 643 640 c 0
 656 653 668 664 678 672 c 0
 678 672 679 673 680 673 c 0
 681 673 682 672 682 671 c 0
 688 652 691 634 691 618 c 0
125 -42 m 0
 121 -42 111 -43 111 -39 c 0
 112 -37 l 0
 145 26 175 91 206 157 c 1
 229 261 238 399 238 523 c 0
 238 599 234 673 228 736 c 1
 199 725 164 715 125 715 c 2
 77 715 l 2
 62 715 50 727 50 742 c 0
 50 757 62 769 77 769 c 2
 125 769 l 2
 179 769 239 800 239 800 c 1
 254 808 263 823 263 841 c 0
 263 844 262 848 262 851 c 0
 262 852 264 853 265 853 c 0
 266 853 267 852 267 851 c 0
 272 828 276 804 279 780 c 0
 288 707 293 617 293 523 c 0
 293 451 290 378 284 309 c 1
 323 376 367 440 423 496 c 0
 445 518 469 539 495 558 c 0
 497 559 503 565 509 571 c 0
 520 582 533 597 549 614 c 0
 568 634 588 655 608 675 c 0
 624 691 640 705 654 716 c 0
 660 721 666 725 673 728 c 0
 678 730 684 733 693 733 c 0
 700 733 706 732 712 729 c 0
 713 729 714 729 714 728 c 0
 716 724 717 721 719 717 c 0
 734 682 741 649 741 618 c 0
 741 600 739 582 734 565 c 0
 724 529 704 498 678 472 c 0
 617 411 523 379 436 379 c 0
 431 379 425 379 420 379 c 1
 419 375 419 371 419 366 c 0
 419 353 422 336 429 318 c 0
 444 275 478 224 523 179 c 0
 592 110 684 57 769 57 c 0
 771 57 771 57 772 58 c 0
 773 59 778 68 782 77 c 0
 787 89 796 116 819 116 c 0
 834 116 847 103 847 88 c 0
 847 80 844 73 839 68 c 0
 839 67 833 58 830 51 c 0
 826 42 822 30 811 19 c 0
 801 9 786 3 769 3 c 0
 663 3 560 64 484 140 c 0
 434 190 396 246 377 299 c 0
 372 312 368 325 366 338 c 1
 325 276 291 208 258 138 c 1
 244 79 224 20 191 -13 c 0
 186 -18 180 -23 174 -27 c 0
 160 -36 143 -42 125 -42 c 0
EndSplineSet
EndChar
StartChar: L
Encoding: 76 76 39
Width: 663
Flags: W
HStem: -20 5<354.742 409.933> -9 5<156.208 185.741> 30 5<361.789 415.048> 41 5<164.109 175.296> 126 5<115 157.443> 177 7<87.9219 152.514> 208 5<547.057 567.906> 598 5<132 173.578> 648 5<146 170.716> 804 5<67.057 87.2955 283.821 327.834>
VStem: 50 5<762.788 791.937> 58 5<120.553 153.27> 172 5<654.72 693.957> 194 5<423.814 472.512> 212 4<151.215 166.912> 218 5<198.138 295.214> 244 5<429.277 475.317> 268 5<198.002 300.196> 293 5<733.533 751.85> 343 5<727.487 771.934> 530 5<176.247 195.943> 558 5<123.984 147> 608 5<121.545 168>
LayerCount: 2
Fore
SplineSet
293 749 m 0
 293 750 293 751 293 752 c 1
 271 750 259 744 250 735 c 0
 238 723 229 701 227 671 c 1
 244 679 259 688 270 699 c 0
 279 708 285 718 289 728 c 0
 291 735 293 741 293 749 c 0
295 757 m 0
 298 757 298 752 298 749 c 0
 298 741 297 733 294 726 c 0
 290 715 283 705 274 696 c 0
 262 684 245 673 226 665 c 0
 225 665 l 0
 224 665 222 666 222 667 c 0
 222 668 l 0
 224 700 232 724 246 738 c 0
 256 748 271 755 295 757 c 0
177 605 m 0
 178 605 179 604 179 603 c 0
 181 577 185 550 189 525 c 0
 194 495 198 467 199 444 c 0
 205 383 223 317 223 253 c 0
 223 234 222 196 216 153 c 0
 216 152 214 151 213 151 c 0
 212 151 212 152 212 152 c 0
 190 167 164 177 133 177 c 0
 132 177 l 0
 124 178 117 179 109 179 c 0
 107 179 103 178 101 178 c 0
 92 177 83 176 74 167 c 0
 66 159 63 149 63 139 c 0
 63 134 64 128 65 123 c 0
 72 71 108 5 167 -4 c 0
 168 -4 168 -4 169 -4 c 0
 186 -4 201 3 212 14 c 0
 225 27 233 43 240 61 c 0
 240 62 241 63 242 63 c 0
 243 63 244 62 244 62 c 0
 277 27 317 -15 380 -15 c 0
 383 -15 386 -14 389 -14 c 0
 423 -12 459 -9 493 1 c 0
 520 9 546 21 567 42 c 0
 593 68 608 104 608 152 c 0
 608 157 608 163 608 168 c 1
 573 202 l 2
 569 206 563 208 557 208 c 0
 545 208 535 198 535 186 c 0
 535 180 538 174 542 170 c 2
 562 149 l 2
 562 149 563 149 563 148 c 0
 562 112 552 90 536 74 c 0
 522 60 504 51 481 44 c 0
 453 36 419 32 386 30 c 0
 384 30 383 30 381 30 c 0
 345 30 319 50 291 78 c 0
 279 90 268 102 256 114 c 0
 256 114 255 115 255 116 c 0
 255 118 256 121 256 123 c 0
 266 179 268 228 268 253 c 0
 268 321 251 384 244 447 c 0
 243 473 238 502 234 532 c 0
 230 559 226 587 224 614 c 0
 224 615 224 616 225 616 c 0
 257 627 286 644 306 664 c 0
 319 677 330 693 336 711 c 0
 340 723 343 736 343 749 c 0
 343 766 338 787 332 801 c 1
 324 802 316 803 307 803 c 0
 268 803 236 792 214 770 c 0
 188 744 179 707 177 670 c 0
 177 664 177 659 177 653 c 0
 177 652 176 651 175 651 c 0
 166 650 156 648 147 648 c 0
 146 648 146 649 146 649 c 0
 130 661 120 679 113 703 c 0
 105 729 103 758 100 784 c 2
 99 795 89 804 77 804 c 0
 65 804 55 794 55 782 c 0
 55 780 56 778 56 776 c 0
 59 751 61 721 70 691 c 0
 77 667 88 642 107 623 c 0
 115 615 123 609 133 604 c 0
 137 604 143 603 147 603 c 0
 157 603 166 604 176 605 c 0
 177 605 l 0
128 126 m 0
 127 126 l 0
 123 127 119 128 115 128 c 1
 118 105 131 77 148 60 c 0
 156 52 163 48 171 46 c 0
 172 46 174 47 177 50 c 0
 181 54 187 63 192 75 c 0
 195 82 197 91 199 99 c 1
 178 117 159 127 133 127 c 0
 131 127 130 126 128 126 c 0
380 -20 m 0
 316 -20 276 20 243 55 c 1
 236 38 229 24 216 11 c 0
 205 0 188 -9 169 -9 c 0
 168 -9 168 -9 167 -9 c 0
 105 0 67 69 60 122 c 0
 59 127 58 133 58 139 c 0
 58 150 61 161 70 170 c 0
 80 180 92 182 101 183 c 0
 104 183 106 184 109 184 c 0
 117 184 125 183 133 182 c 0
 164 182 189 172 211 158 c 1
 217 199 218 234 218 253 c 0
 218 317 200 383 194 444 c 0
 193 467 189 497 184 528 c 0
 181 551 176 576 174 600 c 1
 165 599 156 598 147 598 c 0
 142 598 138 599 133 599 c 0
 132 599 l 0
 121 604 111 612 103 620 c 0
 83 640 72 664 65 689 c 0
 56 720 53 752 50 778 c 0
 50 779 50 780 50 782 c 0
 50 797 62 809 77 809 c 0
 91 809 104 799 105 785 c 2
 108 759 111 730 118 705 c 0
 125 682 134 664 148 653 c 1
 156 653 164 654 172 655 c 1
 172 660 172 666 172 671 c 0
 174 709 184 746 211 773 c 0
 234 796 267 808 307 808 c 0
 317 808 325 807 334 806 c 0
 335 806 336 806 336 805 c 0
 343 790 348 768 348 749 c 0
 348 709 330 681 309 660 c 0
 289 640 261 623 229 612 c 1
 231 585 235 557 239 530 c 0
 243 501 248 472 249 447 c 0
 256 383 273 322 273 253 c 0
 273 228 271 172 260 117 c 1
 272 105 283 93 295 81 c 0
 323 53 348 35 381 35 c 0
 383 35 384 35 386 35 c 0
 419 37 451 41 479 49 c 0
 501 56 519 65 532 78 c 0
 547 93 557 113 558 147 c 1
 538 167 l 2
 533 172 530 178 530 186 c 0
 530 201 542 213 557 213 c 0
 565 213 572 210 577 205 c 2
 612 171 l 2
 612 171 612 170 612 169 c 0
 612 163 613 158 613 152 c 0
 613 103 598 66 571 39 c 0
 549 17 523 4 495 -4 c 0
 460 -14 423 -17 389 -19 c 0
 386 -19 383 -20 380 -20 c 0
112 133 m 0
 117 133 123 132 128 131 c 0
 130 131 131 132 133 132 c 0
 161 132 182 120 204 101 c 0
 205 101 205 100 205 99 c 0
 203 90 199 82 196 74 c 0
 191 61 185 51 180 46 c 0
 177 43 174 41 171 41 c 0
 162 43 152 49 144 57 c 0
 126 75 113 106 110 131 c 0
 110 132 111 133 112 133 c 0
EndSplineSet
EndChar
StartChar: M
Encoding: 77 77 40
Width: 794
Flags: HW
LayerCount: 2
Fore
SplineSet
55 74 m 0
 55 44 72 -20 105 -20 c 0
 111 -20 117 -18 121 -13 c 0
 284 159 267 376 272 613 c 0
 272 614 273 615 274 615 c 0
 296 615 378 350 415 350 c 0
 427 350 437 360 437 372 c 0
 437 373 437 375 437 376 c 0
 437 426 521 739 558 739 c 0
 559 739 560 737 560 736 c 0
 560 654 557 570 557 488 c 0
 557 302 571 131 662 25 c 2
 700 -19 l 2
 704 -24 711 -26 717 -26 c 0
 729 -26 739 -16 739 -4 c 0
 739 1 738 7 734 11 c 2
 697 54 l 2
 614 150 602 316 602 489 c 0
 602 574 605 662 605 748 c 0
 605 779 602 813 571 813 c 0
 489 813 424 448 402 448 c 0
 401 448 400 449 400 450 c 0
 343 560 287 678 287 806 c 0
 287 808 287 810 287 812 c 0
 287 824 277 834 265 834 c 0
 217 834 227 591 226 542 c 0
 224 355 220 178 111 43 c 0
 111 42 110 42 109 42 c 0
 96 42 106 96 77 96 c 0
 65 96 55 86 55 74 c 0
571 818 m 0
 606 818 610 782 610 748 c 0
 610 662 607 574 607 489 c 0
 607 311 623 160 700 57 c 1
 738 14 l 2
 742 9 744 2 744 -4 c 0
 744 -19 732 -31 717 -31 c 0
 709 -31 701 -28 696 -22 c 2
 658 22 l 2
 566 129 552 302 552 488 c 0
 552 567 555 647 555 726 c 1
 512 643 442 484 442 376 c 0
 442 375 442 373 442 372 c 0
 442 357 430 345 415 345 c 0
 364 345 294 551 277 599 c 1
 273 369 286 153 125 -17 c 0
 120 -23 112 -25 105 -25 c 0
 68 -25 50 41 50 74 c 0
 50 89 62 101 77 101 c 0
 106 101 103 74 110 50 c 1
 268 250 191 534 238 817 c 0
 240 830 251 839 265 839 c 0
 280 839 292 827 292 812 c 0
 292 810 292 808 292 806 c 0
 292 681 345 567 401 458 c 1
 421 536 487 818 571 818 c 0
EndSplineSet
EndChar
StartChar: N
Encoding: 78 78 41
Width: 661
Flags: W
HStem: -35 5<100.375 133.298> 83 5<68.4466 87.01> 792 5<280.844 304.162> 795 5<575.109 593.396>
VStem: 50 5<50.1936 69.5534> 142 5<345.581 494.657> 157 5<81.0878 191.592> 193 5<341.634 496.282> 207 5<75.1791 196.102> 267 5<651.525 705.319> 271 5<259.685 393.565 700.904 720.994> 280 5<462.773 600.215> 317 5<657.138 697.93> 321 5<264.831 395.07 748.281 775.597> 330 5<463.93 599.314> 341 4<175.596 183.955> 350 5<2.86963 24.7858> 363 5<121.069 127.833 132 133.897> 606 5<761.441 782.119>
LayerCount: 2
Fore
SplineSet
147 430 m 0xef9be0
 147 346 156 255 161 172 c 0
 161 156 162 140 162 124 c 0
 162 106 161 87 158 70 c 0
 155 49 149 34 140 25 c 0
 135 20 126 15 115 15 c 0
 114 15 113 15 113 16 c 0
 108 22 107 34 105 43 c 0
 103 52 101 60 98 68 c 0
 95 76 87 83 78 83 c 0
 66 83 55 72 55 60 c 0
 55 57 56 55 57 52 c 0
 58 49 59 41 61 33 c 0
 65 14 69 -4 82 -17 c 0
 89 -24 99 -28 110 -30 c 0
 111 -30 111 -30 112 -30 c 0
 136 -30 156 -22 171 -7 c 0
 190 12 199 38 203 63 c 0
 206 83 207 103 207 122 c 0
 207 139 206 156 206 172 c 0
 206 173 l 0
 201 254 193 348 193 428 c 0
 193 541 209 640 272 720 c 0xefdbe0
 272 721 273 721 274 721 c 0
 275 721 276 719 276 718 c 0xefb3e0
 276 715 275 711 275 708 c 0
 273 695 272 682 272 669 c 0xefd3e0
 272 665 273 660 274 655 c 0
 283 618 285 579 285 538 c 0
 285 466 276 390 276 318 c 0
 276 266 281 214 298 166 c 0
 302 152 314 123 324 100 c 0
 333 79 342 57 348 40 c 0
 352 30 354 22 355 19 c 0
 355 18 l 0
 355 -7 373 -27 396 -32 c 1
 415 261 507 496 586 737 c 0
 586 738 l 2
 602 759 l 2
 605 763 606 767 606 772 c 0
 606 784 596 795 584 795 c 0
 577 795 570 790 566 785 c 2
 545 759 l 1
 479 555 403 356 368 123 c 0
 368 122 366 121 365 121 c 0
 364 121 363 121 363 122 c 0
 353 147 343 171 341 178 c 0
 341 179 341 179 341 180 c 0
 326 222 321 270 321 320 c 0xdfb7e0
 321 392 330 467 330 539 c 0
 330 582 327 625 317 666 c 0
 317 667 317 667 317 668 c 0
 317 688 324 728 324 748 c 0
 324 754 323 760 322 766 c 0
 321 771 319 777 313 783 c 0
 308 788 302 792 293 792 c 0
 287 792 281 790 277 788 c 0
 269 784 262 776 255 769 c 0
 168 674 147 557 147 430 c 0xef9be0
211 172 m 2
 211 156 212 139 212 122 c 0
 212 103 211 83 208 62 c 0
 204 37 195 9 175 -11 c 0
 159 -27 138 -35 112 -35 c 0
 111 -35 110 -35 109 -35 c 0
 97 -33 87 -28 79 -20 c 0
 65 -6 60 13 56 32 c 0
 54 40 53 47 52 50 c 0
 51 53 50 56 50 60 c 0
 50 75 63 88 78 88 c 0
 90 88 99 80 103 70 c 0
 109 55 110 38 115 23 c 0
 116 21 117 21 117 20 c 0
 127 21 131 23 136 28 c 0
 143 35 150 51 153 71 c 0
 156 87 157 106 157 124 c 0
 157 140 156 156 156 172 c 0
 151 255 142 346 142 430 c 0
 142 557 163 677 251 773 c 0
 258 780 266 787 275 792 c 0
 279 794 286 797 293 797 c 0
 303 797 311 792 316 787 c 0
 323 780 326 772 327 767 c 0
 329 760 329 754 329 748 c 0
 329 727 322 688 322 668 c 0
 322 667 322 667 322 667 c 0xefdbe0
 332 625 335 582 335 539 c 0
 335 467 326 392 326 320 c 0
 326 270 330 222 345 181 c 0
 345 180 346 180 346 179 c 0
 347 173 355 154 364 132 c 1
 400 362 475 558 541 760 c 0
 541 761 l 2
 562 788 l 2
 567 795 575 800 584 800 c 0
 599 800 611 787 611 772 c 0
 611 766 609 761 606 756 c 2
 590 735 l 1
 511 494 420 258 401 -35 c 0
 401 -36 399 -37 398 -37 c 0
 371 -33 350 -10 350 18 c 0
 349 21 346 29 343 38 c 0
 336 57 325 84 315 107 c 0
 305 130 297 151 293 165 c 0
 276 214 271 266 271 318 c 0xdfb7e0
 271 391 280 466 280 538 c 0
 280 578 278 617 269 653 c 0
 267 659 267 664 267 669 c 0
 267 682 268 696 270 709 c 1
 213 632 198 537 198 428 c 0
 198 348 206 254 211 173 c 0
 211 172 l 2
EndSplineSet
EndChar
StartChar: O
Encoding: 79 79 42
Width: 563
Flags: W
HStem: -25 5<286.87 344.35> -13 5<183.637 234.214> 24 5<292.515 334.813> 36 5<198.972 239.485> 424 5<308.447 327.861> 728 5<362.755 382.369> 741 5<216.952 262.81> 791 5<213.096 266.728>
VStem: 50 5<231.394 365.897> 63 5<488.094 620.937> 100 5<235.681 368.052> 112 5<483.506 608.515> 290 5<442.447 461.714> 353 5<562.132 622.85> 403 5<558.662 590.865> 458 5<348.141 400.868> 508 5<344.789 400.979>
LayerCount: 2
Fore
SplineSet
68 533 m 1
 65 454 55 370 55 290 c 0
 55 271 56 253 57 235 c 0
 63 158 83 85 138 30 c 0
 152 16 169 3 187 -8 c 1
 206 -8 l 2
 221 -8 240 -11 260 -14 c 0
 281 -17 303 -20 326 -20 c 0
 350 -20 370 -8 386 8 c 0
 403 25 416 47 429 72 c 0
 445 103 458 140 469 177 c 0
 494 260 508 342 508 376 c 0
 508 377 508 378 508 378 c 0
 500 501 452 617 391 718 c 0
 387 724 380 728 372 728 c 0
 369 728 366 728 364 727 c 0
 363 727 l 0
 362 727 361 727 361 728 c 0
 356 735 350 742 344 748 c 0
 318 774 282 791 241 791 c 0
 231 791 221 790 210 788 c 0
 178 782 151 766 130 745 c 0
 87 702 67 639 67 578 c 2
 68 533 l 1
117 532 m 1
 114 454 105 367 105 289 c 0
 105 272 106 255 107 239 c 0
 112 168 130 109 174 65 c 0
 182 57 191 49 202 41 c 1
 206 41 l 2
 245 41 287 29 326 29 c 0
 331 29 339 32 350 43 c 0
 361 54 373 72 384 94 c 0
 398 122 410 156 421 191 c 0
 445 269 458 353 458 376 c 0
 453 445 435 513 408 577 c 1
 405 529 388 481 352 445 c 0
 347 440 341 435 335 430 c 0
 330 426 324 424 318 424 c 0
 303 424 290 437 290 452 c 0
 290 461 294 469 301 474 c 0
 334 499 353 542 353 592 c 0
 353 639 337 685 309 713 c 0
 291 731 268 741 241 741 c 0
 234 741 227 741 219 739 c 0
 197 735 180 725 165 710 c 0
 135 680 117 628 117 578 c 2
 117 532 l 1
326 24 m 0
 287 24 245 36 206 36 c 2
 202 36 l 2
 201 36 200 37 200 37 c 0
 189 45 179 53 170 62 c 0
 125 107 107 166 102 238 c 0
 101 254 100 272 100 289 c 0
 100 367 109 454 112 532 c 1
 112 578 l 2
 112 654 149 731 218 744 c 0
 226 746 234 746 241 746 c 0
 270 746 293 735 312 716 c 0
 341 687 358 640 358 592 c 0
 358 541 338 496 304 470 c 0
 299 466 295 459 295 452 c 0
 295 440 306 429 318 429 c 0
 323 429 328 431 332 434 c 0
 338 439 344 444 349 449 c 0
 386 486 402 535 403 588 c 0
 403 589 405 591 406 591 c 0
 407 591 408 590 408 589 c 0
 438 521 458 449 463 376 c 0
 463 352 450 269 426 190 c 0
 415 155 403 120 389 92 c 0
 378 69 366 52 354 40 c 0
 343 29 333 24 326 24 c 0
50 290 m 0
 50 370 60 454 63 533 c 1
 62 578 l 2
 62 640 82 705 126 749 c 0
 148 771 176 787 209 793 c 0
 220 795 231 796 241 796 c 0
 284 796 320 778 347 751 c 0
 353 745 359 739 364 732 c 0
 367 733 369 733 372 733 c 0
 382 733 390 728 395 720 c 0
 457 619 505 502 513 378 c 0
 513 377 513 377 513 376 c 0
 513 341 499 258 474 175 c 0
 463 138 450 102 434 70 c 0
 421 45 406 21 389 4 c 0
 372 -13 352 -25 326 -25 c 0
 302 -25 279 -22 258 -19 c 0
 238 -16 221 -13 206 -13 c 2
 187 -13 l 2
 185 -13 l 0
 166 -1 150 12 135 27 c 0
 78 84 58 157 52 235 c 0
 51 253 50 271 50 290 c 0
EndSplineSet
EndChar
StartChar: P
Encoding: 80 80 43
Width: 686
Flags: W
HStem: -30 5<141.839 181.21> 19 5<151.108 172.958> 166 5<67.6044 87.0581> 395 5<356.299 410.972> 444 5<361.815 405.451> 520 5<130.046 149.396> 620 5<270.684 293.119> 693 5<217.057 237.119> 829 5<260.255 378.035> 878 5<249.702 381.291>
VStem: 50 5<74.0987 153.076> 84 5<645.678 734.377> 134 5<649.51 735.018> 162 5<537.924 598> 200 5<374.568 680.937> 210 5<116.902 266.972> 250 5<385.169 515.572 603.135 680.319> 260 5<107.284 267.902> 294 5<543.591 576.779> 306 5<588.521 607.396> 582 5<591.971 650.044> 632 5<586.417 653.127>
LayerCount: 2
Fore
SplineSet
294 570 m 0
 294 571 294 572 294 573 c 0
 294 576 293 578 295 579 c 0
 301 583 306 590 306 598 c 0
 306 610 295 620 283 620 c 0
 271 620 260 613 255 604 c 0
 255 603 254 603 253 603 c 0
 252 603 250 605 250 606 c 2
 250 671 l 2
 250 683 239 693 227 693 c 0
 215 693 205 683 205 671 c 0
 206 578 205 486 207 394 c 0
 208 325 215 255 215 185 c 2
 215 173 l 2
 215 151 214 118 209 88 c 0
 204 62 196 40 185 29 c 0
 179 23 171 19 161 19 c 0
 152 19 148 22 142 28 c 0
 130 40 121 63 108 78 c 0
 108 78 107 79 107 80 c 2
 100 145 l 2
 99 156 89 166 77 166 c 0
 65 166 55 155 55 143 c 0
 55 142 55 142 55 141 c 2
 64 57 l 1
 66 56 68 54 70 52 c 0
 75 47 82 37 88 27 c 0
 94 17 100 6 110 -4 c 0
 122 -16 139 -25 161 -25 c 0
 183 -25 203 -17 217 -3 c 0
 239 19 249 51 254 81 c 0
 260 114 260 148 260 171 c 2
 260 185 l 2
 260 257 253 325 252 395 c 2
 251 514 l 2
 251 515 253 516 254 516 c 0
 255 516 256 515 256 514 c 0
 270 459 309 400 379 400 c 0
 445 400 521 431 573 483 c 0
 608 518 632 562 632 614 c 0
 632 692 607 755 563 799 c 0
 508 854 426 878 335 878 c 0
 245 878 176 876 132 832 c 0
 102 802 89 754 89 691 c 0
 89 639 98 587 119 539 c 0
 122 531 131 525 140 525 c 0
 152 525 162 536 162 548 c 0
 162 551 161 554 160 557 c 0
 142 598 134 644 134 691 c 0
 134 697 134 703 134 709 c 0
 136 757 148 784 164 800 c 0
 176 812 193 821 217 826 c 0
 247 833 287 834 335 834 c 0
 418 834 487 811 531 767 c 0
 566 732 587 682 587 614 c 0
 587 516 463 444 379 444 c 0
 359 444 345 452 332 465 c 0
 308 489 294 534 294 570 c 0
379 395 m 0
 313 395 273 446 256 496 c 1
 257 395 l 1
 260 325 265 257 265 185 c 2
 265 171 l 2
 265 148 265 114 259 80 c 0
 254 50 244 17 221 -6 c 0
 206 -21 185 -30 161 -30 c 0
 138 -30 120 -21 107 -8 c 0
 95 4 89 16 82 27 c 0
 76 37 71 45 67 49 c 0
 65 51 63 52 61 53 c 0
 60 53 59 54 59 55 c 2
 50 140 l 2
 50 141 50 142 50 143 c 0
 50 158 62 171 77 171 c 0
 91 171 104 160 105 146 c 2
 112 81 l 1
 124 66 134 43 146 31 c 0
 151 26 153 24 161 24 c 0
 170 24 176 27 182 33 c 0
 191 42 199 63 204 89 c 0
 209 118 210 151 210 173 c 2
 210 185 l 2
 210 255 203 325 202 394 c 0
 200 486 201 578 200 671 c 0
 200 686 212 698 227 698 c 0
 242 698 255 686 255 671 c 2
 255 613 l 1
 262 621 272 625 283 625 c 0
 298 625 311 613 311 598 c 0
 311 589 306 580 299 575 c 0
 299 574 299 574 299 573 c 0
 299 572 299 571 299 570 c 0
 299 535 312 491 335 468 c 0
 347 456 361 449 379 449 c 0
 462 449 582 520 582 614 c 0
 582 681 561 729 527 763 c 0
 485 805 417 829 335 829 c 0
 287 829 247 827 218 821 c 0
 194 816 178 807 167 796 c 0
 152 781 141 756 139 709 c 0
 139 703 139 697 139 691 c 0
 139 645 147 600 165 559 c 0
 166 556 167 552 167 548 c 0
 167 533 155 520 140 520 c 0
 129 520 118 527 114 537 c 0
 93 586 84 638 84 691 c 0
 84 755 96 803 128 835 c 0
 174 881 246 883 335 883 c 0
 427 883 510 858 566 802 c 0
 611 757 637 693 637 614 c 0
 637 561 611 514 576 479 c 0
 524 427 447 395 379 395 c 0
EndSplineSet
EndChar
StartChar: Q
Encoding: 81 81 44
Width: 527
Flags: HW
LayerCount: 2
Fore
SplineSet
277 723 m 0
 268 723 258 721 248 721 c 0
 243 721 237 721 232 721 c 0
 99 721 105 528 105 397 c 0
 105 248 150 43 289 30 c 1
 289 31 288 33 288 34 c 0
 288 43 293 51 300 56 c 0
 385 117 422 254 422 395 c 0
 422 413 420 430 420 446 c 0
 420 459 422 473 422 487 c 0
 422 598 387 723 277 723 c 0
425 446 m 0
 425 430 427 413 427 395 c 0
 427 252 389 114 303 52 c 0
 297 48 293 41 293 34 c 0
 293 32 294 29 294 27 c 0
 294 26 293 25 292 25 c 0
 146 25 100 251 100 397 c 0
 100 532 94 726 232 726 c 0
 237 726 243 726 248 726 c 0
 258 726 268 728 277 728 c 0
 390 728 427 601 427 487 c 0
 427 473 425 459 425 446 c 0
276 773 m 0
 267 773 257 771 247 771 c 0
 242 771 238 771 233 771 c 0
 58 771 55 564 55 396 c 0
 55 214 113 -21 302 -21 c 0
 320 -21 339 -8 352 -8 c 0
 364 -8 391 -49 391 -60 c 0
 391 -61 391 -61 391 -62 c 0
 391 -69 368 -120 353 -120 c 2
 294 -120 l 2
 282 -120 271 -130 271 -142 c 0
 271 -154 282 -164 294 -164 c 2
 366 -164 l 2
 395 -164 436 -97 436 -60 c 0
 436 -16 381 5 381 31 c 0
 381 33 381 36 381 38 c 0
 381 45 376 52 376 59 c 0
 376 60 377 61 377 61 c 0
 441 138 472 265 472 395 c 0
 472 413 470 430 470 446 c 0
 470 460 472 474 472 488 c 0
 472 629 419 773 276 773 c 0
351 -115 m 1
 363 -99 386 -78 386 -62 c 0
 386 -61 386 -61 386 -60 c 0
 386 -43 363 -24 352 -13 c 1
 339 -20 320 -26 302 -26 c 0
 110 -26 50 211 50 396 c 0
 50 568 55 776 233 776 c 0
 238 776 242 776 247 776 c 0
 257 777 275 778 276 778 c 0
 422 778 477 632 477 488 c 0
 477 474 476 460 475 446 c 0
 476 430 477 413 477 395 c 0
 477 264 446 137 382 59 c 1
 385 52 386 45 386 38 c 0
 386 36 386 33 386 31 c 0
 405 7 441 -15 441 -60 c 0
 441 -101 398 -169 366 -169 c 2
 294 -169 l 2
 279 -169 266 -157 266 -142 c 0
 266 -127 279 -115 294 -115 c 2
 351 -115 l 1
EndSplineSet
EndChar
StartChar: R
Encoding: 82 82 45
Width: 679
Flags: W
HStem: -43 5<158.904 197.436> -25 5<477.422 516.479> 6 5<167.464 190.367> 16 5<67.7124 78.3358> 24 5<485.008 507.089> 125 5<592.046 611.396> 353 5<329.095 339.275> 419 20G<264.5 265.5> 438 21G<317.5 318.5> 510 5<102.447 121.787> 540 5<273.486 298.931> 676 5<193.871 213.943> 759 5<234.949 303.557> 808 5<230.388 304.516>
VStem: 50 5<33.0793 54.9861> 84 5<528.559 569.853> 139 5<77.7365 100.208> 224 7<640.188 666.909> 232 5<126.91 282.219> 250 5<499.069 518.25> 262 5<433.281 438.931> 282 5<119.83 283.619> 310 5<451 454.994> 316 5<438.069 439> 500 5<530.058 586> 550 5<523.902 588.764> 624 5<91.9034 112.119>
LayerCount: 2
Fore
SplineSet
321 440 m 0xff7fffe0
 321 439 319 438 318 438 c 0xfeffffe0
 317 438 316 438 316 439 c 0
 314 443 312 447 310 451 c 0
 310 452 l 0
 310 453 311 455 312 455 c 0
 313 455 315 455 315 454 c 0
 318 448 320 444 321 441 c 0
 321 440 l 0xff7fffe0
179 640 m 1
 196 519 235 387 235 258 c 0
 235 232 237 209 237 182 c 0
 237 135 233 79 219 44 c 0
 214 32 208 23 202 17 c 0
 195 10 189 6 178 6 c 0
 174 6 166 8 158 12 c 0
 142 19 122 35 116 51 c 0
 115 52 l 0
 115 53 116 53 116 53 c 0
 124 62 127 67 132 72 c 0
 134 74 134 74 136 77 c 0
 137 78 139 83 139 88 c 0
 139 93 139 99 133 105 c 0
 130 108 127 109 124 110 c 0
 123 110 123 111 123 112 c 0
 123 113 l 0
 126 121 129 129 133 137 c 1
 125 128 117 119 109 110 c 0
 108 110 l 0
 105 109 103 106 101 104 c 0
 96 99 68 68 61 59 c 0
 60 58 59 57 58 55 c 0
 58 54 55 48 55 43 c 0
 55 39 56 34 62 28 c 0
 67 23 71 21 78 21 c 0
 79 21 80 21 80 20 c 0
 93 -2 116 -19 139 -29 c 0
 151 -34 165 -38 178 -38 c 0
 201 -38 220 -29 234 -15 c 0
 273 24 282 104 282 181 c 0
 282 209 280 231 280 258 c 0
 280 319 272 378 262 436 c 0
 262 437 l 0
 262 438 264 439 265 439 c 0xff7fffe0
 266 439 267 439 267 438 c 0
 280 404 304 375 331 358 c 0
 333 358 336 358 338 358 c 0
 339 358 340 358 341 358 c 0
 342 358 343 356 343 355 c 0
 352 291 349 226 361 162 c 0
 365 139 374 107 387 77 c 0
 397 53 410 29 429 10 c 0
 446 -7 470 -20 498 -20 c 0
 526 -20 546 -4 561 11 c 0
 573 23 585 38 597 50 c 0
 601 54 604 56 608 59 c 1
 622 93 l 2
 623 96 624 99 624 102 c 0
 624 114 614 125 602 125 c 0
 593 125 584 119 581 111 c 2
 571 88 l 2
 571 87 l 0
 556 74 543 57 529 43 c 0
 516 30 507 24 498 24 c 0
 485 24 473 30 461 42 c 0
 448 55 437 74 428 95 c 0
 403 153 399 203 395 275 c 0
 393 304 392 333 388 363 c 0
 388 364 388 366 389 366 c 0
 427 378 465 401 494 430 c 0
 526 462 550 503 550 548 c 0
 550 621 529 689 481 737 c 0
 437 781 373 805 289 806 c 0
 279 807 268 808 259 808 c 0
 216 808 183 794 158 769 c 0
 132 743 117 709 107 673 c 0
 95 628 92 580 89 539 c 0
 89 538 l 0
 89 526 100 515 112 515 c 0
 124 515 133 525 134 537 c 0
 137 577 141 622 151 661 c 0
 159 693 171 719 189 737 c 0
 205 753 227 764 258 764 c 0
 266 764 275 763 284 762 c 0
 285 762 285 762 286 762 c 0
 364 762 416 739 450 705 c 0
 487 668 505 613 505 548 c 0
 505 521 489 489 462 462 c 0
 439 439 409 421 381 411 c 0
 380 411 l 0
 379 411 378 412 378 413 c 0
 375 425 370 437 365 449 c 0
 362 460 357 470 350 482 c 0
 341 496 330 511 319 522 c 0
 315 526 311 531 306 534 c 0
 301 537 295 540 286 540 c 0
 279 540 271 538 265 532 c 0
 257 524 256 515 255 508 c 0
 255 505 255 499 252 499 c 0
 251 499 250 500 250 501 c 0
 241 547 231 593 224 639 c 0
 224 640 l 0
 224 641 225 641 225 642 c 0
 226 646 226 650 226 654 c 0
 226 666 216 676 204 676 c 0
 193 676 183 668 181 657 c 2
 179 640 l 1
232 182 m 0
 232 209 230 232 230 258 c 0
 230 387 191 520 174 640 c 0
 176 658 l 2
 178 671 190 681 204 681 c 0
 219 681 231 669 231 654 c 0
 231 649 230 644 229 640 c 0
 235 600 244 559 252 518 c 1
 253 524 255 530 261 536 c 0
 268 543 278 545 286 545 c 0
 296 545 303 541 308 538 c 0
 313 534 319 530 323 526 c 0
 335 514 345 499 354 485 c 0
 361 473 367 463 370 451 c 0
 375 440 379 427 382 416 c 1
 409 426 436 444 458 466 c 0
 484 492 500 522 500 548 c 0
 500 612 482 666 446 702 c 0
 413 735 363 757 286 757 c 2
 284 757 l 2
 283 757 l 0
 274 758 266 759 258 759 c 0
 228 759 208 749 193 734 c 0
 176 717 164 691 156 660 c 0
 146 621 142 576 139 536 c 0
 138 522 127 510 112 510 c 0
 97 510 84 523 84 538 c 0
 84 539 84 539 84 540 c 0
 87 581 91 629 103 674 c 0
 113 710 127 746 154 773 c 0
 180 799 215 813 259 813 c 0
 269 813 279 813 289 811 c 0
 374 810 440 786 485 741 c 0
 534 692 555 622 555 548 c 0
 555 502 530 460 497 427 c 0
 468 398 431 374 393 362 c 1
 397 333 398 303 400 275 c 0
 404 204 409 154 433 97 c 0
 442 76 453 57 465 45 c 0
 476 34 487 29 498 29 c 0
 505 29 514 34 526 46 c 0
 540 60 552 78 567 91 c 1
 576 113 l 2
 580 123 591 130 602 130 c 0
 617 130 629 117 629 102 c 0
 629 98 628 94 627 91 c 2
 612 57 l 2
 611 55 l 0
 607 52 604 51 600 47 c 0
 588 35 577 19 565 7 c 0
 550 -8 528 -25 498 -25 c 0
 469 -25 444 -12 426 6 c 0
 406 26 393 50 382 75 c 0
 355 138 349 196 345 272 c 0
 343 300 342 327 339 353 c 0
 338 353 l 0
 335 353 331 352 329 353 c 0
 305 367 284 391 270 418 c 1
 279 366 285 313 285 258 c 0
 285 231 287 209 287 181 c 0
 287 104 279 23 238 -18 c 0
 223 -33 202 -43 178 -43 c 0
 164 -43 150 -40 137 -34 c 0
 113 -23 91 -6 77 16 c 1
 70 16 64 19 58 25 c 0
 51 32 50 38 50 43 c 0
 50 49 52 55 53 57 c 0
 54 59 56 61 57 62 c 0
 65 72 92 103 97 108 c 0
 99 110 102 112 106 114 c 0
 123 132 139 152 155 171 c 0
 155 172 155 171 156 171 c 0
 157 171 159 170 159 169 c 0
 159 168 158 167 158 167 c 0
 145 151 135 134 128 114 c 0
 131 113 134 110 136 108 c 0
 143 101 144 94 144 88 c 0
 144 82 141 76 140 74 c 0
 137 70 137 69 134 66 c 0
 131 63 127 58 121 51 c 1
 127 37 145 23 160 16 c 0
 168 13 175 11 178 11 c 0
 188 11 193 14 199 20 c 0
 204 25 209 34 214 46 c 0
 227 80 232 135 232 182 c 0
EndSplineSet
EndChar
StartChar: S
Encoding: 83 83 46
Width: 586
Flags: W
HStem: -51 5<330.787 375.291> -33 5<67.057 87.6763> -2 5<339.515 370.436> 81 5<330.668 358.905> 149 5<295.553 314.753> 199 5<284.967 309.265> 249 5<277.137 317.744> 757 5<227.993 316.526> 806 5<219.251 323.862>
VStem: 50 5<-15.9366 14.8554> 130 5<641.53 722.241> 180 5<643.372 716.47> 220 5<132.856 171.931> 232 5<214.069 218.409> 270 5<135.328 183.224> 282 4<478.025 479> 350 5<673.789 732.884> 355 5<144.134 162.992> 400 5<671.327 739.117> 405 5<135.135 171.585> 482 5<129.664 188.105> 532 5<125.857 190.555>
LayerCount: 2
Fore
SplineSet
225 170 m 0xffff2c
 225 167 225 165 225 162 c 0
 225 138 232 100 245 62 c 0
 256 32 270 2 292 -20 c 0
 307 -35 326 -46 349 -46 c 0
 396 -46 437 -25 468 6 c 0
 507 45 532 100 532 154 c 0
 532 310 414 378 322 447 c 0
 321 447 321 448 321 449 c 0
 321 450 l 0
 361 527 400 606 400 716 c 0
 400 742 392 764 377 779 c 0
 354 802 320 806 289 806 c 0
 256 806 231 806 209 802 c 0
 191 799 175 793 162 780 c 0
 140 758 135 724 135 678 c 0
 135 563 194 493 262 437 c 0
 263 437 263 436 263 435 c 0
 262 434 l 0
 238 387 215 335 200 273 c 0
 179 189 162 104 109 51 c 0
 94 36 76 23 55 14 c 1
 55 -6 l 2
 55 -18 65 -28 77 -28 c 0
 86 -28 95 -23 98 -15 c 0
 99 -14 l 0
 115 -5 129 7 141 19 c 0
 183 61 204 115 220 170 c 0
 220 171 222 172 223 172 c 0
 224 172 225 171 225 170 c 0xffff2c
355 152 m 0xffff4c
 355 154 355 158 353 162 c 0
 351 167 347 172 342 177 c 0
 329 190 308 199 296 199 c 0
 290 199 286 198 283 195 c 0
 280 192 275 183 275 162 c 0
 275 155 276 144 278 131 c 1
 280 144 292 154 305 154 c 0
 313 154 319 151 324 146 c 0
 326 145 334 138 345 136 c 1
 351 141 355 146 355 152 c 0xffff4c
297 254 m 0
 329 254 359 238 381 216 c 0
 393 204 403 189 408 171 c 0
 409 165 410 159 410 153 c 0xffff1c
 410 135 403 116 388 101 c 0
 380 93 370 87 359 81 c 0
 357 80 353 81 351 81 c 0
 334 81 320 86 309 91 c 0
 296 98 288 105 287 106 c 0
 286 107 284 108 283 110 c 1
 286 100 288 90 292 79 c 0
 301 53 314 28 327 15 c 0
 336 6 343 3 349 3 c 0
 380 3 410 18 433 41 c 0
 463 71 482 116 482 154 c 0
 482 223 455 269 414 310 c 0
 383 341 340 371 301 400 c 1
 280 357 261 313 248 261 c 0
 245 250 243 240 240 229 c 1
 241 231 244 233 245 234 c 0
 260 249 278 254 297 254 c 0
305 149 m 0
 293 149 283 138 283 126 c 0
 283 120 286 114 290 110 c 0
 291 109 298 101 311 95 c 0
 321 90 335 86 351 86 c 0
 353 86 356 86 358 86 c 0
 368 91 378 98 385 105 c 0
 399 119 405 136 405 153 c 0
 405 159 404 165 403 170 c 0
 399 187 389 201 377 213 c 0
 356 234 327 249 297 249 c 0
 279 249 262 244 248 230 c 0
 244 226 240 220 237 215 c 0
 237 214 236 214 235 214 c 0
 234 214 232 215 232 216 c 0
 232 217 l 0
 236 232 239 248 243 263 c 0
 256 316 276 361 298 405 c 0
 298 406 299 406 300 406 c 0
 301 406 302 406 302 406 c 0
 342 376 386 346 418 314 c 0
 460 272 487 225 487 154 c 0
 487 114 468 69 437 38 c 0
 413 14 382 -2 349 -2 c 0
 341 -2 333 3 324 12 c 0
 310 26 296 50 287 77 c 0
 275 110 270 146 270 162 c 0
 270 184 276 194 280 198 c 0
 284 202 289 204 296 204 c 0
 310 204 331 195 345 181 c 0
 351 175 356 170 358 164 c 0
 360 160 360 155 360 152 c 0xffff5c
 360 143 354 136 347 131 c 0
 347 131 346 131 345 131 c 0
 332 133 323 140 321 142 c 0
 317 146 311 149 305 149 c 0
289 757 m 0
 257 757 233 756 218 753 c 0
 206 751 200 747 197 744 c 0
 194 741 192 737 190 729 c 0
 187 718 185 702 185 678 c 0
 185 601 214 551 258 507 c 0
 266 499 274 492 283 485 c 1
 320 557 350 623 350 716 c 0xffff8c
 350 732 345 740 341 744 c 0
 334 751 316 757 289 757 c 0
180 678 m 0
 180 702 182 719 185 730 c 0
 187 739 191 745 194 748 c 0
 198 752 204 756 217 758 c 0
 233 761 257 762 289 762 c 0
 317 762 336 756 345 747 c 0
 350 742 355 733 355 716 c 0
 355 621 324 553 286 479 c 0
 286 478 284 478 283 478 c 0
 282 478 282 479 282 479 c 0
 272 487 264 495 255 504 c 0
 211 548 180 599 180 678 c 0
77 -33 m 0
 62 -33 50 -21 50 -6 c 2
 50 16 l 2
 50 17 51 18 52 18 c 0
 73 27 91 39 106 54 c 0
 157 105 174 192 195 275 c 0
 210 337 233 387 257 434 c 1
 189 490 130 561 130 678 c 0
 130 724 134 759 158 783 c 0
 172 797 190 804 208 807 c 0
 231 811 256 811 289 811 c 0
 320 811 355 808 380 783 c 0
 396 767 405 743 405 716 c 0xffff2c
 405 606 366 526 327 450 c 1
 337 443 346 435 356 428 c 0
 440 367 537 296 537 154 c 0
 537 99 512 42 472 2 c 0
 440 -30 398 -51 349 -51 c 0
 324 -51 303 -39 288 -24 c 0
 265 -1 251 29 240 60 c 0
 228 94 221 128 220 153 c 1
 205 103 184 54 145 15 c 0
 133 3 118 -8 102 -18 c 1
 98 -27 88 -33 77 -33 c 0
EndSplineSet
EndChar
StartChar: T
Encoding: 84 84 47
Width: 527
Flags: W
HStem: -29 5<355.283 385.533> 96 5<290.881 310.943> 622 5<112.445 132.396> 667 5<283 375> 717 5<348.158 381> 757 5<105 139.145> 802 5<419.09 442.576> 806 5<93.3298 145.99>
VStem: 50 5<739.121 772.71> 145 5<639.881 660.685> 273 5<26.5087 83.3189> 323 5<53.7344 83.9366> 375 5<33.6639 667> 425 5<20.165 687.526>
LayerCount: 2
Fore
SplineSet
369 672 m 0xfdfc
 372 672 375 672 378 672 c 0
 379 672 380 671 380 670 c 2
 380 37 l 2
 380 36 l 0
 377 31 374 26 371 23 c 0
 371 22 370 22 369 22 c 0
 368 22 368 23 367 23 c 0
 352 33 339 41 324 51 c 0
 323 51 323 52 323 53 c 2
 323 74 l 2
 323 86 313 96 301 96 c 0
 289 96 278 86 278 74 c 2
 278 28 l 1
 300 12 320 -1 342 -15 c 0
 350 -21 361 -24 371 -24 c 0
 402 -24 413 4 425 24 c 1
 425 682 l 2
 425 684 426 688 427 689 c 0
 449 705 462 729 472 759 c 1
 469 772 464 782 456 790 c 0
 450 796 442 802 431 802 c 0xfefc
 421 802 412 797 406 791 c 0
 398 783 394 773 392 762 c 2
 385 720 l 2
 385 719 385 718 384 718 c 0
 380 717 375 717 370 717 c 0
 365 717 359 717 353 718 c 0
 302 727 230 774 178 794 c 0
 159 801 142 806 123 806 c 0
 99 806 81 804 68 791 c 0
 59 782 55 769 55 757 c 0
 55 752 55 747 56 742 c 0
 63 702 76 657 108 632 c 0
 112 629 118 627 123 627 c 0
 135 627 145 638 145 650 c 0
 145 657 142 664 137 668 c 0
 118 683 107 714 101 750 c 0
 100 755 99 759 102 760 c 0
 105 761 113 762 123 762 c 0
 133 762 146 758 162 752 c 0
 219 730 283 685 345 674 c 0
 353 673 361 672 369 672 c 0xfdfc
328 55 m 1
 342 46 355 37 369 28 c 0
 371 31 373 34 375 38 c 1
 375 667 l 1
 373 667 371 667 369 667 c 0
 361 667 352 668 344 669 c 0
 280 680 217 726 160 748 c 0
 145 754 132 757 123 757 c 0
 115 757 108 756 105 755 c 0
 105 754 106 753 106 751 c 0
 112 715 123 685 140 671 c 0
 146 666 150 659 150 650 c 0
 150 635 138 622 123 622 c 0
 116 622 110 625 105 629 c 0
 72 656 59 701 52 741 c 0
 51 746 50 752 50 757 c 0
 50 770 53 783 64 794 c 0
 78 808 99 811 123 811 c 0xfdfc
 143 811 161 806 180 799 c 0
 204 790 228 778 251 766 c 0
 289 747 326 728 354 723 c 0
 360 722 365 722 370 722 c 0
 374 722 378 721 381 722 c 1
 387 763 l 2
 389 775 394 786 403 795 c 0
 410 802 420 807 431 807 c 0
 444 807 453 801 460 794 c 0
 469 785 474 773 477 759 c 0
 477 758 l 0
 467 727 452 702 430 686 c 1
 430 682 l 1
 430 23 l 2
 430 22 l 0
 417 2 406 -29 371 -29 c 0
 360 -29 348 -25 339 -19 c 0
 317 -4 297 9 274 25 c 0
 273 25 273 26 273 27 c 2
 273 74 l 2
 273 89 286 101 301 101 c 0
 316 101 328 89 328 74 c 2
 328 55 l 1
EndSplineSet
EndChar
StartChar: U
Encoding: 85 85 48
Width: 827
Flags: HW
LayerCount: 2
Fore
SplineSet
276 736 m 0
 298 736 310 702 310 673 c 0
 310 576 288 482 288 385 c 0
 288 258 298 -23 430 -23 c 0
 505 -23 555 27 585 81 c 0
 585 82 586 82 587 82 c 0
 593 82 627 14 632 9 c 0
 650 -9 674 -17 699 -17 c 0
 717 -17 746 -14 754 -0 c 2
 770 28 l 2
 772 31 772 35 772 39 c 0
 772 51 762 61 750 61 c 0
 742 61 734 56 730 50 c 2
 720 31 l 2
 718 27 701 28 698 28 c 0
 655 28 614 105 614 146 c 0
 614 232 655 335 655 447 c 0
 655 548 642 803 585 803 c 0
 536 803 532 503 532 431 c 0
 532 326 541 234 566 148 c 0
 566 147 l 0
 566 85 488 21 430 21 c 0
 343 21 333 303 333 385 c 0
 333 482 354 576 354 673 c 0
 354 725 329 781 277 781 c 0
 223 781 227 708 183 708 c 0
 151 708 103 739 99 774 c 0
 98 785 88 793 77 793 c 0
 65 793 55 783 55 771 c 0
 55 711 128 663 182 663 c 0
 243 663 236 736 276 736 c 0
277 786 m 0
 332 786 359 727 359 673 c 0
 359 576 338 482 338 385 c 0
 338 308 348 26 430 26 c 0
 502 26 538 87 561 147 c 1
 536 233 527 326 527 431 c 0
 527 510 530 808 585 808 c 0
 648 808 660 551 660 447 c 0
 660 335 648 232 619 146 c 1
 631 107 649 33 698 33 c 0
 703 33 710 34 716 35 c 1
 726 53 l 2
 731 61 740 66 750 66 c 0
 765 66 777 54 777 39 c 0
 777 34 776 29 774 25 c 2
 758 -3 l 2
 749 -18 720 -22 699 -22 c 0
 636 -22 608 27 587 74 c 1
 556 21 505 -28 430 -28 c 0
 294 -28 283 254 283 385 c 0
 283 482 305 576 305 673 c 0
 305 700 294 731 276 731 c 0
 263 731 249 689 240 680 c 0
 224 664 204 658 182 658 c 0
 125 658 50 708 50 771 c 0
 50 786 62 798 77 798 c 0
 108 798 105 758 123 740 c 0
 140 723 166 713 183 713 c 0
 223 713 222 786 277 786 c 0
EndSplineSet
EndChar
StartChar: V
Encoding: 86 86 49
Width: 833
Flags: W
HStem: 13 5<376.852 401.454> 527 5<669.4 722.512> 576 5<676.48 714.967> 655 5<67.6044 87.2955 613.604 632.219> 795 5<663.225 711.591> 817 5<159.13 192.672>
VStem: 50 5<672.924 698.844> 383 5<89.0694 106.158> 596 5<621.725 642.119> 728 5<608.406 680.23> 778 5<604.234 685.549>
LayerCount: 2
Fore
SplineSet
385 89 m 0
 384 89 383 89 383 90 c 0
 379 100 375 112 371 125 c 0
 357 171 343 233 329 300 c 0
 298 450 270 621 262 671 c 0
 255 722 231 782 192 816 c 0
 188 817 184 817 179 817 c 0
 108 817 60 743 55 685 c 0
 55 684 55 684 55 683 c 0
 55 671 65 660 77 660 c 0
 89 660 99 669 100 681 c 0
 102 702 114 732 133 751 c 0
 144 762 157 769 171 771 c 0
 172 771 l 0
 173 771 174 771 174 770 c 0
 196 744 212 700 217 664 c 0
 225 614 253 443 285 291 c 0
 299 223 313 160 328 112 c 0
 334 91 341 73 348 58 c 0
 353 46 358 36 366 28 c 0
 371 23 378 18 389 18 c 0
 406 18 417 30 422 43 c 0
 425 50 427 59 429 69 c 0
 437 108 441 165 445 226 c 0
 451 317 458 424 480 517 c 0
 498 592 525 657 566 698 c 0
 596 728 635 747 686 750 c 0
 687 750 l 0
 688 750 688 749 689 748 c 0
 700 734 711 721 719 707 c 0
 728 692 733 677 733 663 c 0
 733 661 733 660 733 658 c 0
 731 639 733 611 729 595 c 0
 727 588 725 585 723 583 c 0
 721 581 714 576 698 576 c 0
 675 576 668 582 667 583 c 0
 665 585 663 590 661 601 c 0
 658 613 655 631 640 647 c 0
 636 651 629 655 623 655 c 0
 611 655 601 644 601 632 c 0
 601 626 603 621 607 617 c 0
 613 611 615 601 618 588 c 0
 620 578 624 563 636 551 c 0
 650 537 670 532 698 532 c 0
 721 532 741 537 755 551 c 0
 773 569 776 596 777 629 c 0
 777 638 777 646 778 654 c 0
 778 657 778 660 778 663 c 0
 778 688 769 711 758 730 c 0
 743 755 727 773 710 795 c 0
 706 795 702 795 698 795 c 0
 629 795 576 771 535 730 c 0
 484 679 455 606 436 527 c 0
 413 428 406 320 400 229 c 0
 397 173 394 125 388 91 c 0
 388 90 386 89 385 89 c 0
77 655 m 0
 62 655 50 668 50 683 c 0
 50 684 50 684 50 685 c 0
 55 744 104 822 179 822 c 0
 184 822 189 822 194 821 c 0
 195 820 l 0
 235 785 260 724 267 672 c 0
 275 622 303 451 334 301 c 0
 348 234 362 171 376 126 c 0
 379 117 381 109 384 101 c 1
 389 134 392 180 395 231 c 0
 401 321 408 430 431 528 c 0
 450 607 479 681 531 733 c 0
 573 775 628 800 698 800 c 0
 702 800 707 800 711 800 c 0
 712 800 713 800 713 799 c 0
 730 776 747 758 762 732 c 0
 773 713 783 689 783 663 c 0
 783 660 783 657 783 654 c 0
 782 646 782 637 782 628 c 0
 781 595 778 567 758 547 c 0
 743 532 722 527 698 527 c 0
 670 527 648 531 632 547 c 0
 617 562 616 578 613 590 c 0
 610 603 609 608 604 613 c 0
 599 618 596 625 596 632 c 0
 596 647 608 660 623 660 c 0
 631 660 638 656 643 651 c 0
 660 633 663 614 666 601 c 0
 668 589 671 586 671 586 c 0
 672 585 678 581 698 581 c 0
 714 581 718 585 719 586 c 0
 720 587 723 590 724 596 c 0
 727 611 726 639 728 658 c 0
 728 660 728 661 728 663 c 0
 728 676 724 689 715 704 c 0
 707 717 696 731 685 745 c 1
 635 742 599 724 570 695 c 0
 530 655 503 590 485 516 c 0
 462 421 456 313 450 219 c 0
 446 159 442 107 434 68 c 0
 432 58 429 49 426 41 c 0
 420 28 409 13 389 13 c 0
 376 13 367 20 362 25 c 0
 353 34 348 43 343 55 c 0
 336 70 330 89 324 110 c 0
 309 158 294 222 280 290 c 0
 248 442 220 614 212 664 c 0
 207 699 191 741 171 766 c 1
 158 764 147 757 137 747 c 0
 119 729 107 700 105 681 c 0
 104 667 91 655 77 655 c 0
EndSplineSet
EndChar
StartChar: W
Encoding: 87 87 50
Width: 920
Flags: W
HStem: -44 5<548.899 584.18> -31 5<326.083 409.542> 6 5<561.812 576.783> 9 5<575.048 602.378> 18 5<333.955 403.507> 503 5<668.608 724.188> 507 5<718.562 749> 553 5<674.372 739.672> 557 5<715.703 742> 604 5<832.865 852.396> 675 5<270.121 299.534> 685 5<68.4466 87.8145> 726 5<270.721 287.193> 758 5<154.486 177.514> 761 5<662.999 677> 798 5<329.501 349.745> 807 5<144.203 192.594> 810 5<656.323 692.627>
VStem: 50 5<703.447 723.275> 233 5<57.5423 164.294> 283 5<62.3856 166.336> 364 5<708.72 782.344> 498 4<27.8428 38> 539 5<303.562 415.931> 542 5<623.948 670.852> 547 5<33.4084 146.625> 592 5<628.325 664.426> 756 5<264.929 424.375> 806 5<254.348 428.174> 865 5<569.552 591.119>
LayerCount: 2
Fore
SplineSet
799 516 m 0xc87dbf7c
 799 517 799 518 800 518 c 0
 808 523 815 529 823 533 c 1
 858 564 l 2
 863 568 865 574 865 581 c 0
 865 593 855 604 843 604 c 0
 837 604 831 602 827 598 c 2
 796 569 l 2
 796 569 795 568 794 568 c 0
 793 568 791 569 791 570 c 0
 782 624 766 696 746 743 c 0
 738 763 728 780 715 793 c 0
 706 802 694 810 678 810 c 0
 648 810 622 796 603 777 c 0
 586 760 573 740 564 719 c 0
 553 693 547 667 547 644 c 0
 547 643 l 0
 549 606 564 575 587 552 c 0
 616 523 655 508 697 508 c 0xcc7d7ebc
 707 508 717 509 727 511 c 0
 731 512 735 512 741 512 c 0
 745 512 748 511 752 511 c 0
 753 511 754 510 754 509 c 0
 757 452 761 399 761 337 c 0
 761 297 759 256 754 218 c 0
 745 149 724 90 687 53 c 0
 662 28 628 11 580 9 c 0xda793ebc
 576 7 567 6 565 6 c 0
 563 6 561 6 560 7 c 0
 553 14 550 29 547 41 c 0
 547 42 l 2
 539 389 l 1
 483 91 l 2
 483 90 482 90 482 90 c 0
 476 86 471 80 467 76 c 0
 457 66 451 58 444 49 c 0
 436 39 430 31 417 25 c 0
 409 21 397 18 378 18 c 0
 351 18 331 20 318 23 c 0
 307 26 301 30 297 34 c 0
 289 42 283 59 283 98 c 0
 283 211 303 322 323 434 c 0
 342 540 362 649 364 761 c 0xe87b3f7c
 364 763 364 764 364 765 c 0
 364 772 364 776 362 781 c 0
 360 788 352 798 340 798 c 0
 337 798 335 798 333 797 c 0
 323 794 320 786 317 780 c 0
 309 763 302 740 290 728 c 0
 289 727 288 726 286 726 c 0
 285 726 l 0
 284 727 281 726 279 726 c 1
 277 726 261 731 254 738 c 0
 239 753 229 776 214 791 c 0
 205 800 193 807 177 807 c 0
 160 807 146 806 135 802 c 0
 117 795 109 782 97 770 c 0
 93 766 89 762 85 758 c 0
 78 751 73 745 69 739 c 0
 66 734 63 731 61 728 c 0
 57 724 55 719 55 713 c 0
 55 701 66 690 78 690 c 0
 92 690 99 703 105 712 c 0
 109 718 113 724 119 729 c 0
 127 736 136 745 142 752 c 0
 145 755 147 758 151 760 c 0
 154 761 162 763 177 763 c 0
 179 763 179 762 182 759 c 0
 186 755 192 746 198 737 c 0
 214 713 236 684 275 682 c 0
 279 681 282 680 285 680 c 0
 295 680 304 683 311 688 c 0
 313 689 l 0
 314 689 315 687 315 686 c 0
 299 492 238 302 238 98 c 0
 238 57 243 24 265 2 c 0
 290 -23 327 -26 378 -26 c 0
 401 -26 420 -23 435 -16 c 0
 456 -7 469 9 482 25 c 0
 487 32 493 37 498 43 c 0
 498 43 498 44 499 44 c 0
 502 44 502 38 502 35 c 0
 508 13 514 -9 529 -24 c 0
 538 -33 549 -39 565 -39 c 0
 573 -39 581 -38 589 -35 c 0
 644 -31 687 -11 719 21 c 0
 767 69 789 139 799 212 c 0
 805 253 806 296 806 337 c 0
 806 402 802 454 799 513 c 0
 799 514 799 515 799 516 c 0xc87dbf7c
697 558 m 0xc97b3e3c
 704 558 711 559 718 560 c 0
 726 561 733 562 740 562 c 0
 741 562 741 562 742 562 c 1
 734 612 718 681 700 723 c 0
 693 740 685 753 680 758 c 0xc8fd3e3c
 678 760 677 761 677 761 c 0
 663 761 650 754 638 742 c 0
 627 731 617 715 610 699 c 0
 601 679 597 657 597 644 c 0
 600 592 644 558 697 558 c 0xc97b3e3c
697 553 m 0xc9793e3c
 642 553 595 589 592 644 c 0
 592 658 597 680 606 701 c 0
 613 718 623 734 634 745 c 0
 647 758 662 766 677 766 c 0
 678 766 679 765 683 761 c 0
 689 755 698 742 705 725 c 0
 724 682 739 611 747 560 c 0
 747 559 l 0
 747 556 743 557 740 557 c 0xc8fb3e3c
 733 557 726 556 719 555 c 0
 712 554 704 553 697 553 c 0xc9793e3c
843 609 m 0
 858 609 870 596 870 581 c 0
 870 573 867 566 861 561 c 2
 826 529 l 2
 819 525 811 519 804 515 c 1
 805 501 805 487 806 474 c 0
 809 431 811 387 811 337 c 0
 811 295 810 252 804 211 c 0
 794 137 772 67 723 18 c 0
 690 -15 646 -36 590 -40 c 0
 582 -43 573 -44 565 -44 c 0
 548 -44 535 -38 525 -28 c 0
 509 -12 504 10 497 33 c 0
 497 34 l 2
 497 35 l 1
 493 31 490 27 486 22 c 0
 473 6 459 -11 437 -21 c 0
 421 -28 402 -31 378 -31 c 0
 327 -31 288 -28 262 -2 c 0
 238 22 233 57 233 98 c 0
 233 301 293 490 310 682 c 1
 303 678 294 675 285 675 c 0
 282 675 278 676 274 677 c 0
 232 679 210 710 193 736 c 0
 187 745 181 752 178 755 c 0
 177 756 176 758 176 758 c 0xcc7d7ebc
 162 758 155 756 153 755 c 0
 150 754 147 750 144 747 c 0
 138 741 130 732 122 725 c 0
 112 716 107 704 98 694 c 0
 93 689 86 685 78 685 c 0
 63 685 50 698 50 713 c 0
 50 720 52 727 57 732 c 0
 59 734 62 738 65 742 c 0
 69 747 74 755 81 762 c 0
 85 766 90 769 94 773 c 0
 107 786 114 800 134 807 c 0
 146 811 160 812 177 812 c 0
 195 812 208 803 217 794 c 0
 232 779 242 756 257 741 c 0
 264 734 270 731 279 731 c 2
 279 731 282 731 285 731 c 0
 297 741 304 766 312 783 c 0
 316 791 324 803 340 803 c 0
 349 803 356 798 360 794 c 0
 365 789 366 785 367 782 c 0
 369 776 369 771 369 765 c 0
 369 763 369 763 369 761 c 0
 367 647 347 539 328 432 c 0
 308 320 288 210 288 98 c 0
 288 59 294 43 300 37 c 0
 303 34 309 31 319 28 c 0
 332 25 352 23 378 23 c 0
 419 23 426 34 443 56 c 0
 448 63 455 71 464 80 c 0
 468 84 473 89 479 93 c 1
 539 414 l 2
 539 415 540 416 541 416 c 0
 542 416 544 415 544 414 c 0
 547 290 549 166 552 42 c 1
 554 34 557 25 559 19 c 0
 561 14 563 11 565 11 c 0xe87bbf7c
 566 11 570 11 575 13 c 0
 576 13 578 14 579 14 c 0
 627 16 659 32 684 57 c 0
 720 93 740 151 749 219 c 0
 754 257 756 297 756 337 c 0
 756 398 752 451 749 507 c 0
 746 507 744 507 741 507 c 0xda793f7c
 735 507 730 507 727 506 c 0
 717 504 707 503 697 503 c 0
 654 503 613 519 583 549 c 0
 559 573 544 605 542 643 c 0
 542 644 l 0
 542 668 548 695 560 721 c 0
 569 742 582 764 599 781 c 0
 619 801 646 815 678 815 c 0xcc797ebc
 696 815 709 807 719 797 c 0
 733 783 741 765 750 745 c 0
 770 698 787 629 796 575 c 1
 824 601 l 2
 829 605 836 609 843 609 c 0
EndSplineSet
EndChar
StartChar: X
Encoding: 88 88 51
Width: 941
Flags: W
HStem: -52 5<109.549 143.814> -2 5<716.995 797.476> 48 5<714.346 792.036> 175 5<773.559 822> 496 5<118.452 138.396> 749 5<238.018 305.933> 771 5<680.43 725> 798 5<233.637 310.162> 821 5<689.553 752.138>
VStem: 50 5<53.0162 85.1984> 86 5<602.631 702.772> 100 5<515.406 531> 136 5<605.106 693.278> 151 5<513.924 542.828> 383 5<460 585> 389 5<460 634.459> 439 5<385.422 411.577 469.581 498.629> 487 5<334.372 355 413.135 469.879> 725 6<730.976 770.98> 755 5<142.075 161.553> 776 5<725.384 797.473> 886 5<86.294 126.199>
LayerCount: 2
Fore
SplineSet
297 241 m 1
 241 208 188 173 144 134 c 0
 126 117 111 94 105 72 c 0
 106 65 110 46 115 31 c 0
 119 19 125 8 128 3 c 1
 139 5 151 11 165 25 c 0
 191 51 218 99 240 140 c 0
 252 163 263 184 276 200 c 1
 297 241 l 1
303 250 m 0
 304 250 305 248 305 247 c 0
 305 246 l 2
 281 198 l 2
 280 197 l 0
 267 180 254 156 241 132 c 0
 220 93 195 48 169 22 c 0
 154 7 140 0 127 -2 c 0
 126 -2 125 -2 125 -1 c 0
 121 4 115 15 110 29 c 0
 104 45 101 64 100 71 c 0
 100 72 l 0
 106 95 121 120 140 138 c 0
 186 179 242 214 301 249 c 0
 303 250 l 0
725 771 m 1
 718 771 712 770 705 770 c 0
 650 770 612 751 582 721 c 0
 551 690 529 646 515 596 c 0
 499 538 493 473 492 420 c 1
 535 448 574 479 608 513 c 0
 668 573 711 645 725 741 c 0
 725 744 726 748 726 753 c 0
 726 759 725 765 725 771 c 1
705 775 m 0
 712 775 721 776 728 776 c 0
 731 776 730 773 730 770 c 0
 730 764 731 759 731 753 c 0
 731 748 731 744 730 740 c 0
 716 643 673 570 612 509 c 0
 577 474 535 443 491 414 c 0
 491 414 491 413 490 413 c 0
 489 413 487 415 487 416 c 0
 487 471 493 538 510 598 c 0
 524 648 546 693 578 725 c 0
 609 756 649 775 705 775 c 0
106 531 m 0
 106 530 105 529 105 528 c 0
 105 512 115 501 129 501 c 0
 141 501 151 512 151 524 c 0
 151 526 151 527 151 529 c 0
 151 530 151 532 151 533 c 0
 151 535 151 537 150 539 c 0
 139 578 136 619 136 664 c 2
 136 688 l 2
 136 689 l 0
 139 696 143 704 151 712 c 0
 164 725 184 737 202 743 c 0
 224 751 249 754 276 754 c 0
 313 754 325 746 332 739 c 0
 338 733 342 725 348 712 c 0
 355 697 364 675 383 657 c 0
 383 657 384 657 384 656 c 2
 394 586 l 2
 394 585 l 2
 388 460 l 2
 388 459 l 2
 339 324 l 2
 339 323 339 323 338 323 c 0
 257 277 176 230 110 172 c 0
 82 147 63 112 55 77 c 0
 55 76 55 75 55 74 c 0
 55 59 60 38 68 15 c 0
 74 -3 82 -22 95 -35 c 0
 101 -41 110 -47 123 -47 c 0
 154 -47 179 -31 200 -10 c 0
 234 24 260 71 282 112 c 0
 297 139 307 160 318 172 c 1
 368 272 l 1
 375 291 l 2
 375 292 375 292 376 292 c 0
 397 304 420 316 441 329 c 0
 442 330 l 0
 443 330 444 329 444 328 c 0
 455 237 492 147 555 84 c 0
 601 38 661 8 733 4 c 0
 742 4 752 3 761 3 c 0
 803 3 835 10 858 33 c 0
 877 52 886 80 886 116 c 0
 886 123 883 127 882 129 c 0
 877 137 870 141 862 146 c 0
 852 152 841 159 831 165 c 0
 828 167 825 167 822 168 c 2
 786 174 l 2
 785 174 784 175 783 175 c 0
 771 175 760 164 760 152 c 0
 760 141 768 132 779 130 c 2
 810 125 l 2
 811 124 l 0
 820 119 831 112 839 107 c 0
 840 107 841 105 841 104 c 0
 839 83 833 72 826 65 c 0
 813 52 788 48 760 48 c 0
 752 48 744 48 736 48 c 0
 676 51 626 77 587 116 c 0
 528 175 493 267 487 356 c 0
 487 357 487 358 488 358 c 0
 621 441 749 549 775 734 c 0
 776 741 776 747 776 753 c 0
 776 764 775 777 775 788 c 0
 775 796 772 804 766 810 c 0
 757 819 747 821 731 821 c 0
 722 821 714 819 705 819 c 0
 638 819 585 795 546 756 c 0
 507 717 482 665 467 610 c 0
 448 542 442 470 442 412 c 0
 441 403 441 393 441 384 c 0
 441 383 441 382 440 382 c 0
 429 375 417 368 405 361 c 0
 404 361 l 0
 403 361 401 362 401 363 c 0
 401 364 l 2
 433 451 l 1
 439 585 l 1
 426 680 l 1
 422 683 417 686 413 690 c 0
 400 703 394 717 387 733 c 0
 382 745 376 759 364 771 c 0
 346 789 318 798 276 798 c 0
 246 798 216 795 187 785 c 0
 148 771 101 741 91 695 c 1
 91 692 l 1
 91 664 l 2
 91 617 93 575 105 532 c 0
 106 531 l 0
780 788 m 0
 780 777 781 764 781 753 c 0
 781 747 781 740 780 733 c 0
 754 547 626 439 492 355 c 1
 498 267 532 178 590 120 c 0
 628 82 677 56 736 53 c 0
 744 53 753 53 760 53 c 0
 787 53 810 56 822 68 c 0
 828 74 833 84 835 103 c 1
 827 108 817 115 809 120 c 1
 778 125 l 2
 765 127 755 138 755 152 c 0
 755 167 768 180 783 180 c 0
 785 180 786 179 787 179 c 2
 823 173 l 2
 827 172 830 171 833 169 c 0
 844 162 857 155 868 148 c 0
 875 144 882 139 887 131 c 0
 888 129 891 124 891 116 c 0
 891 79 881 49 861 29 c 0
 846 14 827 6 808 2 c 0
 793 -1 777 -2 761 -2 c 0
 752 -2 742 -1 733 -1 c 0
 560 8 460 167 440 323 c 1
 420 311 400 300 380 289 c 1
 373 270 l 2
 323 170 l 2
 322 169 l 0
 312 158 296 129 282 103 c 0
 261 64 237 19 204 -14 c 0
 183 -35 156 -52 123 -52 c 0
 108 -52 97 -44 91 -38 c 0
 77 -24 69 -5 63 13 c 0
 55 36 50 58 50 74 c 0
 50 75 50 77 50 78 c 0
 58 114 78 150 107 176 c 0
 173 234 254 280 335 326 c 1
 383 460 l 1
 389 585 l 1
 379 654 l 1
 359 673 350 694 343 710 c 0
 337 723 333 731 328 736 c 0
 322 742 312 749 276 749 c 0
 249 749 225 746 204 738 c 0
 187 732 168 721 155 708 c 0
 148 701 143 694 141 688 c 1
 141 664 l 2
 141 619 144 580 155 541 c 0
 156 539 156 536 156 533 c 0
 156 532 156 530 156 529 c 0
 156 528 156 526 156 524 c 0
 156 509 144 496 129 496 c 0
 112 496 100 510 100 528 c 0
 100 529 101 530 101 531 c 0
 89 575 86 617 86 664 c 2
 86 692 l 1
 86 695 l 2
 86 696 l 0
 97 745 145 776 185 790 c 0
 215 801 246 803 276 803 c 0
 319 803 347 795 367 775 c 0
 393 749 393 718 417 694 c 0
 421 690 425 687 429 684 c 0
 430 684 430 683 430 682 c 2
 444 586 l 2
 444 585 l 2
 438 450 l 2
 438 449 l 2
 409 369 l 1
 418 374 427 379 436 385 c 1
 436 394 436 403 437 412 c 0
 437 471 443 543 462 611 c 0
 478 666 503 720 543 760 c 0
 582 799 637 824 705 824 c 0
 714 824 722 826 731 826 c 0
 747 826 760 824 770 814 c 0
 777 807 780 797 780 788 c 0
EndSplineSet
EndChar
StartChar: Y
Encoding: 89 89 52
Width: 745
Flags: W
HStem: -20 5<468.958 544.001> 30 5<471.881 551.892> 71 5<411.025 428.062> 75 4<401.408 402.901> 207 5<383.561 411.509> 266 8<405.626 489.146> 316 5<414.068 424.953 427.2 475.715> 662 5<152.659 200.162> 714 5<598.552 638> 764 5<589.553 665.161> 780 5<260.684 284.482> 801 5<67.057 87.1186>
VStem: 50 5<749.411 788.937> 100 5<754.497 788.319> 255 5<495.646 715.597> 257 5<552.077 717> 305 5<500.234 714.597> 307 5<555.938 753.191> 335 5<107.886 152.463> 385 5<112.454 143.352> 390 4<100.001 107.829> 395 4<155.378 159> 407 5<122.826 134.42> 457 5<109.649 143.125> 523 5<550.108 634.53> 532 5<665 697.898> 573 16<506.318 548.099> 573 5<554.509 629.695> 582 5<494.508 513.602 654.111 692.085> 599 5<436.069 441.776> 602 5<52.457 159> 640 5<641.031 714> 652 5<37.043 163> 690 5<634.003 731.264>
LayerCount: 2
Fore
SplineSet
397 152 m 1xcffc37c1c0
 395 149 391 141 390 137 c 0
 390 128 390 119 392 111 c 1
 395 117 401 121 407 124 c 0
 407 125 407 125 407 125 c 2
 407 125 405 135 401 144 c 0
 400 147 399 149 397 152 c 1xcffc37c1c0
392 100 m 0
 391 100 390 101 390 102 c 0xcffc2fc1c0
 387 112 385 124 385 137 c 0xcffc37c1c0
 385 143 392 154 395 158 c 0
 395 159 396 159 397 159 c 0
 398 159 399 159 399 158 c 0
 401 155 404 151 406 146 c 0
 410 137 412 126 412 125 c 0
 412 123 411 121 410 120 c 2
 406 118 l 2
 400 115 395 109 394 102 c 0xcffc2fc1c0
 394 101 393 100 392 100 c 0
638 714 m 1
 632 714 626 713 620 713 c 0
 619 713 617 713 616 713 c 0
 614 714 609 714 607 714 c 0
 603 714 601 714 598 711 c 0
 595 708 592 702 590 695 c 0
 588 689 587 681 587 674 c 0xcffc27cbc0
 587 668 588 664 589 660 c 0
 589 658 l 0xcffc27e1c0
 581 641 578 620 578 598 c 0
 578 580 580 558 582 539 c 0xcffc27d9c0
 583 526 585 505 589 495 c 0
 590 494 592 492 592 490 c 2
 602 447 l 1xcffc27e3c0
 618 485 624 531 630 580 c 0
 632 601 634 622 638 643 c 0
 639 650 640 657 640 666 c 0
 640 681 638 699 638 714 c 1
620 718 m 0
 627 718 635 719 641 719 c 0
 642 719 643 717 643 716 c 0
 643 700 645 682 645 666 c 0
 645 657 644 649 643 642 c 0
 639 621 637 600 635 579 c 0
 629 527 623 478 604 438 c 0xcffc27c5c0
 604 437 603 436 602 436 c 0xcffc27c3c0
 601 436 599 437 599 438 c 2
 587 488 l 2
 586 489 586 491 585 492 c 0
 585 492 583 498 581 506 c 0
 578 521 577 533 576 548 c 0
 574 565 573 582 573 598 c 0xcffc27ddc0
 573 620 576 642 584 660 c 0
 583 664 582 668 582 674 c 0
 582 689 588 707 595 714 c 0
 598 717 601 719 607 719 c 0
 611 719 615 718 620 718 c 0
307 616 m 0xeffc67c1c0
 307 621 307 626 307 631 c 0
 307 661 308 686 308 716 c 0
 308 740 307 758 295 770 c 0
 290 775 283 780 273 780 c 0
 269 780 265 779 262 778 c 0
 255 776 250 772 244 768 c 0
 228 757 208 739 180 712 c 0
 180 712 180 712 179 712 c 0
 178 712 l 0
 150 713 127 720 114 733 c 0
 106 741 100 753 100 773 c 2
 100 779 l 2
 100 791 89 801 77 801 c 0
 65 801 55 791 55 779 c 2
 55 773 l 2
 55 743 65 718 82 701 c 0
 110 673 151 667 188 667 c 0
 191 667 195 667 198 667 c 0
 221 690 246 714 259 724 c 0
 259 724 260 724 261 724 c 0
 264 724 263 720 263 717 c 0
 263 687 262 662 262 631 c 0
 262 627 262 622 262 618 c 0xeffd67c1c0
 261 596 260 573 260 551 c 0
 260 472 271 393 328 329 c 0
 343 312 356 293 378 282 c 0
 389 277 403 274 418 274 c 0
 429 272 441 271 452 271 c 0
 497 271 540 289 574 317 c 0
 574 317 574 317 575 317 c 0
 576 317 578 316 578 315 c 0
 586 264 593 212 601 160 c 0
 601 159 l 2
 607 80 l 2
 607 54 l 2xeffe27d3c0
 607 52 605 51 604 50 c 0
 586 32 536 30 499 30 c 0
 454 30 421 47 402 75 c 0xdffc27c5c0
 402 75 401 75 401 76 c 0xeffc27c5c0
 401 77 403 79 404 79 c 0
 405 79 l 0xdffc27c5c0
 408 77 413 76 417 76 c 0
 421 76 424 76 427 78 c 2
 444 86 l 1
 448 90 449 96 451 101 c 0
 453 105 457 114 457 125 c 0
 457 138 453 151 447 164 c 0
 442 175 437 185 428 194 c 0
 422 200 412 207 398 207 c 0
 383 207 373 200 365 192 c 0
 356 183 350 173 346 163 c 0
 343 155 340 146 340 137 c 0
 340 93 355 56 381 30 c 0
 410 1 452 -15 499 -15 c 0
 504 -15 509 -14 514 -14 c 0
 562 -13 608 -10 636 18 c 0
 643 25 648 33 652 42 c 1
 652 81 l 1
 646 163 l 1
 636 231 630 299 616 364 c 0
 617 366 l 0
 623 376 629 387 634 398 c 0
 678 471 674 548 688 634 c 0
 690 645 690 656 690 666 c 0
 690 685 688 706 688 725 c 0
 688 734 685 746 677 754 c 0
 670 761 662 763 655 764 c 0
 652 764 649 764 647 764 c 0
 639 764 631 763 623 763 c 0
 618 764 608 764 607 764 c 0
 570 764 550 737 542 709 c 0
 539 698 537 686 537 675 c 0
 537 672 538 668 538 665 c 0
 537 664 l 0
 530 642 528 619 528 598 c 0
 528 574 530 553 532 531 c 0
 534 511 536 487 545 471 c 0
 546 470 l 2
 568 376 l 2
 568 375 l 0
 568 374 567 374 567 374 c 0
 564 370 560 366 556 362 c 0
 527 333 490 316 451 316 c 0
 442 316 433 317 425 319 c 0
 424 319 423 318 422 318 c 0
 392 318 386 331 372 347 c 0
 369 351 365 355 361 359 c 0
 315 411 305 479 305 555 c 0xeffca7c3c0
 305 575 306 595 307 616 c 0xeffc67c1c0
313 716 m 0
 313 686 312 661 312 631 c 0
 312 626 312 621 312 616 c 0xeffd67c1c0
 311 595 310 575 310 555 c 0
 310 480 320 412 365 362 c 0
 370 356 374 352 378 347 c 0
 386 338 394 329 403 326 c 0
 407 325 412 323 422 323 c 0
 423 323 424 324 425 324 c 0
 426 323 l 0
 434 321 442 321 451 321 c 0
 488 321 525 337 553 365 c 0
 556 368 560 372 563 376 c 1
 541 468 l 1
 529 490 528 519 526 545 c 0
 524 562 523 579 523 598 c 0
 523 620 524 642 532 665 c 0
 532 668 532 672 532 675 c 0
 532 687 534 698 537 710 c 0
 545 739 567 769 607 769 c 0
 612 769 617 769 623 768 c 0
 631 768 639 769 647 769 c 0
 650 769 652 769 655 769 c 0
 662 768 672 766 681 757 c 0
 690 748 693 735 693 725 c 0
 693 706 695 685 695 666 c 0
 695 655 695 644 693 633 c 0
 690 612 687 590 684 568 c 0
 677 511 671 450 638 396 c 0
 633 385 628 374 622 364 c 1
 636 299 641 232 651 164 c 0
 657 81 l 2
 657 42 l 2
 657 41 l 0
 653 31 647 22 640 15 c 0
 610 -15 560 -18 508 -19 c 0
 505 -19 502 -20 499 -20 c 0
 451 -20 409 -5 378 26 c 0
 350 54 335 92 335 137 c 0
 335 147 337 155 341 164 c 0
 345 175 352 187 361 196 c 0
 369 204 381 212 398 212 c 0
 413 212 424 205 431 198 c 0
 441 188 447 177 452 166 c 0
 458 152 462 139 462 125 c 0
 462 110 458 103 455 96 c 0
 453 91 451 87 447 83 c 0
 446 82 l 2
 429 73 l 2
 425 71 421 71 417 71 c 0
 415 71 413 71 411 71 c 1
 429 49 459 35 499 35 c 0
 535 35 586 36 602 55 c 1
 602 80 l 1
 596 159 l 1
 588 209 581 260 573 310 c 1
 539 283 497 266 452 266 c 0
 441 266 429 267 417 269 c 0
 401 270 388 272 376 278 c 0
 353 289 340 308 324 326 c 0
 266 391 255 472 255 551 c 0xeffea7d3c0
 255 574 256 596 257 618 c 0
 257 622 257 627 257 631 c 0
 257 662 258 687 258 717 c 1
 245 706 222 682 201 662 c 0
 201 662 200 662 199 662 c 0
 195 662 192 662 188 662 c 0
 151 662 109 668 79 698 c 0
 61 716 50 742 50 773 c 2
 50 779 l 2
 50 794 62 806 77 806 c 0
 92 806 105 794 105 779 c 2
 105 773 l 2
 105 754 111 744 118 737 c 0
 129 726 151 719 178 717 c 1
 205 744 225 761 241 772 c 0
 250 778 259 785 273 785 c 0
 284 785 293 780 299 774 c 0
 313 760 313 740 313 716 c 0
EndSplineSet
EndChar
StartChar: Z
Encoding: 90 90 53
Width: 484
Flags: HW
LayerCount: 2
Fore
SplineSet
434 443 m 0
 434 408 345 344 323 320 c 1
 336 290 353 252 353 221 c 0
 353 185 358 144 358 108 c 0
 358 25 334 -50 248 -50 c 0
 239 -50 229 -49 219 -47 c 0
 213 -48 201 -49 201 -49 c 0
 139 -49 131 16 131 73 c 2
 131 77 l 2
 131 151 170 240 210 282 c 2
 256 330 l 1
 237 363 213 390 179 406 c 0
 170 410 164 420 164 431 c 0
 164 535 298 603 324 688 c 0
 331 710 338 731 346 753 c 1
 317 741 286 723 248 723 c 0
 198 723 155 741 110 747 c 1
 112 736 116 723 116 710 c 0
 116 695 104 683 89 683 c 0
 58 683 50 746 50 776 c 0
 50 791 62 803 77 803 c 0
 79 803 80 803 82 803 c 0
 85 803 88 803 92 803 c 0
 143 803 192 779 239 779 c 0
 242 779 244 779 247 779 c 0
 293 779 330 818 376 818 c 0
 396 818 414 802 414 781 c 0
 414 635 269 550 223 445 c 1
 253 426 276 400 295 371 c 1
 345 423 l 2
 346 424 l 2
 388 463 l 2
 393 468 400 470 407 470 c 0
 422 470 434 458 434 443 c 0
248 -45 m 0
 331 -45 353 27 353 108 c 0
 353 144 348 185 348 221 c 0
 348 255 317 286 317 320 c 0
 317 321 318 322 318 322 c 2
 381 388 l 1
 422 427 l 2
 427 431 429 437 429 443 c 0
 429 455 419 465 407 465 c 0
 402 465 396 463 392 459 c 2
 350 420 l 2
 349 420 l 2
 297 365 l 2
 297 365 296 364 295 364 c 0
 217 444 l 0
 217 513 350 606 371 673 c 0
 381 706 409 745 409 781 c 0
 409 799 394 813 376 813 c 0
 330 813 293 774 247 774 c 0
 244 774 242 774 239 774 c 0
 192 774 143 798 92 798 c 0
 88 798 86 798 82 798 c 0
 80 798 79 798 77 798 c 0
 65 798 55 788 55 776 c 0
 55 750 62 688 89 688 c 0
 101 688 111 698 111 710 c 0
 111 725 104 737 104 750 c 0
 104 751 106 753 107 753 c 0
 154 753 197 728 248 728 c 0
 288 728 318 760 351 760 c 0
 352 760 353 759 353 758 c 0
 353 635 210 555 174 459 c 0
 171 450 169 441 169 431 c 0
 169 392 261 377 261 329 c 0
 261 328 261 328 261 328 c 2
 214 279 l 2
 174 238 136 148 136 77 c 2
 136 73 l 2
 136 17 143 -44 201 -44 c 0
 207 -44 213 -42 219 -42 c 0
 229 -42 239 -45 248 -45 c 0
324 149 m 0
 324 113 279 -16 243 -16 c 0
 221 -16 168 22 168 81 c 0
 168 112 235 296 279 296 c 0
 310 296 324 185 324 149 c 0
279 290 m 0
 238 290 174 107 174 81 c 0
 174 24 225 -12 243 -12 c 0
 275 -12 320 117 320 149 c 0
 320 180 305 290 279 290 c 0
EndSplineSet
EndChar
StartChar: backslash
Encoding: 92 92 61
Width: 386
Flags: HW
LayerCount: 2
Fore
SplineSet
309 85 m 0
 321 85 331 95 331 107 c 0
 331 110 331 113 330 116 c 2
 98 674 l 2
 95 682 86 687 77 687 c 0
 65 687 55 677 55 665 c 0
 55 662 55 659 56 656 c 2
 288 98 l 2
 291 90 300 85 309 85 c 0
50 665 m 0
 50 680 62 692 77 692 c 0
 88 692 98 685 102 676 c 2
 334 118 l 2
 335 115 336 111 336 107 c 0
 336 92 324 80 309 80 c 0
 298 80 288 87 284 96 c 2
 52 654 l 2
 51 657 50 661 50 665 c 0
EndSplineSet
EndChar
StartChar: asciicircum
Encoding: 94 94 63
Width: 676
Flags: HW
LayerCount: 2
Fore
SplineSet
502 697 m 0
 514 697 525 707 525 719 c 0
 525 727 521 734 515 738 c 2
 350 843 l 2
 346 845 342 846 338 846 c 0
 334 846 329 845 325 843 c 2
 161 738 l 2
 155 734 151 727 151 719 c 0
 151 707 162 697 174 697 c 0
 178 697 182 698 186 700 c 2
 336 796 l 2
 338 797 l 0
 339 796 l 2
 490 700 l 2
 494 698 498 697 502 697 c 0
174 692 m 0
 159 692 146 704 146 719 c 0
 146 728 152 737 159 742 c 2
 323 847 l 2
 328 850 333 851 338 851 c 0
 343 851 348 850 352 847 c 2
 517 742 l 2
 524 737 530 728 530 719 c 0
 530 704 517 692 502 692 c 0
 497 692 492 693 488 696 c 2
 338 791 l 1
 188 696 l 2
 183 693 179 692 174 692 c 0
EndSplineSet
EndChar
StartChar: a
Encoding: 97 97 66
Width: 564
Flags: HW
LayerCount: 2
Fore
SplineSet
360 311 m 0
 360 323 357 335 357 348 c 0
 357 352 358 357 358 361 c 0
 358 384 268 402 247 402 c 0
 158 402 114 278 114 183 c 0
 114 143 123 108 137 76 c 1
 236 114 360 183 360 311 c 0
247 407 m 0
 271 407 363 390 363 361 c 0
 363 357 362 352 362 348 c 0
 362 335 365 323 365 311 c 0
 365 179 238 109 137 71 c 0
 136 71 l 0
 117 71 109 165 109 183 c 0
 109 280 154 407 247 407 c 0
373 126 m 0
 373 122 374 119 374 115 c 1
 378 124 380 133 380 143 c 0
 380 147 380 152 379 157 c 1
 376 148 373 137 373 126 c 0
380 170 m 0
 384 170 385 148 385 143 c 0
 385 136 381 104 373 104 c 0
 368 104 368 122 368 126 c 0
 368 135 372 170 380 170 c 0
27 -7 m 0
 56 -7 83 15 114 15 c 0
 138 15 182 -14 222 -14 c 0
 278 -14 327 3 362 27 c 0
 362 27 362 27 363 27 c 0
 404 27 452 -28 492 -28 c 2
 498 -28 l 2
 501 -28 505 -27 508 -26 c 2
 547 -8 l 2
 554 -5 560 3 560 12 c 0
 560 24 549 34 537 34 c 0
 534 34 531 33 528 32 c 2
 494 17 l 2
 493 16 l 2
 493 16 l 1
 474 16 466 43 441 43 c 0
 430 43 398 49 398 59 c 0
 398 83 430 111 430 144 c 0
 430 178 429 235 402 241 c 0
 401 241 400 242 400 243 c 0
 400 264 410 288 410 312 c 0
 410 324 407 335 407 348 c 0
 407 352 408 356 408 360 c 0
 408 428 308 451 246 451 c 0
 122 451 64 304 64 183 c 0
 64 139 91 96 91 57 c 0
 91 38 5 51 5 15 c 0
 5 3 15 -7 27 -7 c 0
441 48 m 0
 468 48 473 28 492 22 c 1
 526 37 l 2
 530 39 533 39 537 39 c 0
 552 39 565 27 565 12 c 0
 565 1 558 -9 549 -13 c 2
 510 -31 l 2
 507 -33 498 -33 498 -33 c 2
 492 -33 l 2
 466 -33 453 -17 438 -6 c 1
 408 -5 382 5 363 22 c 1
 327 -2 278 -19 222 -19 c 0
 184 -19 134 -12 113 9 c 1
 85 0 54 -12 27 -12 c 0
 12 -12 0 0 0 15 c 0
 0 48 57 50 85 58 c 1
 67 97 59 140 59 183 c 0
 59 307 119 456 246 456 c 0
 311 456 413 432 413 360 c 0
 413 356 412 352 412 348 c 0
 414 335 415 324 415 312 c 0
 415 289 411 266 405 245 c 1
 434 236 435 179 435 144 c 0
 435 112 423 83 404 59 c 1
 414 52 425 48 441 48 c 0
191 38 m 1
 201 36 211 36 222 36 c 0
 265 36 304 48 331 66 c 1
 324 82 320 100 319 117 c 1
 281 85 237 58 191 38 c 1
336 65 m 0
 336 44 247 31 222 31 c 0
 215 31 180 32 180 38 c 1
 180 38 317 125 321 125 c 1
 321 125 336 70 336 65 c 0
EndSplineSet
EndChar
StartChar: c
Encoding: 99 99 68
Width: 549
Flags: HW
LayerCount: 2
Fore
SplineSet
349 369 m 1
 349 366 350 363 350 361 c 1
 351 361 l 0
 351 362 l 0
 351 364 350 366 349 369 c 1
348 355 m 0
 344 355 344 369 344 374 c 0
 344 378 343 385 347 385 c 0
 352 385 356 362 356 362 c 0
 356 356 353 355 348 355 c 0
289 410 m 0
 225 395 207 356 207 278 c 0
 207 258 208 234 209 212 c 1
 270 234 319 254 341 305 c 1
 306 308 294 339 294 374 c 0
 294 383 295 400 299 410 c 1
 296 410 293 410 289 410 c 0
207 206 m 0
 202 206 202 271 202 278 c 0
 202 346 220 415 288 415 c 0
 293 415 298 415 303 415 c 0
 304 415 306 413 306 412 c 0
 306 403 299 385 299 374 c 0
 299 340 310 311 344 310 c 0
 345 310 347 308 347 307 c 0
 347 268 255 206 207 206 c 0
327 -12 m 0
 343 -12 356 -14 375 -14 c 0
 379 -14 383 -13 387 -11 c 2
 534 76 l 2
 540 80 545 87 545 95 c 0
 545 107 534 117 522 117 c 0
 518 117 515 116 511 114 c 2
 370 31 l 2
 361 26 337 33 327 33 c 0
 324 33 324 33 319 33 c 0
 280 33 237 47 228 76 c 2
 206 149 l 2
 206 150 l 0
 206 152 206 153 206 155 c 2
 206 156 l 2
 206 157 340 223 352 235 c 0
 362 245 391 319 399 322 c 0
 420 330 441 345 441 374 c 0
 441 429 406 461 353 461 c 0
 329 461 309 459 285 459 c 0
 193 459 156 369 156 278 c 0
 156 250 160 219 160 191 c 0
 160 165 5 149 5 92 c 0
 5 80 15 70 27 70 c 0
 70 70 108 141 160 141 c 0
 161 141 162 140 162 139 c 2
 186 59 l 2
 198 17 261 -12 319 -12 c 0
 322 -12 325 -12 327 -12 c 0
353 466 m 0
 409 466 446 431 446 374 c 0
 446 343 423 325 402 317 c 1
 382 219 295 184 211 154 c 0
 211 153 211 151 211 150 c 2
 232 78 l 1
 254 52 271 38 319 38 c 0
 324 38 324 38 327 38 c 0
 341 38 354 36 368 36 c 1
 508 119 l 2
 512 122 517 122 522 122 c 0
 537 122 550 110 550 95 c 0
 550 85 544 76 536 71 c 2
 389 -16 l 2
 385 -19 380 -19 375 -19 c 0
 356 -19 343 -18 327 -17 c 0
 325 -17 322 -17 319 -17 c 0
 259 -17 194 13 181 57 c 2
 158 135 l 1
 116 119 77 100 46 72 c 0
 41 67 34 65 27 65 c 0
 12 65 0 77 0 92 c 0
 0 142 124 180 155 192 c 1
 154 220 151 250 151 278 c 0
 151 372 190 464 285 464 c 0
 309 464 329 466 353 466 c 0
EndSplineSet
EndChar
StartChar: d
Encoding: 100 100 69
Width: 672
Flags: HW
LayerCount: 2
Fore
SplineSet
357 253 m 0
 357 326 347 374 267 374 c 0
 172 374 172 291 172 194 c 0
 175 181 180 166 186 150 c 1
 269 159 357 164 357 253 c 0
167 194 m 0
 167 292 168 379 267 379 c 0
 350 379 362 329 362 253 c 0
 362 166 269 144 184 144 c 0
 178 144 167 191 167 194 c 0
458 200 m 1
 491 353 438 518 412 658 c 1
 409 628 l 1
 415 418 l 1
 427 333 l 2
 431 306 442 254 458 200 c 1
473 299 m 0
 473 283 470 188 458 188 c 0
 441 188 422 332 422 332 c 1
 410 418 l 2
 404 628 l 0
 404 628 l 2
 409 676 l 2
 409 677 411 678 412 678 c 0
 435 678 472 340 473 299 c 0
27 70 m 0
 63 70 103 96 151 96 c 0
 155 96 200 14 208 6 c 0
 227 -13 253 -27 282 -27 c 0
 357 -27 418 19 453 65 c 0
 453 66 454 66 455 66 c 0
 480 66 498 -17 549 -17 c 0
 575 -17 621 -8 630 10 c 2
 666 82 l 2
 668 85 668 89 668 92 c 0
 668 104 657 114 645 114 c 0
 637 114 628 109 625 102 c 2
 594 40 l 2
 590 33 556 27 549 27 c 0
 527 27 483 88 483 115 c 0
 483 117 l 0
 507 170 518 233 518 299 c 0
 518 395 477 792 396 792 c 0
 385 792 375 783 374 772 c 2
 359 631 l 2
 359 630 359 630 359 629 c 0
 359 628 l 2
 365 415 l 2
 365 409 367 403 367 397 c 0
 367 396 366 394 365 394 c 0
 342 394 311 423 267 423 c 0
 138 423 122 319 122 191 c 0
 122 174 135 160 135 141 c 0
 135 126 5 136 5 92 c 0
 5 80 15 70 27 70 c 0
488 115 m 1
 499 90 523 32 549 32 c 0
 560 32 578 39 590 43 c 1
 621 104 l 2
 625 113 634 119 645 119 c 0
 660 119 673 107 673 92 c 0
 673 88 672 84 670 80 c 2
 634 8 l 2
 624 -11 578 -22 549 -22 c 0
 500 -22 472 24 454 59 c 1
 418 13 357 -32 282 -32 c 0
 211 -32 171 38 149 90 c 1
 104 85 61 65 27 65 c 0
 12 65 0 77 0 92 c 0
 0 133 95 139 130 143 c 1
 125 159 117 175 117 191 c 0
 117 320 135 428 267 428 c 0
 307 428 338 421 361 403 c 1
 360 407 360 411 360 415 c 2
 354 628 l 2
 354 629 l 0
 354 630 354 631 354 632 c 2
 369 773 l 2
 370 786 382 797 396 797 c 0
 483 797 523 399 523 299 c 0
 523 233 512 169 488 115 c 1
207 97 m 1
 222 67 246 23 281 23 c 0
 350 23 402 72 428 118 c 1
 419 143 410 170 402 196 c 1
 374 124 293 107 207 97 c 1
402 207 m 0
 405 207 433 126 433 118 c 0
 433 70 334 18 281 18 c 0
 253 18 201 66 201 99 c 0
 201 100 202 101 203 101 c 0
 293 111 375 129 400 205 c 0
 400 206 401 207 402 207 c 0
EndSplineSet
EndChar
StartChar: f
Encoding: 102 102 71
Width: 446
Flags: HW
LayerCount: 2
Fore
SplineSet
160 236 m 1
 177 219 180 202 212 202 c 0
 226 202 238 204 246 216 c 1
 246 240 223 265 203 265 c 0
 181 265 170 244 160 236 c 1
154 236 m 0
 154 246 188 270 203 270 c 0
 226 270 251 243 251 216 c 0
 251 200 221 197 212 197 c 0
 188 197 157 223 160 236 c 0
 160 236 154 235 154 236 c 0
128 290 m 0
 128 308 130 330 130 350 c 0
 130 391 129 431 129 472 c 0
 129 522 131 572 140 622 c 0
 140 631 139 639 139 648 c 0
 139 690 148 783 193 783 c 0
 244 783 255 730 255 684 c 0
 255 663 252 640 252 619 c 0
 252 595 255 571 255 547 c 0
 255 467 242 387 212 314 c 1
 258 298 286 244 295 198 c 1
 359 183 l 1
 420 173 l 2
 433 171 443 160 443 146 c 0
 443 131 430 118 415 118 c 0
 414 118 412 118 411 118 c 2
 349 128 l 2
 348 128 347 129 346 129 c 2
 298 141 l 1
 298 140 298 138 298 137 c 2
 298 128 l 2
 298 76 274 -4 215 -4 c 0
 149 -4 138 128 132 186 c 1
 111 163 62 104 23 104 c 0
 8 104 -4 117 -4 132 c 0
 -4 187 128 210 128 275 c 0
 128 279 128 282 128 286 c 0
 128 288 128 288 128 290 c 0
250 547 m 0
 250 571 247 595 247 619 c 0
 247 640 250 663 250 684 c 0
 250 728 240 778 193 778 c 0
 153 778 144 688 144 648 c 0
 144 639 145 631 145 622 c 0
 145 572 134 522 134 472 c 0
 134 431 135 391 135 350 c 0
 135 330 133 308 133 290 c 0
 133 288 133 288 133 286 c 0
 133 282 133 279 133 275 c 0
 133 217 1 173 1 132 c 0
 1 120 11 109 23 109 c 0
 63 109 112 194 134 194 c 0
 154 194 143 1 215 1 c 0
 270 1 293 79 293 128 c 2
 293 137 l 1
 293 144 l 2
 293 145 295 147 296 147 c 0
 296 147 l 2
 348 134 l 2
 349 134 349 133 350 133 c 2
 412 123 l 2
 413 123 414 123 415 123 c 0
 427 123 438 134 438 146 c 0
 438 157 429 166 419 168 c 2
 358 178 l 2
 358 178 l 2
 292 194 l 2
 288 195 277 239 274 245 c 0
 261 267 239 301 208 310 c 0
 207 310 206 311 206 312 c 0
 207 313 l 0
 238 386 250 467 250 547 c 0
199 703 m 0
 216 703 217 633 217 624 c 0
 217 614 217 605 217 595 c 0
 217 590 217 585 217 580 c 0
 217 530 195 479 195 431 c 0
 195 416 189 378 175 378 c 0
 167 378 163 391 163 397 c 0
 163 409 170 423 170 435 c 0
 170 467 163 499 163 533 c 0
 163 556 168 579 168 601 c 0
 168 617 181 703 199 703 c 0
168 533 m 0
 168 500 175 467 175 435 c 0
 175 422 168 409 168 397 c 0
 168 394 170 383 175 383 c 0
 184 383 190 421 190 431 c 0
 190 479 212 530 212 580 c 0
 212 585 212 590 212 595 c 0
 212 605 212 614 212 624 c 0
 212 649 211 674 198 697 c 1
 170 663 168 586 168 533 c 0
211 29 m 0
 185 29 166 108 166 135 c 0
 166 136 166 137 166 138 c 0
 166 152 158 158 158 172 c 4
 158 173 160 174 161 174 c 0
 180 174 213 142 241 138 c 1
 247 138 l 2
 254 138 267 150 275 150 c 0
 278 150 279 140 279 136 c 0
 279 131 274 132 274 127 c 0
 274 107 237 29 211 29 c 0
211 34 m 0
 233 34 270 111 270 127 c 0
 270 131 271 133 272 135 c 1
 271 135 272 135 271 135 c 0
 264 135 254 133 247 133 c 2
 241 133 l 2
 211 133 185 152 164 166 c 1
 166 157 171 149 171 138 c 0
 171 137 171 136 171 135 c 0
 171 112 190 34 211 34 c 0
EndSplineSet
EndChar
StartChar: g
Encoding: 103 103 72
Width: 470
Flags: HW
LayerCount: 2
Fore
SplineSet
268 120 m 0
 326 120 349 170 350 228 c 0
 350 292 347 390 268 390 c 0
 170 390 108 271 108 184 c 0
 108 183 108 183 108 182 c 0
 108 179 110 176 111 173 c 2
 124 156 l 1
 146 144 159 120 190 120 c 0
 206 120 223 123 239 123 c 0
 249 123 258 120 268 120 c 0
354 228 m 0
 353 166 328 115 268 115 c 0
 258 115 249 118 239 118 c 0
 223 118 206 114 190 114 c 0
 164 114 132 137 120 153 c 2
 107 171 l 2
 105 174 103 178 103 182 c 0
 103 183 104 184 104 184 c 0
 104 272 165 394 268 394 c 0
 353 394 354 290 354 228 c 0
168 79 m 0
 190 79 219 85 247 85 c 0
 259 85 270 84 282 84 c 0
 296 84 314 89 327 89 c 0
 328 89 330 87 330 86 c 2
 329 15 l 1
 264 -10 148 -24 148 -124 c 0
 148 -188 192 -243 255 -243 c 0
 258 -243 261 -243 264 -243 c 0
 267 -243 271 -243 274 -243 c 0
 301 -243 328 -222 335 -201 c 2
 353 -149 l 2
 353 -148 354 -147 354 -146 c 2
 364 -86 l 2
 364 -85 l 2
 372 -20 l 2
 373 -8 445 50 455 67 c 2
 463 81 l 2
 465 84 466 88 466 92 c 0
 466 104 455 114 443 114 c 0
 409 114 402 38 377 38 c 0
 376 38 374 40 374 41 c 2
 375 121 l 2
 375 127 382 133 382 140 c 0
 382 146 376 152 376 157 c 0
 376 169 376 180 376 192 c 0
 376 193 l 2
 370 323 l 2
 367 382 307 436 248 436 c 0
 145 436 83 310 83 209 c 0
 83 200 83 191 83 183 c 0
 83 149 5 129 5 92 c 0
 5 80 15 70 27 70 c 0
 59 70 68 123 91 123 c 0
 94 123 105 101 108 98 c 0
 124 82 142 79 168 79 c 0
255 -248 m 0
 190 -248 143 -192 143 -124 c 0
 143 -12 239 -8 324 17 c 1
 325 83 l 1
 312 80 284 79 282 79 c 0
 270 79 259 80 247 80 c 0
 219 80 190 74 168 74 c 0
 130 74 103 87 90 116 c 1
 75 101 55 65 27 65 c 0
 12 65 0 77 0 92 c 0
 0 123 61 161 78 184 c 1
 78 192 78 200 78 209 c 0
 78 313 142 441 248 441 c 0
 308 441 372 383 375 323 c 2
 381 193 l 2
 381 192 l 0
 381 181 381 169 381 158 c 1
 385 153 387 146 387 140 c 0
 387 132 383 126 380 121 c 1
 379 47 l 1
 396 66 411 119 443 119 c 0
 458 119 471 107 471 92 c 0
 471 87 469 82 467 78 c 2
 459 64 l 2
 440 31 411 -5 376 -22 c 1
 369 -85 l 2
 369 -87 l 2
 359 -147 l 2
 359 -149 358 -150 357 -151 c 2
 339 -203 l 2
 331 -225 304 -248 274 -248 c 0
 271 -248 267 -249 264 -248 c 0
 261 -248 258 -248 255 -248 c 0
329 -9 m 0
 326 -94 307 -200 214 -200 c 0
 179 -200 183 -154 183 -125 c 0
 183 -43 293 -61 325 -8 c 0
 325 -7 326 -6 327 -6 c 0
 328 -6 330 -8 330 -9 c 0
 329 -9 l 0
324 -18 m 1
 289 -63 188 -52 188 -125 c 0
 188 -154 185 -196 214 -196 c 0
 309 -196 281 -121 321 -75 c 1
 322 -56 323 -38 324 -18 c 1
EndSplineSet
EndChar
StartChar: h
Encoding: 104 104 73
Width: 651
Flags: HW
LayerCount: 2
Fore
SplineSet
257 300 m 0
 257 337 293 374 293 413 c 2
 290 584 l 2
 289 659 276 849 198 849 c 0
 184 849 174 836 173 823 c 2
 167 760 l 2
 167 759 167 759 167 758 c 0
 167 757 l 2
 173 640 l 2
 179 533 210 417 210 308 c 0
 210 307 l 0
 171 222 111 146 20 113 c 0
 12 110 5 102 5 92 c 0
 5 80 15 70 27 70 c 0
 104 70 184 172 217 224 c 0
 217 225 218 226 219 226 c 0
 220 226 221 224 221 223 c 2
 224 202 l 2
 224 201 l 2
 224 182 l 2
 224 181 224 180 224 179 c 2
 233 102 l 1
 239 -5 l 2
 240 -16 249 -26 261 -26 c 0
 273 -26 283 -17 284 -6 c 2
 293 95 l 2
 293 95 l 2
 311 187 l 2
 311 188 311 190 311 191 c 0
 311 194 310 197 310 200 c 0
 310 251 379 390 426 390 c 0
 477 390 473 267 473 211 c 0
 473 185 471 158 471 131 c 0
 471 62 479 -20 546 -20 c 0
 562 -20 579 -14 586 -5 c 2
 631 55 l 2
 632 56 632 57 633 58 c 2
 645 82 l 2
 647 85 647 89 647 92 c 0
 647 104 636 114 624 114 c 0
 616 114 607 109 604 102 c 2
 593 80 l 2
 593 80 l 2
 554 27 l 2
 552 25 548 24 547 24 c 0
 516 24 516 97 516 131 c 0
 516 157 518 184 518 210 c 0
 518 297 516 435 429 435 c 0
 334 435 297 292 271 227 c 0
 271 226 269 225 268 225 c 0
 267 225 266 227 266 228 c 2
 257 300 l 2
 257 300 l 0
546 -25 m 0
 475 -25 466 60 466 131 c 0
 466 158 468 185 468 211 c 0
 468 280 472 362 426 385 c 1
 380 368 315 260 315 200 c 0
 315 197 316 194 316 191 c 0
 316 189 315 188 315 186 c 2
 298 94 l 1
 289 -6 l 2
 288 -20 275 -31 261 -31 c 0
 247 -31 235 -20 234 -6 c 2
 228 102 l 1
 219 179 l 2
 219 180 219 181 219 182 c 2
 219 201 l 1
 217 216 l 1
 183 164 104 65 27 65 c 0
 12 65 0 77 0 92 c 0
 0 104 8 114 18 118 c 0
 107 150 166 224 205 308 c 1
 197 367 193 429 186 488 c 2
 168 638 l 2
 168 639 168 639 168 640 c 2
 162 757 l 2
 162 758 l 0
 162 759 162 760 162 761 c 2
 168 824 l 2
 170 840 182 854 198 854 c 0
 275 854 294 658 295 584 c 2
 298 413 l 2
 298 377 276 333 262 300 c 1
 270 237 l 1
 299 306 333 440 429 440 c 0
 521 440 523 298 523 210 c 0
 523 184 521 157 521 131 c 0
 521 101 521 29 547 29 c 0
 548 29 548 30 550 31 c 2
 589 83 l 1
 600 104 l 2
 604 113 613 119 624 119 c 0
 639 119 652 107 652 92 c 0
 652 88 651 84 649 80 c 2
 637 56 l 2
 636 55 636 53 635 52 c 2
 590 -8 l 2
 582 -18 564 -25 546 -25 c 0
EndSplineSet
EndChar
StartChar: i
Encoding: 105 105 74
Width: 340
Flags: HW
LayerCount: 2
Fore
SplineSet
206 542 m 0
 206 556 191 570 177 570 c 0
 176 570 l 0
 175 570 l 0
 157 570 147 548 147 532 c 0
 147 516 162 508 179 508 c 0
 198 508 206 525 206 542 c 0
259 -20 m 0
 296 -20 336 57 336 92 c 0
 336 104 325 114 313 114 c 0
 275 114 283 25 254 25 c 0
 214 25 174 80 168 109 c 2
 157 161 l 2
 157 162 l 0
 157 178 173 203 178 220 c 0
 194 277 201 331 201 382 c 0
 201 411 192 438 163 438 c 0
 141 438 120 418 117 399 c 2
 109 345 l 2
 109 344 109 344 109 343 c 2
 105 249 l 2
 105 248 l 0
 105 247 l 2
 109 170 l 1
 109 143 57 121 31 119 c 0
 31 118 l 2
 27 118 l 2
 15 118 5 108 5 96 c 0
 5 84 15 74 27 74 c 2
 31 74 l 2
 67 74 96 110 119 110 c 1
 145 59 182 -20 259 -20 c 0
142 532 m 0
 142 551 154 575 175 575 c 0
 176 575 l 0
 177 575 l 0
 193 575 211 558 211 542 c 0
 211 522 201 503 179 503 c 0
 159 503 142 513 142 532 c 0
118 103 m 1
 96 85 65 69 31 69 c 2
 27 69 l 2
 12 69 0 81 0 96 c 0
 0 111 12 123 27 123 c 2
 30 123 l 1
 66 126 88 146 104 171 c 1
 100 247 l 2
 100 248 l 0
 100 249 l 2
 104 343 l 2
 104 344 104 345 104 346 c 2
 112 400 l 2
 116 424 137 443 163 443 c 0
 195 443 206 413 206 382 c 0
 206 313 190 217 162 161 c 1
 172 110 l 2
 179 76 217 40 254 31 c 1
 272 51 278 119 313 119 c 0
 328 119 341 107 341 92 c 0
 341 53 299 -25 259 -25 c 0
 187 -25 130 42 118 103 c 1
EndSplineSet
EndChar
StartChar: s
Encoding: 115 115 84
Width: 402
Flags: HW
LayerCount: 2
Fore
SplineSet
156 296 m 0
 156 254 183 222 207 222 c 0
 231 222 298 284 298 325 c 0
 298 366 253 400 228 400 c 0
 204 400 156 338 156 296 c 0
152 296 m 0
 152 340 200 406 228 406 c 0
 255 406 302 370 302 325 c 0
 302 280 235 218 207 218 c 0
 179 218 152 252 152 296 c 0
344 115 m 0
 333 115 247 204 247 204 c 1
 247 223 310 252 313 261 c 2
 329 305 l 2
 330 307 330 310 330 313 c 0
 330 314 l 2
 328 372 l 2
 328 378 325 384 320 388 c 2
 284 418 l 2
 272 428 247 430 231 430 c 0
 222 430 212 429 203 429 c 0
 145 429 125 344 125 297 c 0
 125 256 146 225 170 203 c 0
 171 203 171 202 171 201 c 0
 171 174 51 119 31 119 c 2
 27 119 l 2
 15 119 5 109 5 97 c 0
 5 85 15 75 27 75 c 2
 31 75 l 2
 98 75 165 136 208 172 c 0
 208 172 208 173 209 173 c 0
 229 173 300 114 300 98 c 0
 300 88 250 65 239 65 c 2
 239 65 l 2
 228 65 224 83 205 83 c 0
 203 83 202 84 199 84 c 0
 181 84 169 68 169 53 c 0
 169 -2 230 -23 283 -23 c 0
 326 -23 354 26 354 63 c 0
 354 65 354 67 354 69 c 0
 354 70 355 72 356 72 c 2
 382 79 l 2
 391 82 398 91 398 101 c 0
 398 113 387 123 375 123 c 0
 373 123 371 124 369 123 c 2
 344 115 l 2
 344 115 l 0
120 297 m 0
 120 346 142 434 203 434 c 0
 212 434 222 435 231 435 c 0
 247 435 274 433 287 422 c 2
 323 392 l 2
 329 387 333 380 333 372 c 2
 335 314 l 2
 335 313 l 0
 335 310 334 307 333 304 c 2
 317 260 l 2
 309 239 277 224 253 204 c 1
 287 182 325 159 345 121 c 1
 368 127 l 2
 371 128 372 128 375 128 c 0
 390 128 403 116 403 101 c 0
 403 89 394 78 383 75 c 2
 359 67 l 1
 359 66 359 64 359 63 c 0
 359 23 329 -28 283 -28 c 0
 227 -28 164 -6 164 53 c 0
 164 70 179 89 199 89 c 0
 202 89 203 88 205 88 c 0
 224 88 231 78 239 70 c 1
 239 70 l 2
 258 70 279 89 294 99 c 1
 276 128 240 146 209 167 c 1
 166 131 100 70 31 70 c 2
 27 70 l 2
 12 70 0 82 0 97 c 0
 0 112 12 124 27 124 c 2
 31 124 l 2
 72 124 133 176 164 201 c 1
 140 224 120 255 120 297 c 0
295 65 m 0
 311 65 323 57 323 42 c 0
 323 24 307 0 283 -0 c 0
 277 0 242 0 242 18 c 0
 242 43 269 65 295 65 c 0
318 42 m 0
 318 55 308 60 295 60 c 0
 271 60 246 39 246 18 c 0
 246 7 275 4 283 4 c 0
 304 4 318 26 318 42 c 0
EndSplineSet
EndChar
StartChar: t
Encoding: 116 116 85
Width: 410
Flags: HW
LayerCount: 2
Fore
SplineSet
55 570 m 2
 73 570 90 558 113 558 c 0
 115 558 118 557 118 555 c 2
 119 523 l 2
 119 522 l 2
 127 444 l 2
 131 404 145 366 145 325 c 0
 145 245 57 146 13 109 c 0
 8 105 5 99 5 92 c 0
 5 80 15 70 27 70 c 0
 78 70 132 219 154 219 c 0
 161 219 165 102 167 89 c 2
 173 49 l 2
 179 6 226 -11 270 -11 c 0
 279 -11 288 -10 297 -10 c 0
 334 -10 372 23 384 46 c 2
 404 86 l 2
 406 89 406 93 406 96 c 0
 406 108 395 118 383 118 c 0
 375 118 366 113 363 106 c 2
 346 71 l 2
 340 59 313 34 297 34 c 2
 282 34 l 2
 237 34 221 35 217 60 c 2
 212 94 l 2
 201 168 190 246 190 320 c 0
 190 333 209 573 221 575 c 0
 228 576 235 577 241 577 c 0
 242 577 l 2
 322 531 l 2
 325 529 329 528 333 528 c 0
 345 528 356 538 356 550 c 0
 356 558 351 565 345 569 c 2
 259 619 l 2
 256 621 251 622 247 622 c 2
 243 622 l 2
 236 622 229 621 222 621 c 0
 221 621 220 623 220 624 c 0
 220 629 220 633 220 638 c 0
 220 697 224 806 169 806 c 0
 150 806 133 789 131 775 c 2
 121 699 l 2
 121 698 l 2
 115 628 l 2
 115 627 115 627 115 626 c 0
 115 619 116 612 116 605 c 0
 116 604 114 602 113 602 c 0
 95 602 78 614 55 614 c 2
 51 614 l 2
 39 614 29 604 29 592 c 0
 29 580 39 570 51 570 c 2
 55 570 l 2
55 619 m 2
 78 619 93 610 111 608 c 1
 111 614 110 620 110 626 c 0
 110 627 110 627 110 628 c 2
 116 698 l 2
 116 700 l 2
 126 776 l 2
 128 793 147 811 169 811 c 0
 230 811 225 701 225 638 c 0
 225 634 225 630 225 626 c 1
 231 627 237 627 243 627 c 2
 247 627 l 2
 252 627 257 626 261 624 c 2
 347 574 l 2
 355 569 361 560 361 550 c 0
 361 535 348 523 333 523 c 0
 328 523 324 524 320 526 c 2
 240 572 l 1
 235 572 230 572 224 571 c 1
 221 477 218 399 196 319 c 1
 202 244 211 172 217 95 c 1
 222 61 l 1
 234 39 231 39 282 39 c 2
 297 39 l 2
 314 39 330 64 342 74 c 1
 359 108 l 2
 363 117 372 123 383 123 c 0
 398 123 411 111 411 96 c 0
 411 92 410 88 408 84 c 2
 388 44 l 2
 375 19 337 -15 297 -15 c 0
 288 -15 279 -16 270 -16 c 0
 225 -16 175 3 168 48 c 2
 162 88 l 2
 156 127 157 169 152 208 c 1
 132 169 77 65 27 65 c 0
 12 65 0 77 0 92 c 0
 0 111 20 122 31 133 c 0
 78 180 117 249 140 326 c 1
 138 342 l 1
 132 375 125 409 122 443 c 2
 114 521 l 2
 113 531 113 543 113 553 c 1
 90 553 72 565 55 565 c 2
 51 565 l 2
 36 565 24 577 24 592 c 0
 24 607 36 619 51 619 c 2
 55 619 l 2
EndSplineSet
EndChar
StartChar: u
Encoding: 117 117 86
Width: 496
Flags: HW
LayerCount: 2
Fore
SplineSet
469 118 m 0
 429 118 448 27 407 27 c 0
 404 27 398 28 395 28 c 0
 394 28 394 28 393 28 c 0
 360 28 339 152 339 188 c 0
 339 191 339 196 339 199 c 0
 339 244 336 290 336 334 c 2
 336 356 l 2
 336 368 330 371 330 378 c 2
 330 388 l 2
 330 409 318 446 295 446 c 0
 273 446 257 419 257 402 c 0
 257 401 l 2
 259 325 l 2
 260 276 294 228 294 183 c 0
 293 117 288 20 231 20 c 0
 225 20 218 22 211 22 c 0
 209 22 208 22 206 22 c 0
 158 22 136 89 136 138 c 0
 136 141 136 143 136 146 c 0
 136 167 126 187 126 209 c 0
 126 266 157 313 157 377 c 0
 157 409 154 448 121 448 c 0
 81 448 79 304 79 256 c 0
 79 243 81 230 81 217 c 0
 81 167 5 136 5 94 c 0
 5 82 15 72 27 72 c 0
 57 72 70 130 89 130 c 0
 90 130 101 72 104 64 c 0
 119 22 152 -23 206 -23 c 0
 207 -23 209 -23 210 -23 c 0
 217 -23 224 -24 230 -24 c 0
 277 -24 305 8 319 44 c 0
 319 45 321 45 322 45 c 0
 335 45 362 -18 407 -18 c 0
 457 -18 492 49 492 96 c 0
 492 108 481 118 469 118 c 0
344 189 m 0
 352 156 360 33 393 33 c 0
 394 33 394 33 395 33 c 0
 399 33 404 32 407 32 c 0
 444 32 425 123 469 123 c 0
 484 123 497 111 497 96 c 0
 497 48 462 -23 407 -23 c 0
 360 -23 335 2 321 36 c 1
 306 1 276 -29 230 -29 c 0
 224 -29 217 -29 210 -28 c 0
 209 -28 206 -28 206 -28 c 1
 129 -28 93 50 87 120 c 1
 76 104 53 67 27 67 c 0
 12 67 0 79 0 94 c 0
 0 102 3 109 9 114 c 0
 39 141 61 177 76 217 c 1
 75 230 74 243 74 256 c 0
 74 309 75 453 121 453 c 0
 158 453 162 411 162 377 c 0
 162 315 150 264 131 209 c 1
 133 188 141 166 141 146 c 0
 141 143 141 141 141 138 c 0
 141 92 161 27 206 27 c 0
 208 27 209 27 211 27 c 0
 217 27 226 25 231 25 c 0
 284 25 288 120 289 182 c 1
 278 226 255 277 254 325 c 2
 252 401 l 2
 252 402 l 0
 252 422 270 451 295 451 c 0
 322 451 335 412 335 388 c 2
 335 379 l 1
 338 374 341 368 341 356 c 2
 341 334 l 2
 341 290 344 244 344 199 c 0
 344 196 344 192 344 189 c 0
EndSplineSet
EndChar
StartChar: v
Encoding: 118 118 87
Width: 498
Flags: HW
LayerCount: 2
Fore
SplineSet
391 239 m 1
 418 214 499 137 499 93 c 0
 499 78 486 66 471 66 c 0
 457 66 448 75 444 87 c 1
 412 125 l 2
 411 126 l 2
 379 167 l 1
 360 117 303 -26 239 -26 c 0
 233 -26 231 -25 226 -25 c 0
 215 -25 206 -19 202 -10 c 2
 192 10 l 2
 174 46 187 112 175 151 c 0
 156 211 133 313 101 361 c 1
 95 311 74 66 27 66 c 0
 12 66 0 78 0 93 c 2
 0 95 l 2
 0 162 34 435 99 435 c 0
 194 435 239 124 243 35 c 1
 273 69 323 149 330 197 c 2
 333 218 l 1
 293 257 250 308 250 384 c 0
 250 410 265 437 295 437 c 0
 327 437 377 416 385 393 c 2
 392 372 l 2
 393 369 393 367 393 364 c 2
 395 290 l 2
 395 289 l 0
 395 288 395 288 395 287 c 2
 391 239 l 1
494 93 m 0
 494 132 386 206 386 238 c 0
 386 238 l 2
 390 287 l 2
 390 288 390 288 390 289 c 0
 390 290 l 2
 388 364 l 2
 388 366 388 368 387 370 c 2
 380 391 l 2
 373 411 324 432 295 432 c 0
 268 432 255 407 255 384 c 0
 255 309 299 259 338 220 c 0
 338 220 338 220 338 219 c 0
 338 218 l 2
 335 196 l 2
 331 168 274 27 241 27 c 1
 224 160 207 328 130 405 c 0
 121 414 115 430 99 430 c 0
 39 430 5 158 5 95 c 2
 5 93 l 2
 5 81 15 71 27 71 c 0
 88 71 65 370 100 370 c 0
 172 370 170 63 196 12 c 2
 206 -8 l 2
 212 -19 224 -21 239 -21 c 0
 304 -21 359 175 378 175 c 0
 379 175 380 175 380 174 c 2
 415 129 l 2
 415 128 l 2
 449 90 l 2
 456 82 456 71 471 71 c 0
 483 71 494 81 494 93 c 0
302 340 m 0
 302 365 313 388 329 388 c 0
 345 388 356 365 356 340 c 0
 356 315 345 292 329 292 c 0
 313 292 302 315 302 340 c 0
308 340 m 0
 308 315 319 298 329 298 c 0
 339 298 350 315 350 340 c 0
 350 365 339 382 329 382 c 0
 319 382 308 365 308 340 c 0
EndSplineSet
EndChar
StartChar: x
Encoding: 120 120 89
Width: 504
Flags: HW
LayerCount: 2
Fore
SplineSet
390 371 m 0
 354 371 333 326 333 286 c 0
 333 280 337 276 342 276 c 0
 382 276 400.634765625 299.076171875 411 315 c 0
 418.821289062 327.015625 437.946289062 366.505859375 441 379 c 1
 429 377 401 371 390 371 c 0
323 286 m 0
 323 331 348 381 390 381 c 0
 401 381 434 390 445 390 c 0
 446 390 l 0
 447 390 453 389 453 384 c 0
 453 331 406 266 342 266 c 0
 331 266 323 275 323 286 c 0
107 294 m 0
 107 306 95 323 95 337 c 0
 95 371 108 388 138 388 c 0
 187 388 243 340 243 285 c 0
 243 175 107 166 107 57 c 0
 107 39 138 18 162 18 c 0
 196 18 207 50 207 89 c 0
 207 117 233 181 268 181 c 0
 273 181 273 176 273 173 c 0
 273 172 l 0
 273 169 272 166 272 164 c 0
 272 95 290 17 355 17 c 0
 379 17 395 13 419 13 c 0
 461 13 498 53 498 93 c 0
 498 104 489 113 478 113 c 0
 445 113 456 53 419 53 c 0
 395 53 379 57 355 57 c 0
 318 57 312 128 312 165 c 0
 312 179 316 201 325 206 c 1
 364.3046875 252.524414062 470.581054688 261.578125 475 389 c 0
 475.658203125 407.98828125 461 424 442 424 c 0
 355 424 315 362 292 292 c 0
 291 289 289 288 288 288 c 0
 284 288 251 373 241 383 c 0
 213 411 175 428 139 428 c 0
 87 428 55 391 55 337 c 0
 55 324 66 301 66 288 c 0
 66 226 9 160 9 98 c 0
 9 86 18 73 31 73 c 0
 44 73 51 84 51 93 c 0
 51 96 49 99 49 102 c 0
 49 166 107 230 107 294 c 0
57 117 m 0
 57 111 60 106 60 100 c 0
 60 99 59 97 59 96 c 0
 59 96 l 0
 60 96 61 95 61 94 c 0
 61 93 l 0
 61 79 47 63 31 63 c 0
 11 63 -1 81 -1 98 c 0
 -1 160 43 230 55 287 c 1
 48 299 45 322 45 337 c 0
 45 396 81 438 139 438 c 0
 209 438 275 381 290 314 c 1
 315 378 357 434 442 434 c 0
 466 434 485 413 485 389 c 0
 485 288 398 238 329 202 c 1
 323 193 322 180 322 165 c 0
 322 128 330 67 355 67 c 0
 379 67 395 63 419 63 c 0
 450 63 441 123 478 123 c 0
 494 123 508 109 508 93 c 0
 508 47 467 3 419 3 c 0
 395 3 379 7 355 7 c 0
 281 7 262 93 262 164 c 0
 262 165 262 167 262 168 c 1
 238 153 217 120 217 89 c 0
 217 48 204 8 162 8 c 0
 133 8 97 31 97 57 c 0
 97 169 233 178 233 285 c 0
 233 334 181 378 138 378 c 0
 114 378 105 367 105 337 c 0
 105 324 117 308 117 294 c 0
 117 238 57 174 57 117 c 0
166 36 m 0
 159 36 137 39 137 48 c 0
 137 49 l 2
 143 66 l 2
 152 92 165 165 200 165 c 0
 201 165 203 163 203 162 c 0
 203 145 190 129 190 112 c 0
 190 101 194 91 194 78 c 0
 194 59 189 36 166 36 c 0
142 49 m 1
 148 44 157 41 166 41 c 0
 184 41 189 59 189 78 c 0
 189 91 185 100 185 112 c 0
 185 129 195 143 197 158 c 1
 162 142 166 94 147 64 c 1
 142 49 l 1
162 13 m 1
 154 13 145 14 137 18 c 1
 145 14 154 13 162 13 c 1
102 57 m 1
 102 67 103 76 105 84 c 1
 103 76 102 67 102 57 c 1
54 102 m 1
 54 101 l 1
 54 102 l 1
56 92 m 1
 56 92 l 1
 56 92 l 1
61 288 m 0
 61 299 50 321 50 337 c 1025
139 433 m 1025
407 425 m 1
 419 427 430 429 442 429 c 1
 429 429 418 427 407 425 c 1
EndSplineSet
EndChar
StartChar: y
Encoding: 121 121 90
Width: 415
Flags: HW
LayerCount: 2
Fore
SplineSet
194 -159 m 0
 194 -76 298 -56 298 14 c 0
 298 61 295 108 286 148 c 1
 261 127 229 114 190 114 c 0
 151 114 130 151 123 180 c 1
 109 156 61 63 30 63 c 0
 12 63 0 78 0 94 c 0
 0 101 3 109 7 114 c 0
 49 162 86 216 107 274 c 1
 104 293 99 313 98 333 c 2
 94 411 l 2
 94 412 l 0
 94 430 111 442 129 442 c 0
 170 442 180 385 180 347 c 0
 180 320 172 293 164 269 c 1
 175 201 l 2
 177 191 184 169 189 169 c 0
 189 169 l 0
 190 169 191 169 192 169 c 0
 233 169 259 192 275 220 c 1
 273 232 270 245 270 259 c 0
 270 262 270 265 270 269 c 0
 270 286 266 306 266 324 c 0
 266 332 266 339 266 347 c 0
 266 373 269 441 306 441 c 0
 351 441 351 350 351 307 c 0
 351 275 345 242 332 212 c 1
 335 197 339 183 339 164 c 1
 345 138 348 112 350 88 c 1
 352 91 354 95 356 98 c 2
 366 112 l 2
 371 119 379 123 388 123 c 0
 403 123 415 111 415 96 c 0
 415 90 413 85 410 80 c 2
 401 68 l 1
 378 23 l 2
 372 11 361 1 353 -10 c 1
 352 -69 345 -131 345 -190 c 0
 345 -192 346 -196 346 -199 c 0
 346 -217 333 -236 312 -236 c 0
 310 -236 309 -236 307 -236 c 0
 297 -237 285 -238 272 -238 c 0
 232 -238 193 -220 193 -176 c 0
 193 -172 193 -169 194 -165 c 0
 194 -163 194 -161 194 -159 c 0
306 436 m 0
 273 436 271 370 271 347 c 0
 271 339 271 332 271 324 c 0
 271 306 275 287 275 269 c 0
 275 266 275 262 275 259 c 0
 275 245 280 231 280 219 c 0
 280 188 224 164 192 164 c 0
 191 164 190 164 189 164 c 0
 179 164 172 187 170 200 c 2
 159 268 l 2
 159 269 l 0
 159 294 175 319 175 347 c 0
 175 383 166 437 129 437 c 0
 113 437 99 426 99 412 c 0
 99 411 l 2
 103 333 l 2
 104 313 112 292 112 273 c 0
 112 222 43 148 11 111 c 0
 8 107 5 100 5 94 c 0
 5 80 15 68 30 68 c 0
 71 68 93 189 124 189 c 0
 132 189 149 119 190 119 c 0
 231 119 262 155 288 155 c 0
 301 155 303 34 303 14 c 0
 303 -57 199 -80 199 -159 c 0
 199 -161 199 -163 199 -165 c 0
 199 -169 198 -172 198 -176 c 0
 198 -218 234 -233 272 -233 c 0
 285 -233 297 -231 307 -231 c 0
 309 -231 310 -231 312 -231 c 0
 330 -231 341 -215 341 -199 c 0
 341 -196 340 -192 340 -190 c 0
 340 -103 345 -29 374 26 c 2
 397 70 l 2
 397 70 l 2
 406 83 l 2
 409 87 410 91 410 96 c 0
 410 108 400 118 388 118 c 0
 381 118 374 115 370 109 c 2
 360 95 l 2
 359 94 358 93 358 92 c 2
 350 78 l 2
 350 77 349 76 348 76 c 0
 347 76 327 199 327 212 c 0
 327 241 346 275 346 307 c 0
 346 346 346 436 306 436 c 0
237 -182 m 0
 237 -157 281 -46 307 -46 c 0
 308 -46 309 -47 309 -48 c 2
 318 -74 l 2
 318 -75 l 2
 316 -138 l 2
 315 -164 297 -220 267 -220 c 0
 246 -220 237 -201 237 -182 c 0
306 -55 m 1
 281 -92 242 -133 242 -182 c 0
 242 -199 249 -214 267 -214 c 0
 302 -214 298 -162 312 -137 c 1
 313 -75 l 1
 306 -55 l 1
EndSplineSet
EndChar
StartChar: asciitilde
Encoding: 126 126 95
Width: 505
Flags: HW
LayerCount: 2
Fore
SplineSet
145 419 m 0
 120 419 62 431 62 457 c 2
 62 459 l 2
 62 471 52 481 40 481 c 0
 28 481 18 471 18 459 c 2
 18 456 l 2
 18 400 88 374 144 374 c 0
 232 374 293 448 373 448 c 0
 376 448 380 447 382 446 c 2
 441 413 l 2
 449 408 455 400 466 400 c 0
 478 400 488 410 488 422 c 0
 488 436 474 447 465 452 c 2
 401 488 l 2
 394 492 386 492 373 492 c 0
 285 492 225 419 145 419 c 0
144 369 m 0
 85 369 13 396 13 456 c 2
 13 459 l 2
 13 474 25 486 40 486 c 0
 55 486 67 474 67 459 c 2
 67 457 l 1
 77 434 116 424 145 424 c 0
 224 424 284 497 373 497 c 0
 387 497 395 496 403 492 c 2
 467 456 l 2
 478 450 493 438 493 422 c 0
 493 407 481 395 466 395 c 0
 453 395 446 404 438 409 c 2
 380 442 l 2
 377 442 376 443 373 443 c 0
 294 443 232 369 144 369 c 0
EndSplineSet
EndChar
StartChar: uni0982
Encoding: 2434 2434 100
Width: 334
Flags: HW
HStem: 488.577 137.393<154.189 220.962>
VStem: 157.645 70.7107<138.328 417.934>
LayerCount: 2
Fore
SplineSet
145 495.855339059 m 0
 145.68989375 495.855339059 146.31489375 495.575285934 146.767420313 495.122759372 c 2
 182.122759371 459.767420313 l 2
 182.205268088 459.684911596 182.28204312 459.596669196 182.352432394 459.503345188 c 0
 205.632520232 428.637973345 224.849185901 391.448324183 236.740079474 353.75196842 c 0
 236.814955594 353.51459712 236.855339059 353.261977377 236.854303344 352.927413565 c 2
 230.854303344 142.927413565 l 2
 230.84904829 142.743486675 230.823886784 142.564508486 230.780899607 142.392559781 c 2
 224.780899607 118.392559781 l 2
 224.669379639 117.946479908 224.437889493 117.547709809 224.122759372 117.232579688 c 2
 188.767420313 81.8772406282 l 2
 188.31489375 81.4247140657 187.68989375 81.1446609407 187 81.1446609407 c 0
 186.31010625 81.1446609407 185.68510625 81.4247140657 185.232579687 81.8772406282 c 2
 149.877240628 117.232579688 l 2
 149.424714066 117.68510625 149.144660941 118.31010625 149.144660941 119 c 0
 149.144660941 119.209466037 149.17047779 119.412949808 149.219100393 119.607440219 c 2
 155.153478554 143.344952865 l 1
 161.133557618 352.647720112 l 1
 149.410981992 389.642861716 130.480495924 426.224139187 107.647567606 456.496654812 c 0
 107.331900501 456.915174821 107.144660941 457.435893889 107.144660941 458 c 0
 107.144660941 458.68989375 107.424714066 459.31489375 107.877240628 459.767420313 c 2
 143.232579687 495.122759372 l 2
 143.68510625 495.575285934 144.31010625 495.855339059 145 495.855339059 c 0
166.143625226 352.927413565 m 2
 160.143625226 142.927413565 l 2
 160.138370172 142.743486675 160.113208666 142.564508486 160.070221489 142.392559781 c 2
 154.413565549 119.765936017 l 1
 187 87.1795015657 l 1
 220.097058463 120.276560029 l 1
 225.864156672 143.344952865 l 1
 231.844235736 352.647720112 l 1
 220.139691207 389.585957587 201.249392896 426.111603122 178.463579515 456.356918919 c 1
 145 489.820498434 l 1
 112.94400327 457.764501704 l 1
 135.638269777 427.246345442 154.36095665 390.743119685 166.029401356 353.75196842 c 0
 166.104277476 353.51459712 166.144660941 353.261977377 166.143625226 352.927413565 c 2
168.746051696 628.469971876 m 0
 175.932768389 628.469971876 183.733738952 629.281373339 191.021672542 629.281373339 c 0
 200.665077078 629.281373339 210.417541132 628.023852268 217.20516826 621.236225139 c 2
 252.56050732 585.880886079 l 2
 257.860483504 580.580909896 260.855339059 572.313113996 260.855339059 560 c 0
 260.855339059 551.16475669 254.486597109 540.706182741 246.683093506 532.902679137 c 2
 211.327754446 497.547340078 l 2
 203.973985266 490.193570898 197.04988994 486.07713125 187.570326376 486.07713104 c 0
 176.551215463 486.07713104 168.185722018 490.183004343 161.989401302 496.379325058 c 2
 126.634062243 531.734664117 l 2
 117.592674771 540.77605159 113.13812865 553.961368 110.222161169 565.38044643 c 0
 110.171561931 565.578595643 110.144660941 565.78618108 110.144660941 566 c 0
 110.144660941 566.68989375 110.424714066 567.31489375 110.877240629 567.767420313 c 2
 125.609820316 582.5 l 1
 116.877240629 591.232579687 l 2
 116.424714066 591.68510625 116.144660941 592.31010625 116.144660941 593 c 0
 116.144660941 593.68989375 116.424714066 594.31489375 116.877240628 594.767420313 c 2
 152.232579687 630.122759372 l 2
 152.68510625 630.575285934 153.31010625 630.855339059 154 630.855339059 c 0
 154.374783936 630.855339059 154.730416479 630.772689995 155.049650112 630.624639383 c 0
 158.5124789 629.018687291 163.274895101 628.469971876 168.746051696 628.469971876 c 0
191.021672542 624.281373339 m 0
 183.814021548 624.281373339 176.015353468 623.469971876 168.746051696 623.469971876 c 0
 163.663648288 623.469971876 158.812306411 623.851426535 154.587223743 625.407722177 c 1
 122.179501566 593 l 1
 130.912081254 584.267420313 l 2
 131.364607816 583.81489375 131.644660941 583.18989375 131.644660941 582.5 c 0
 131.644660941 581.81010625 131.364607816 581.18510625 130.912081254 580.732579687 c 2
 115.424493005 565.244991439 l 1
 118.282403748 554.448230039 122.595800415 542.842607196 130.168902869 535.269504741 c 2
 165.524241928 499.914165683 l 2
 170.88152606 494.556881551 177.852824083 491.07713104 187.570326376 491.07713104 c 0
 188.359735535 491.07713104 189.176985606 491.144660941 190 491.144660941 c 0
 194.904428695 491.144660941 201.80176427 495.091031152 207.792913821 501.082180704 c 2
 243.14825288 536.437519762 l 2
 250.428151219 543.717418101 255.855339059 553.448813868 255.855339059 560 c 0
 255.855339059 571.556737332 253.065868418 578.305843732 249.025666695 582.346045454 c 2
 213.670327636 617.701384513 l 2
 208.46852074 622.90319141 200.372453492 624.281373339 191.021672542 624.281373339 c 0
EndSplineSet
EndChar
StartChar: uni0983
Encoding: 2435 2435 101
Width: 1024
Flags: HW
HStem: 155.645 136.711<328.183 399.956> 491.645 154.711<347.131 410.869>
VStem: 289.679 154.676
LayerCount: 2
Fore
SplineSet
364 294.855339059 m 0
 373.70773384 294.855339059 382.57463141 290.815548274 389.017420313 284.372759372 c 2
 424.372759372 249.017420313 l 2
 430.815548274 242.57463141 434.855339059 233.70773384 434.855339059 224 c 0
 434.855339059 214.29226616 430.815548274 205.42536859 424.372759372 198.982579687 c 2
 389.017420313 163.627240629 l 2
 382.57463141 157.184451726 373.70773384 153.144660941 364 153.144660941 c 0
 351.529583631 153.144660941 340.188900906 158.007380543 332.492324548 165.7039569 c 2
 297.13698549 201.059295959 l 2
 291.546554854 206.649726594 287.179397686 214.44616967 287.179397686 222.501336029 c 0
 287.179397686 223.191229779 287.459450811 223.816229779 287.911977373 224.268756341 c 2
 293.670966316 230.027745284 l 1
 294.960531912 237.347593788 298.545246016 243.935425701 303.627240628 249.017420313 c 2
 338.982579687 284.372759372 l 2
 345.42536859 290.815548274 354.29226616 294.855339059 364 294.855339059 c 0
364 289.855339059 m 0
 355.70773384 289.855339059 348.07463141 286.395129844 342.517420313 280.837918747 c 2
 307.162081253 245.482579687 l 2
 302.617132871 240.937631306 299.472488443 235.001584686 298.479910707 228.453036594 c 0
 298.398204453 227.913978228 298.144092689 227.431190408 297.775642897 227.062740616 c 2
 292.259848572 221.54694629 l 1
 292.887563811 215.227002037 295.918488784 209.347473914 300.671826114 204.594136585 c 2
 336.027165174 169.238797524 l 2
 342.728670082 162.537292617 352.835210299 158.144660941 364 158.144660941 c 0
 372.29226616 158.144660941 379.92536859 161.604870156 385.482579687 167.162081254 c 2
 420.837918747 202.517420313 l 2
 426.395129844 208.07463141 429.855339059 215.70773384 429.855339059 224 c 0
 429.855339059 232.29226616 426.395129844 239.92536859 420.837918747 245.482579687 c 2
 385.482579687 280.837918747 l 2
 379.92536859 286.395129844 372.29226616 289.855339059 364 289.855339059 c 0
379 648.855339059 m 0
 386.377277442 648.855339059 393.017918388 645.62330255 398.273452831 640.367768105 c 2
 433.628791891 605.012429045 l 2
 441.861042677 596.78017826 446.855339059 583.600218392 446.855339059 569 c 0
 446.855339059 554.399781608 441.861042677 541.21982174 433.628791891 532.987570954 c 2
 398.273452832 497.632231896 l 2
 393.017918388 492.376697451 386.377277442 489.144660941 379 489.144660941 c 0
 371.622722558 489.144660941 364.982081612 492.37669745 359.726547169 497.632231895 c 2
 324.371208108 532.987570955 l 2
 317.793387594 539.56539147 313.2985827 549.297221358 311.743059809 560.366760507 c 1
 301.877240628 570.232579687 l 2
 301.424714066 570.68510625 301.144660941 571.31010625 301.144660941 572 c 0
 301.144660941 572.093148248 301.149766289 572.185113488 301.159712192 572.275630926 c 0
 302.4133006 583.684510499 307.33867095 593.92422853 314.779354345 601.364911926 c 2
 350.134693405 636.720250985 l 2
 357.639009781 644.224567361 367.706897498 648.855339059 379 648.855339059 c 0
379 643.855339059 m 0
 369.113088324 643.855339059 360.311962677 639.827839007 353.66953403 633.185410359 c 2
 318.314194969 597.8300713 l 2
 311.976639261 591.492515591 307.608822331 582.750567476 306.274448088 572.905053478 c 1
 315.877049129 563.302452438 l 2
 316.259511584 562.919989982 316.518773763 562.414327249 316.58988786 561.850412044 c 0
 317.915524095 551.338481745 322.129904469 542.298555845 327.906048734 536.522411579 c 2
 363.261387793 501.167072521 l 2
 367.755672076 496.672788238 373.139821254 494.144660941 379 494.144660941 c 0
 384.860178746 494.144660941 390.244327924 496.672788237 394.738612206 501.16707252 c 2
 430.093951267 536.52241158 l 2
 437.153991961 543.582452274 441.855339059 555.50971794 441.855339059 569 c 0
 441.855339059 582.49028206 437.153991961 594.417547726 430.093951266 601.47758842 c 2
 394.738612207 636.832927479 l 2
 390.244327924 641.327211762 384.860178746 643.855339059 379 643.855339059 c 0
EndSplineSet
EndChar
StartChar: uni0987
Encoding: 2439 2439 104
Width: 422
Flags: HW
HStem: 96.6447 70.7107<276.315 371.25> 312.645 146.888<92.1867 157.435> 661.034 63.6043<240.421 312.138> 731.744 63.6043<272.102 325.464> 744.645 70.7107<-1 153.247 279.244 335 386.124 417.22> 917.722 70.7107<125.98 253.862>
VStem: 42.0498 70.7107<1007.39 1057.39 1076 1145.03> 52.7232 70.7107<1057.79 1164> 191.645 70.7107<797.091 860.535> 332.2 70.7107<508.762 647.531>
LayerCount: 2
Fore
SplineSet
191.876348008 990.932242183 m 0
 215.70898106 990.932242183 236.872592968 999.943054826 261.005253184 999.943054826 c 0
 271.420863594 999.943054826 281.168523675 998.130736611 287.376313071 991.922947216 c 2
 322.731652129 956.567608157 l 2
 326.654766067 952.644494219 328.855339059 947.1203365 328.855339059 940 c 0
 328.855339059 908.189128763 309.521809908 885.895951879 292.398387068 866.006156332 c 0
 277.690780992 848.922464564 264.855339059 833.707409434 264.855339059 816 c 0
 264.855339059 812.49932089 268.142621864 807.340746405 273.686357893 799.90989221 c 0
 276.094556158 798.470773187 278.757376601 797.848494526 278.757376601 797.848494526 c 1
 288.361028668 797.848494526 299.614335343 802.5107172 309.190529985 806.156074106 c 0
 317.70172514 809.396019113 326.201657531 812.660898836 334.654475005 813.831609987 c 0
 352.000846844 816.234074138 393.609848988 816.721827681 416.125281704 818.015461388 c 1
 421.232579687 823.122759372 l 2
 421.68510625 823.575285934 422.31010625 823.855339059 423 823.855339059 c 0
 423.140787307 823.855339059 423.278872115 823.843676254 423.413340155 823.821264914 c 0
 430.266765041 822.679027433 433.895044595 822.202556239 435.82483424 820.272766594 c 2
 471.180173298 784.917427535 l 2
 471.556977021 784.540623812 472.084858626 783.838356029 472.084858626 782.813624825 c 0
 472.084858626 781.855701888 471.597686064 781.141412361 471.20841079 780.752137087 c 2
 435.85307173 745.396798026 l 2
 433.545226832 743.088953129 428.367073129 743.132138336 421.244113283 742.622246018 c 0
 399.173472566 741.042333962 353.133414324 740.632004123 335.345524995 738.168390013 c 0
 317.335611721 735.674025692 298.44238004 723.260161369 279.145723033 722.148845898 c 0
 279.01606506 722.141378754 278.886614064 722.137816407 278.757376602 722.137816407 c 0
 272.261588804 722.137816407 262.703406711 730.372980268 253.113687258 739.962699721 c 2
 217.7583482 775.318038779 l 2
 203.869685967 789.206701012 189.144660941 807.35884469 189.144660941 816 c 0
 189.144660941 836.173828512 203.368938605 852.390123022 217.897358667 869.2656804 c 0
 231.781962179 885.393409517 246.222842884 902.283739601 251.266242044 923.733561031 c 1
 231.223724568 921.823556735 213.564670559 915.221564062 191.876347986 915.221564062 c 0
 158.528864263 915.221564062 126.849665604 928.057296666 104.851270769 950.0556915 c 2
 69.4959333558 985.411028914 l 2
 51.1249235249 1003.78203875 39.5497803493 1028.5546197 39.5497803493 1057.39387103 c 0
 39.5497803493 1068.5333809 41.7670790268 1079.93841498 43.5143315054 1089.79618894 c 0
 47.0079508438 1109.50674031 50.2232430485 1127.72304024 50.2232430485 1146.09186165 c 0
 50.2232430485 1151.91896268 49.9011541453 1157.76491836 49.1638974511 1163.68864653 c 0
 49.1512010872 1163.79065959 49.1446609407 1163.89457206 49.1446609407 1164 c 0
 49.1446609407 1164.68989375 49.4247140657 1165.31489375 49.8772406282 1165.76742031 c 2
 85.2325796875 1201.12275937 l 2
 85.68510625 1201.57528593 86.31010625 1201.85533906 87 1201.85533906 c 0
 87.68989375 1201.85533906 88.31489375 1201.57528593 88.7674203125 1201.12275937 c 2
 124.122759372 1165.76742031 l 2
 124.506131887 1165.3840478 124.765717124 1164.876888 124.836102549 1164.31135347 c 0
 125.601124102 1158.16453952 125.933921167 1152.10686882 125.933921167 1146.09186165 c 0
 125.933921167 1123.05697959 120.572589098 1097.75381866 116.820237595 1075.58054293 c 0
 115.764492743 1069.34196919 115.260458443 1063.27321406 115.260458443 1057.39387087 c 0
 115.260458443 1039.14320029 120.111536225 1022.65831494 128.497383346 1008.51041168 c 1
 146.888453683 997.247929494 168.975127125 990.932242952 191.876348008 990.932242183 c 0
191.876347986 920.221564062 m 0
 214.164064711 920.221564062 232.716604529 927.539511973 254.232950377 928.991966575 c 0
 254.289311619 928.991966575 254.346182514 928.997704398 254.403501363 928.997704398 c 0
 255.783288863 928.997704398 256.903501363 927.877491898 256.903501363 926.497704398 c 0
 256.903501363 926.340397335 256.888940992 926.186464193 256.861095596 926.037180319 c 0
 252.264603491 901.394608868 236.205210212 882.869030927 221.687708949 866.006156332 c 0
 206.980102873 848.922464564 194.144660941 833.707409434 194.144660941 816 c 0
 194.144660941 811.135165284 207.462459709 792.68360852 221.293188825 778.852879404 c 2
 256.648527883 743.497540346 l 2
 266.289054233 733.857013996 275.80545477 727.137816407 278.854276967 727.140475984 c 0
 297.330925838 728.204566294 316.56343468 740.615331491 334.654475005 743.120931869 c 0
 345.646841423 744.643369327 366.296379123 745.357135663 386.034721402 746.053207628 c 0
 406.998860296 746.79250727 427.222429286 747.622014406 432.028666381 748.953841154 c 1
 432.318231106 748.931638652 l 1
 466.207256018 782.820663565 l 1
 432.289993614 816.73792597 l 1
 432.289993614 816.73792597 430.07180357 817.578595658 423.852244057 818.672742491 c 1
 418.987411044 813.807909477 l 2
 418.568277712 813.388776146 418.001186376 813.117600819 417.371615094 813.079861554 c 0
 395.201013628 811.750858429 352.288033984 811.225597471 335.345524995 808.879068131 c 0
 326.88416087 807.707173273 316.891133514 803.770648054 307.943172009 800.320288358 c 0
 298.786122106 796.789303573 288.762412717 792.848494526 278.757376601 792.848494526 c 0
 276.158773205 792.848494526 273.543044473 794.109770077 270.657957243 795.900295544 c 0
 270.391505868 796.065658992 270.158372016 796.279711825 269.971026008 796.529983723 c 0
 264.25223469 804.169606111 259.855339287 812.438745828 259.855339059 816 c 0
 259.855339059 836.173828512 274.079616724 852.390123022 288.608036786 869.2656804 c 0
 305.834613372 889.275294685 323.855339059 910.371135201 323.855339059 940 c 0
 323.855339059 946.092217204 322.071151953 950.158427083 319.196811504 953.032767531 c 2
 283.841472446 988.388106591 l 2
 279.212517167 993.017061869 270.97472373 994.943054826 261.005253184 994.943054826 c 0
 237.197399715 994.943054826 216.031289433 985.932242183 191.876348008 985.932242183 c 0
 167.823032162 985.932242183 144.65710445 992.610363985 125.350309929 1004.57668233 c 0
 125.011356861 1004.78676486 124.726245753 1005.07560845 124.520617433 1005.41757227 c 0
 115.493527766 1020.42979451 110.260458443 1037.99841895 110.260458443 1057.39387087 c 0
 110.260458443 1067.9011262 112.309460114 1078.96295123 113.997464078 1088.48507679 c 0
 117.393030801 1107.63966017 120.933921167 1127.71006193 120.933921167 1146.09186165 c 0
 120.933921167 1151.64166493 120.641757743 1157.20857107 119.977017887 1162.84348055 c 1
 87 1195.82049843 l 1
 54.2716576325 1163.09215607 l 1
 54.9330362987 1157.36295495 55.2232430485 1151.7088065 55.2232430485 1146.09186165 c 0
 55.2232430485 1126.49750803 51.6407268594 1106.85380544 48.0465201368 1086.72400555 c 0
 46.4112873127 1077.5656816 44.5497803493 1067.04910624 44.5497803493 1057.39387103 c 0
 44.5497803493 1029.94112304 55.5205874123 1006.45605611 73.0307706902 988.94587283 c 2
 108.386111395 953.590532125 l 2
 129.368694512 932.607949008 159.805090383 920.221564062 191.876347986 920.221564062 c 0
7.75906645663 742.936442589 m 0
 4.81192607531 742.936442589 1.89739276704 742.144660941 -1 742.144660941 c 0
 -1.68989375 742.144660941 -2.31489374999 742.424714066 -2.76742031249 742.877240628 c 2
 -38.1227593718 778.232579687 l 2
 -38.5752859343 778.68510625 -38.8553390593 779.31010625 -38.8553390593 780 c 0
 -38.8553390593 780.68989375 -38.5752859343 781.31489375 -38.1227593718 781.767420313 c 2
 -2.76742031249 817.122759372 l 2
 -1.10632747524 818.783852209 4.74395780303 818.647120707 7.75906645663 818.647120707 c 0
 10.2914875383 818.647120707 12.910068159 818.412335292 15.5709619504 817.789726517 c 0
 31.754360047 814.00305691 51.7172511349 813.32208148 72.395430344 812.642383161 c 0
 111.404939903 811.360128191 153.567632175 810.254924812 177.94975532 785.872801666 c 2
 213.305094381 750.517462606 l 2
 218.410126305 745.412430681 222.69995536 739.290718659 225.962784993 732.003852487 c 1
 236.967790953 732.498313008 248.712830234 732.91192412 258.766591287 733.844565403 c 0
 261.657962797 734.112784672 264.519748163 734.244197721 267.348550102 734.244197721 c 0
 293.333398543 734.244197721 316.340235103 723.145946296 333.90963188 705.576549519 c 2
 369.26497094 670.221210459 l 2
 389.121505729 650.36467567 402.090228536 622.251886521 404.844796332 592.230905692 c 0
 405.22655238 588.070292544 405.411080047 584.004584039 405.411080047 580.027204458 c 0
 405.411080047 516.336184139 355.440695487 472.87315835 320.281768191 430.407255989 c 0
 316.302218341 425.600648155 312.177367162 421.097417376 307.929973426 416.850023641 c 2
 272.574634367 381.494684581 l 2
 259.455986614 368.376036828 245.173842715 357.702220658 230.376319442 348.029470743 c 1
 240.971912313 323.891039595 245.180896133 306.236105728 251.700434578 274.742792933 c 0
 258.668176148 241.084388035 266.964710853 201.280927148 282.147748626 172.777421012 c 0
 287.298792897 170.880191948 292.88580045 169.855339277 299 169.855339059 c 0
 313.829883735 169.855339059 322.06884607 174.934880473 334.251397673 177.748924431 c 1
 374.072977723 193.677556451 l 2
 374.359694948 193.792243341 374.672537222 193.855339059 375 193.855339059 c 0
 375.68989375 193.855339059 376.31489375 193.575285934 376.767420313 193.122759371 c 2
 412.122759372 157.767420313 l 2
 412.575285934 157.31489375 412.855339059 156.68989375 412.855339059 156 c 0
 412.855339059 155.31010625 412.575285934 154.68510625 412.122759372 154.232579687 c 2
 376.767420313 118.877240628 l 2
 376.529688572 118.639508888 376.244356672 118.449377307 375.927022277 118.322443549 c 2
 335.927022277 102.322443549 l 2
 335.808412351 102.274999578 335.685331559 102.236384575 335.558594364 102.207413001 c 0
 323.043940743 99.34661741 314.861896776 94.1446609407 299 94.1446609407 c 0
 283.021877465 94.1446609407 270.004760504 100.622653518 259.49162717 111.135786851 c 2
 224.13628811 146.491125911 l 2
 196.44755665 174.179857372 185.215839653 229.659106131 176.093490849 273.725566773 c 0
 172.90744823 289.116079091 169.995132036 303.155910156 166.839156223 314.103583607 c 1
 153.602933605 310.885322698 139.442090112 310.144660941 127 310.144660941 c 0
 117.313543886 310.144660941 110.004221146 313.36017039 104.782385465 318.58200607 c 2
 69.427046406 353.937345129 l 2
 59.0178946022 364.346496932 57.1446609407 381.780018 57.1446609407 396 c 0
 57.1446609407 405.463039848 58.7492314302 415.750481203 64.8610691888 421.862318963 c 2
 100.216408249 457.217658022 l 2
 103.216009773 460.217259546 107.293529314 462.032446538 112.315889493 462.032446538 c 0
 113.285949538 462.032446538 114.286509688 461.966984243 115.31925472 461.835106383 c 0
 132.65069099 459.621943745 147.411245875 450.696215914 159.771038258 438.336423532 c 0
 171.543655849 426.56380594 183.45822081 414.989093634 195.108973787 403.057240205 c 1
 214.30187257 414.380170367 233.118622639 425.489814857 250.467621642 439.254370487 c 0
 255.664067644 445.375029762 260.945981287 451.379308772 266.187455077 457.337810062 c 0
 298.915387949 494.542905681 329.700401928 529.713329462 329.700401928 580.027204458 c 0
 329.700401928 606.507027911 322.77116307 627.44209272 310.97032652 646.46788319 c 1
 297.996008189 654.135188197 283.260040988 658.533519239 267.348550102 658.533519603 c 0
 259.000996133 658.533519603 251.001728786 657.545023222 242.87984762 657.060280628 c 1
 242.495425498 645.031295874 239.392064124 633.83361901 231.294445353 625.736000239 c 2
 195.939106293 590.380661178 l 2
 188.203351876 582.644906762 176.266384902 578.144662217 159.002550482 578.144662217 c 2
 156.288715303 578.144662217 l 2
 155.649588807 578.144662217 154.970959757 578.140878015 154.258543902 578.140878015 c 0
 143.88690689 578.140878015 126.354255125 578.367671147 119.297177307 585.424748966 c 2
 83.9418382468 620.780088026 l 2
 82.2327705443 622.489155729 81.1190648389 624.756464682 81.1190648389 627.384454905 c 0
 81.1190648389 627.657321572 81.1305096423 627.931546769 81.1531215486 628.206952979 c 0
 82.7211174901 647.304671394 89.2734838459 661.173956743 99.1924448855 671.092917784 c 2
 134.547783945 706.448256842 l 2
 140.232783287 712.133256184 146.968642109 716.48208609 154.375800911 719.830973333 c 0
 153.722246471 721.882885588 153.080676059 723.88487162 152.377710086 725.8013212 c 0
 129.971486927 734.959436769 100.679909022 735.999238072 72.2285085335 736.93444461 c 0
 51.5483249421 737.614208813 31.3384633451 738.253724525 14.42903805 742.210273483 c 0
 12.2024045402 742.731271939 9.97738990062 742.936442589 7.75906645663 742.936442589 c 0
267.348550102 663.533519603 m 0
 284.430431526 663.533519603 300.240126486 658.736788678 314.053596726 650.451224585 c 0
 314.392707431 650.247819979 314.679713083 649.966306975 314.889662812 649.631636444 c 0
 325.445442275 632.805187883 332.230152135 612.981503783 334.134118214 592.230905692 c 0
 334.515874262 588.070292543 334.700401928 584.004584038 334.700401928 580.027204458 c 0
 334.700401928 518.872001796 288.9027762 476.831197737 254.121318329 435.833632249 c 0
 254.015129226 435.708465135 253.896849257 435.593871744 253.768290278 435.491663931 c 0
 235.475989897 420.948797938 215.805291914 409.465012457 195.928418966 397.735293132 c 0
 195.556597742 397.515874383 195.123158367 397.389945964 194.660538931 397.389945964 c 0
 193.955464226 397.389945964 193.318170638 397.682459704 192.863497073 398.152648277 c 0
 180.884858282 410.540038962 168.441474412 422.596306127 156.236197632 434.801582907 c 0
 144.421708205 446.616072334 130.65546828 454.835656547 114.68074528 456.875571735 c 0
 113.844233324 456.982391331 113.0563881 457.032446538 112.315889493 457.032446538 c 0
 108.517551062 457.032446538 105.844371971 455.775940494 103.751248873 453.682817397 c 2
 68.3959098138 418.327478337 l 2
 63.9841281516 413.915696675 62.1446609407 405.04967387 62.1446609407 396 c 0
 62.1446609407 382.029417578 64.323592107 366.110480678 72.9618870308 357.472185755 c 2
 108.317226091 322.116846694 l 2
 112.569819774 317.864253012 118.445040136 315.144660941 127 315.144660941 c 0
 139.968064613 315.144660941 154.688950527 315.989958801 167.904422703 319.537244093 c 0
 168.111380312 319.59279547 168.328904558 319.622421961 168.553293838 319.622421961 c 0
 169.680042348 319.622421961 170.633692704 318.875405818 170.945577638 317.850040802 c 0
 174.474377589 306.248621102 177.575316744 291.236601331 180.989756459 274.742792933 c 0
 190.141728367 230.533234791 201.680672246 176.016423026 227.671128736 150.025966535 c 2
 263.026467795 114.670627477 l 2
 272.789492832 104.90760244 284.458526065 99.1446609407 299 99.1446609407 c 0
 313.833767044 99.1446609407 322.065663677 104.223494322 334.251398911 107.038246809 c 1
 373.59697613 122.776477696 l 1
 406.820498434 156 l 1
 374.398704056 188.421794378 l 1
 335.927022277 173.033121667 l 2
 335.808412351 172.985677696 335.685331559 172.947062693 335.558594364 172.918091119 c 0
 323.047009334 170.057996995 314.858354822 164.855339059 299 164.855339059 c 0
 291.942504911 164.855339059 285.440942651 166.112591415 279.479074589 168.441497694 c 0
 278.925605341 168.657701406 278.467801328 169.065568638 278.187446973 169.583314966 c 0
 262.188955699 199.128638498 253.840825121 239.734262768 246.804168968 273.725566773 c 0
 240.109204595 306.066292868 236.000581706 323.193727537 224.943910735 347.94670988 c 0
 224.805029428 348.257628651 224.727799054 348.602022639 224.727799054 348.964312406 c 0
 224.727799054 349.844922115 225.184091144 350.619800081 225.87294026 351.06521124 c 0
 241.137242489 360.935138328 255.73352332 371.723254784 269.039793742 385.029525207 c 2
 304.395132801 420.384864266 l 2
 308.536786938 424.526518402 312.554044015 428.912576265 316.428909927 433.592744011 c 0
 323.133728242 441.691004732 330.050486823 449.55340953 336.898133197 457.337810062 c 0
 369.626066068 494.542905681 400.411080047 529.713329462 400.411080047 580.027204458 c 0
 400.411080047 583.846896245 400.233908212 587.758115056 399.865881786 591.769094308 c 0
 397.213999774 620.670942041 384.686428599 647.73007155 365.730130315 666.686369834 c 2
 330.374791254 702.041708894 l 2
 313.607375725 718.809124424 291.855170571 729.244197721 267.348550102 729.244197721 c 0
 264.677643189 729.244197721 261.971708269 729.1201322 259.233408713 728.866112715 c 0
 248.468207063 727.867474352 235.930059045 726.927906613 224.352691843 726.927906613 c 0
 223.31334751 726.927906613 222.421287782 727.563522739 222.044355243 728.466912408 c 0
 218.9448862 735.895372474 214.789859889 741.963015847 209.770253755 746.982621982 c 2
 174.414914696 782.33796104 l 2
 152.010924057 804.74195168 111.568846983 806.351993307 72.2285085334 807.645122729 c 0
 51.5483249421 808.324886932 31.3384633446 808.964402644 14.4290380496 812.920951601 c 0
 12.202404541 813.441950058 9.97738990135 813.647120707 7.75906645663 813.647120707 c 0
 5.21876014053 813.647120707 2.68210605075 813.375497602 0.186107253598 813.006605688 c 1
 -32.8204984343 780 l 1
 -0.124659058103 747.304160624 l 1
 2.376927583 747.663100236 5.01513072592 747.936442589 7.75906645663 747.936442589 c 0
 10.291487539 747.936442589 12.9100681598 747.701657173 15.57096195 747.079048399 c 0
 31.7543600465 743.292378791 51.7172511349 742.611403361 72.3954303439 741.931705042 c 0
 101.238417705 740.983626886 131.525016081 740.067362029 155.310420569 729.997434861 c 0
 157.900024501 728.901085081 158.986642818 721.806650297 159.824942404 719.209327604 c 0
 159.903022201 718.967411193 159.945206728 718.709430549 159.945206728 718.44167493 c 0
 159.945206728 717.40455975 159.312314177 716.51409807 158.41200992 716.135770735 c 0
 150.636129783 712.868177594 143.750730264 708.581521911 138.082624571 702.913416217 c 2
 102.72728551 667.558077158 l 2
 93.7255678335 658.556359481 87.6272900635 645.954070948 86.1362003328 627.793047021 c 0
 86.1245277051 627.650877931 86.1190648389 627.514781672 86.1190648389 627.384454905 c 0
 86.1190648389 626.179741198 86.5331622633 625.258445259 87.4766788722 624.31492865 c 2
 122.832017931 588.959589592 l 2
 127.829385231 583.962222291 145.997038964 583.141948061 156.288715303 583.141948061 c 2
 158.997449518 583.141948061 l 2
 175.428025906 583.141948061 185.879808764 587.3910449 192.404265669 593.915501804 c 2
 227.759604727 629.270840863 l 2
 235.049677028 636.560913164 237.881150611 647.201514321 237.92102406 659.439955337 c 0
 237.925375642 660.775595243 238.979373437 661.866015594 240.300598999 661.928797942 c 0
 249.420154496 662.362143409 257.874398754 663.533519603 267.348550102 663.533519603 c 0
130.880067749 386.971668168 m 0
 132.826119117 386.971668168 135.824995765 385.409030826 135.824995765 383.425908828 c 0
 135.824995765 380.916137693 133.515360322 380.917333468 130.993410845 380.882714367 c 0
 129.105578262 380.882714367 128.380067749 382.509957718 128.380067749 384.471668168 c 0
 128.380067749 385.851455668 129.500280249 386.971668168 130.880067749 386.971668168 c 0
EndSplineSet
EndChar
